<svg xmlns="http://www.w3.org/2000/svg" width="23.982" height="23.982" viewBox="0 0 23.982 23.982">
  <g id="Group_4398" data-name="Group 4398" transform="translate(-1056 6770)">
    <g id="folder_1_" data-name="folder (1)" transform="translate(1056 -6770)">
      <path id="Path_2975" data-name="Path 2975" d="M23.183,16.388V13.47L22.2,11.991H21.184V2.8h1.232l-.073-.462A2.721,2.721,0,0,0,21.563.821,2.766,2.766,0,0,0,19.585,0H5.6A2.8,2.8,0,0,0,2.8,2.8v9.193H1.785L.8,13.47v2.918H0v7.594H23.982V16.388Zm-1.413-3.6.614.92v2.678h-1.2v-3.6ZM19.585.8A1.969,1.969,0,0,1,21,1.388a1.931,1.931,0,0,1,.42.61H8.278a2.733,2.733,0,0,0-.7-1.177L7.551.8ZM5.6.8a1.969,1.969,0,0,1,1.413.589,1.919,1.919,0,0,1,.554,1.073l.055.337H20.385v13.59H3.6V2.8A2,2,0,0,1,5.6.8Zm2.4,16.388h7.994v1.6H7.994ZM1.6,13.71l.614-.92H2.8v3.6H1.6Zm21.584,9.473H.8v-6h6.4v2.4h9.593v-2.4h6.4Zm0,0" transform="translate(0 0)" fill="#1875f0"/>
      <path id="Path_2976" data-name="Path 2976" d="M12,26H25.989v.8H12Zm0,0" transform="translate(-7.204 -15.608)" fill="#1875f0"/>
      <path id="Path_2977" data-name="Path 2977" d="M32,13h6.4v.8H32Zm0,0" transform="translate(-19.21 -7.804)" fill="#1875f0"/>
      <path id="Path_2978" data-name="Path 2978" d="M32,18h6.4v.8H32Zm0,0" transform="translate(-19.21 -10.805)" fill="#1875f0"/>
      <path id="Path_2979" data-name="Path 2979" d="M12,31h5.6v.8H12Zm0,0" transform="translate(-7.204 -18.609)" fill="#1875f0"/>
      <path id="Path_2980" data-name="Path 2980" d="M29,31h7.195v.8H29Zm0,0" transform="translate(-17.409 -18.609)" fill="#1875f0"/>
      <path id="Path_2981" data-name="Path 2981" d="M12,36H25.989v.8H12Zm0,0" transform="translate(-7.204 -21.611)" fill="#1875f0"/>
      <path id="Path_2982" data-name="Path 2982" d="M18,52h9.593v.8H18Zm0,0" transform="translate(-10.805 -31.216)" fill="#1875f0"/>
      <path id="Path_2983" data-name="Path 2983" d="M19.4,10H13v4.8h6.4Zm-.8,4H13.8V10.8h4.8Zm0,0" transform="translate(-7.804 -6.003)" fill="#1875f0"/>
    </g>
  </g>
</svg>
