<svg xmlns="http://www.w3.org/2000/svg" width="23.982" height="23.983" viewBox="0 0 23.982 23.983">
  <g id="Group_4403" data-name="Group 4403" transform="translate(-1056 6500)">
    <g id="sign-out" transform="translate(1055.989 -6500)">
      <g id="Group_2130" data-name="Group 2130" transform="translate(7.718)">
        <g id="Group_2129" data-name="Group 2129">
          <path id="Path_429" data-name="Path 429" d="M167.294,0H156.159a2.57,2.57,0,0,0-2.57,2.57V7.709a.857.857,0,1,0,1.713,0V2.57a.857.857,0,0,1,.857-.857h11.135a.857.857,0,0,1,.857.857V21.414a.857.857,0,0,1-.857.857H156.159a.857.857,0,0,1-.857-.857V16.274a.857.857,0,0,0-1.713,0v5.139a2.57,2.57,0,0,0,2.57,2.57h11.135a2.57,2.57,0,0,0,2.57-2.57V2.57A2.57,2.57,0,0,0,167.294,0Z" transform="translate(-153.589)" fill="#1875f0"/>
        </g>
      </g>
      <g id="Group_2132" data-name="Group 2132" transform="translate(0.011 6.863)">
        <g id="Group_2131" data-name="Group 2131">
          <path id="Path_430" data-name="Path 430" d="M17.14,141.016H2.934L5.754,138.2a.857.857,0,0,0-1.211-1.211L.26,141.267a.847.847,0,0,0-.185.278.859.859,0,0,0,.186.934l4.283,4.283a.857.857,0,1,0,1.232-1.19l-.021-.021-2.821-2.821H17.14a.857.857,0,1,0,0-1.713Z" transform="translate(-0.011 -136.744)" fill="#1875f0"/>
        </g>
      </g>
    </g>
  </g>
</svg>
