<svg xmlns="http://www.w3.org/2000/svg" width="23.1" height="23.095" viewBox="0 0 23.1 23.095">
  <g id="Group_4397" data-name="Group 4397" transform="translate(-1056.078 6823)">
    <g id="target" transform="translate(1056.078 -6823.052)">
      <g id="Group_4366" data-name="Group 4366" transform="translate(3.265 5.733)">
        <g id="Group_4365" data-name="Group 4365">
          <path id="Path_2971" data-name="Path 2971" d="M86.013,130.446a.545.545,0,1,0-1.014.4,5.984,5.984,0,1,1-3.363-3.364.545.545,0,0,0,.4-1.013,7.066,7.066,0,1,0,3.974,3.976Z" transform="translate(-72.357 -125.973)" fill="#1875f0"/>
        </g>
      </g>
      <g id="Group_4368" data-name="Group 4368" transform="translate(0 2.468)">
        <g id="Group_4367" data-name="Group 4367">
          <path id="Path_2972" data-name="Path 2972" d="M20.281,61.093a.545.545,0,0,0-1.048.3,9.241,9.241,0,1,1-6.339-6.342.545.545,0,1,0,.3-1.048,10.329,10.329,0,1,0,7.086,7.09Z" transform="translate(0 -53.603)" fill="#1875f0"/>
        </g>
      </g>
      <g id="Group_4370" data-name="Group 4370" transform="translate(6.53 8.997)">
        <g id="Group_4369" data-name="Group 4369">
          <path id="Path_2973" data-name="Path 2973" d="M152.329,201.8a.545.545,0,1,0-1.086.1c.007.078.01.157.01.236a2.72,2.72,0,1,1-2.719-2.72c.084,0,.166,0,.244.011a.545.545,0,0,0,.1-1.085c-.111-.01-.227-.015-.344-.015a3.81,3.81,0,1,0,3.809,3.81C152.344,202.026,152.339,201.914,152.329,201.8Z" transform="translate(-144.724 -198.327)" fill="#1875f0"/>
        </g>
      </g>
      <g id="Group_4372" data-name="Group 4372" transform="translate(10.006 0.052)">
        <g id="Group_4371" data-name="Group 4371">
          <path id="Path_2974" data-name="Path 2974" d="M234.779,3.716a1.087,1.087,0,0,0-1.007-.673h-1.9v-1.9a1.09,1.09,0,0,0-1.861-.771l-3.175,3.175a1.624,1.624,0,0,0-.479,1.156V7.787l-4.429,4.429a.545.545,0,1,0,.771.771l4.429-4.429h3.084a1.624,1.624,0,0,0,1.156-.479L234.543,4.9A1.086,1.086,0,0,0,234.779,3.716Zm-7.332.987a.541.541,0,0,1,.159-.385l3.175-3.175V3.362L227.447,6.7V4.7Zm3.15,2.605a.549.549,0,0,1-.385.159h-1.994l3.335-3.335h2.219Z" transform="translate(-221.768 -0.052)" fill="#1875f0"/>
        </g>
      </g>
    </g>
  </g>
</svg>
