<svg xmlns="http://www.w3.org/2000/svg" width="21.42" height="19.094" viewBox="0 0 21.42 19.094">
  <g id="Group_4396" data-name="Group 4396" transform="translate(-1056.433 6875)">
    <g id="home" transform="translate(1056.434 -6902.797)">
      <g id="Group_4362" data-name="Group 4362" transform="translate(-0.001 27.798)">
        <g id="Group_4361" data-name="Group 4361" transform="translate(0)">
          <path id="Path_2969" data-name="Path 2969" d="M21.191,35.339,11.038,27.9a.556.556,0,0,0-.657,0L.227,35.339a.557.557,0,1,0,.658.9l9.824-7.193,9.824,7.193a.557.557,0,0,0,.658-.9Z" transform="translate(0.001 -27.798)" fill="#1875f0"/>
        </g>
      </g>
      <g id="Group_4364" data-name="Group 4364" transform="translate(2.361 36.363)">
        <g id="Group_4363" data-name="Group 4363" transform="translate(0 0)">
          <path id="Path_2970" data-name="Path 2970" d="M72.592,232.543a.557.557,0,0,0-.557.557v8.859H67.583v-4.836a2.783,2.783,0,0,0-5.566,0v4.836H57.565V233.1a.557.557,0,1,0-1.113,0v9.415a.557.557,0,0,0,.557.557h5.565a.556.556,0,0,0,.554-.513.421.421,0,0,0,0-.043v-5.392a1.67,1.67,0,1,1,3.34,0v5.392a.407.407,0,0,0,0,.043.556.556,0,0,0,.554.514h5.565a.557.557,0,0,0,.557-.557V233.1A.557.557,0,0,0,72.592,232.543Z" transform="translate(-56.452 -232.543)" fill="#1875f0"/>
        </g>
      </g>
    </g>
  </g>
</svg>
