<svg xmlns="http://www.w3.org/2000/svg" width="23.982" height="21.97" viewBox="0 0 23.982 21.97">
  <g id="Group_4401" data-name="Group 4401" transform="translate(-1056 6607)">
    <g id="repair-tools-cross" transform="translate(1056 -6616.005)">
      <path id="Path_2984" data-name="Path 2984" d="M30.665,11.1c.082,0,.13,0,.164,0l.49,0a.392.392,0,0,0,.261-.681,5.451,5.451,0,0,0-3.805-1.419c-2.984,0-6.074,1.975-6.7,3.307a9.913,9.913,0,0,1-1.685,2.533.392.392,0,0,0,.019.571l2.447,2.154a.391.391,0,0,0,.337.085.4.4,0,0,0,.277-.216c.02-.041.241-.428.979-.36a3.545,3.545,0,0,1,1.571.517.391.391,0,0,0,.491-.031l2.35-2.154a.392.392,0,0,0,.086-.464l-.985-1.969A4.3,4.3,0,0,1,30.665,11.1Zm-4.494,1.683a.392.392,0,0,0,0,.356l.945,1.889L25.2,16.791a4.486,4.486,0,0,0-1.676-.493c-.084-.008-.164-.011-.241-.011a1.781,1.781,0,0,0-1.215.423L20.222,15.09a11.176,11.176,0,0,0,1.56-2.444c.472-1,3.261-2.857,5.992-2.857a4.907,4.907,0,0,1,2.358.559A4.815,4.815,0,0,0,26.171,12.788Z" transform="translate(-17.121)" fill="#1875f0"/>
      <path id="Path_2985" data-name="Path 2985" d="M2.78,71.84a.393.393,0,0,0,.254.093l.034,0a.39.39,0,0,0,.268-.141l1.371-1.664a.391.391,0,0,0-.042-.542L2.119,67.333a.4.4,0,0,0-.284-.1.39.39,0,0,0-.269.132L.1,69.031a.392.392,0,0,0,.04.557Zm-.886-3.661L3.863,69.92l-.877,1.065L.949,69.25Z" transform="translate(0 -51.723)" fill="#1875f0"/>
      <path id="Path_2986" data-name="Path 2986" d="M23.823,30.353l-6.692-6.42-2.725-2.659,5.614-5.19.281.281a.39.39,0,0,0,.277.115h.016a.391.391,0,0,0,.282-.139l2.07-2.451a.392.392,0,0,0-.053-.558l-.767-.618a.393.393,0,0,0-.491,0l-2.429,1.943a.392.392,0,0,0-.032.583l.291.291-5.621,5.2L11.771,18.7a.392.392,0,0,0-.53-.015l-2.692,2.35a.39.39,0,0,0-.029.563l2.031,2.171-.257.237-.989-1a.392.392,0,0,0-.533-.022L.216,30.338a.4.4,0,0,0-.1.142c-.286.663.124,1.71,1.02,2.605a3.366,3.366,0,0,0,2.13,1.106,1.134,1.134,0,0,0,.574-.143.383.383,0,0,0,.081-.062L11.811,26.1a.392.392,0,0,0,0-.552l-.969-.98.241-.223L20.1,33.978a.413.413,0,0,0,.09.071,1.129,1.129,0,0,0,.574.142,3.369,3.369,0,0,0,2.13-1.105c.9-.9,1.306-1.943,1.02-2.605A.378.378,0,0,0,23.823,30.353ZM21.88,13.52l.21.17-1.537,1.819-.515-.515ZM3.409,33.387a2.247,2.247,0,0,1-1.723-.855A2.428,2.428,0,0,1,.811,30.86L9,23.818l1.978,2Zm5.96-12.025,2.114-1.846,1.786,1.743L11.126,23.24ZM22.337,32.532a2.263,2.263,0,0,1-1.718.856L11.66,23.811l2.169-2.005,2.756,2.69L23.21,30.85A2.4,2.4,0,0,1,22.337,32.532Z" transform="translate(-0.019 -3.217)" fill="#1875f0"/>
      <path id="Path_2987" data-name="Path 2987" d="M19.767,132.077a.2.2,0,0,0,.277,0l6.78-6.6a.2.2,0,1,0-.273-.281l-6.78,6.6A.2.2,0,0,0,19.767,132.077Z" transform="translate(-17.509 -103.161)" fill="#1875f0"/>
      <path id="Path_2988" data-name="Path 2988" d="M18.043,119.373a.2.2,0,0,0-.276-.02l-7.185,6.225a.2.2,0,1,0,.256.3l7.186-6.225A.2.2,0,0,0,18.043,119.373Z" transform="translate(-9.339 -97.975)" fill="#1875f0"/>
      <path id="Path_2989" data-name="Path 2989" d="M28.968,137.92a.2.2,0,0,0,.138.057.193.193,0,0,0,.138-.058l6.706-6.747a.2.2,0,1,0-.278-.276l-6.706,6.747A.2.2,0,0,0,28.968,137.92Z" transform="translate(-25.68 -108.219)" fill="#1875f0"/>
    </g>
  </g>
</svg>
