<svg xmlns="http://www.w3.org/2000/svg" xmlns:xlink="http://www.w3.org/1999/xlink" width="317.845" height="275.887" viewBox="0 0 317.845 275.887">
  <defs>
    <clipPath id="clip-path">
      <path id="Path_813" data-name="Path 813" d="M1275.418-59.361c0,38.368,28.169,57.263,64.8,57.263s69.833-26.993,69.833-65.361-41.121-73.729-76.317-63.568c-38.814,11.206-58.317,33.3-58.317,71.667" transform="translate(-1275.418 132.793)" fill="none" clip-rule="evenodd"/>
    </clipPath>
    <clipPath id="clip-path-2">
      <path id="Path_812" data-name="Path 812" d="M1211,538.781h433.55V-400H1211Z" transform="translate(-1211 400)" fill="none"/>
    </clipPath>
    <clipPath id="clip-path-3">
      <path id="Path_816" data-name="Path 816" d="M1386.509-215.735c-5.244,0-7.835-5.793-10.342-11.4-2.516-5.626-4.892-10.939-9.638-10.939s-7.122,5.313-9.638,10.939c-2.507,5.6-5.1,11.4-10.343,11.4s-7.834-5.793-10.34-11.4c-2.516-5.626-4.892-10.939-9.636-10.939s-7.122,5.313-9.638,10.939c-2.506,5.6-5.1,11.4-10.34,11.4s-7.835-5.793-10.34-11.4c-2.516-5.626-4.892-10.939-9.636-10.939a.384.384,0,0,1-.384-.386.384.384,0,0,1,.384-.385c5.243,0,7.833,5.792,10.339,11.4,2.516,5.625,4.893,10.939,9.637,10.939s7.122-5.315,9.638-10.939c2.507-5.6,5.1-11.4,10.341-11.4s7.834,5.793,10.341,11.4c2.515,5.626,4.891,10.939,9.635,10.939s7.123-5.315,9.639-10.939c2.507-5.6,5.1-11.4,10.342-11.4s7.836,5.793,10.343,11.4c2.516,5.626,4.892,10.939,9.636,10.939a.385.385,0,0,1,.385.385.385.385,0,0,1-.385.386" transform="translate(-1286.234 238.84)" fill="none" clip-rule="evenodd"/>
    </clipPath>
    <clipPath id="clip-path-5">
      <path id="Path_819" data-name="Path 819" d="M1255.825-96.215a39.528,39.528,0,0,1,8.761-42.586,39.145,39.145,0,0,1,19.5-10.657l4.206,19.222a19.847,19.847,0,0,0-15.592,19.383,19.649,19.649,0,0,0,1.406,7.347Z" transform="translate(-1253.02 149.457)" fill="none" clip-rule="evenodd"/>
    </clipPath>
    <clipPath id="clip-path-7">
      <path id="Path_822" data-name="Path 822" d="M1317.424-81.038a39.256,39.256,0,0,1-18.554,10.455,39.6,39.6,0,0,1-9.376,1.126,39.836,39.836,0,0,1-5.359-.362,39.373,39.373,0,0,1-22.585-11.22c-.307-.307-.6-.63-.9-.952l14.36-13.445a19.775,19.775,0,0,0,14.481,6.273,19.816,19.816,0,0,0,19.812-19.825,19.816,19.816,0,0,0-11.051-17.788l8.707-17.654a39.089,39.089,0,0,1,10.463,7.493,39.554,39.554,0,0,1,0,55.9" transform="translate(-1260.653 144.427)" fill="none" clip-rule="evenodd"/>
    </clipPath>
    <clipPath id="clip-path-9">
      <path id="Path_825" data-name="Path 825" d="M1304.206-143.875l-8.707,17.654a19.6,19.6,0,0,0-8.761-2.051,19.9,19.9,0,0,0-4.233.456l-4.206-19.222c1.017-.228,2.05-.416,3.081-.55a38.277,38.277,0,0,1,5.385-.375,39.276,39.276,0,0,1,11.119,1.609,38.322,38.322,0,0,1,6.322,2.48" transform="translate(-1278.299 147.964)" fill="none" clip-rule="evenodd"/>
    </clipPath>
    <clipPath id="clip-path-11">
      <path id="Path_828" data-name="Path 828" d="M1261.717-84.59a38.959,38.959,0,0,1-7.864-12.359l18.285-7.292a19.641,19.641,0,0,0,3.939,6.206Z" transform="translate(-1253.853 104.241)" fill="none" clip-rule="evenodd"/>
    </clipPath>
    <clipPath id="clip-path-13">
      <path id="Path_831" data-name="Path 831" d="M1501.12-132.659a384.533,384.533,0,0,0-168.021,0,6.011,6.011,0,0,1-7.183-4.378q-8.709-36.3-17.417-72.6c-.768-3.159,1.8-6.5,5.74-7.378a470.875,470.875,0,0,1,205.742,0c3.942.882,6.508,4.218,5.74,7.378q-8.71,36.3-17.419,72.6a6.009,6.009,0,0,1-7.182,4.378" transform="translate(-1308.363 228.385)" fill="none" clip-rule="evenodd"/>
    </clipPath>
    <clipPath id="clip-path-15">
      <path id="Path_834" data-name="Path 834" d="M1330.005-142.315l-14.9-66.579c-.4-1.768,1.036-3.6,3.207-4.064a465.02,465.02,0,0,1,195.512,0c2.171.467,3.606,2.3,3.207,4.064q-7.448,33.289-14.9,66.579a3.354,3.354,0,0,1-4.011,2.48,390.313,390.313,0,0,0-164.107,0,3.353,3.353,0,0,1-4.01-2.48" transform="translate(-1315.038 223.349)" fill="none" clip-rule="evenodd"/>
    </clipPath>
    <clipPath id="clip-path-17">
      <path id="Path_837" data-name="Path 837" d="M1418.517-209.39q-1.082,26.9-2.161,53.811l-1.382-.054q.987-26.909,1.973-53.818c.524.019,1.045.039,1.569.06" transform="translate(-1414.975 209.451)" fill="none" clip-rule="evenodd"/>
    </clipPath>
    <clipPath id="clip-path-19">
      <path id="Path_840" data-name="Path 840" d="M1333.9-176.961l4.467,23.163q-.681.131-1.362.265-2.272-11.573-4.548-23.147c.48-.1.962-.189,1.443-.282" transform="translate(-1332.453 176.961)" fill="none" clip-rule="evenodd"/>
    </clipPath>
    <clipPath id="clip-path-21">
      <path id="Path_843" data-name="Path 843" d="M1362.05-176.507q1.029,9.008,2.053,18.014c-.458.054-.914.106-1.373.161q-1.06-9-2.116-18.008l1.436-.168" transform="translate(-1360.614 176.507)" fill="none" clip-rule="evenodd"/>
    </clipPath>
    <clipPath id="clip-path-23">
      <path id="Path_846" data-name="Path 846" d="M1388.873-195.715q.7,18.969,1.392,37.937c-.46.016-.92.035-1.379.054q-.765-18.967-1.525-37.933l1.512-.058" transform="translate(-1387.361 195.715)" fill="none" clip-rule="evenodd"/>
    </clipPath>
    <clipPath id="clip-path-25">
      <path id="Path_849" data-name="Path 849" d="M1447.658-198.063l-5.067,43.123-1.376-.16,4.918-43.141q.763.087,1.525.177" transform="translate(-1441.215 198.24)" fill="none" clip-rule="evenodd"/>
    </clipPath>
    <clipPath id="clip-path-27">
      <path id="Path_852" data-name="Path 852" d="M1474.292-181.519l-5.647,28.742c-.455-.09-.908-.177-1.361-.265q2.771-14.38,5.546-28.761c.488.094.974.189,1.462.284" transform="translate(-1467.284 181.803)" fill="none" clip-rule="evenodd"/>
    </clipPath>
    <clipPath id="clip-path-29">
      <path id="Path_855" data-name="Path 855" d="M1397.157-203.677c-.17,0-.343,0-.517.009-9.138.381-13.068,9.359-16.535,18-3.272,8.094-6.1,15.742-12.545,17.392l.155,1.344c7.323-1.732,10.458-10.127,13.789-18.3,3.489-8.607,7.092-16.764,15.188-17.1.153-.005.3-.008.45-.008,7.805,0,11.951,7.712,16.023,15.864,4.072,8.112,7.958,16.477,15.82,17.241.016-.448.033-.9.05-1.343-6.97-.744-10.486-8.376-14.507-16.445-4.054-8.183-8.573-16.658-17.37-16.658m66.671,2.57c-8.169,0-13.109,7.772-17.6,15.309-4.637,7.748-8.737,15.1-15.767,15.281-.017.448-.036.9-.053,1.343,7.916-.135,12.445-8.189,17.135-15.974,4.509-7.515,9.058-14.618,16.332-14.616a11.706,11.706,0,0,1,1.334.078c8.058.957,11.033,9.368,13.856,18.221,2.7,8.39,5.184,16.988,12.344,19.3.088-.442.172-.886.258-1.33-6.286-2.163-8.524-9.994-11.167-18.3-2.8-8.883-6.042-18.139-15.136-19.223a13.454,13.454,0,0,0-1.538-.088m-133.064,5.238a13.127,13.127,0,0,0-2.528.251c.086.438.173.877.259,1.315a11.405,11.405,0,0,1,2.194-.217c6.814,0,11.708,6.468,16.6,13.317,5.135,7.166,10.133,14.6,17.648,14.6a12,12,0,0,0,1.371-.08l-.157-1.331a10.6,10.6,0,0,1-1.19.068c-6.738,0-11.306-6.835-16.41-14.006-4.865-6.864-10.161-13.912-17.785-13.912m162.3,32.746c-.028.133-.053.264-.079.4.025-.131.051-.263.079-.4" transform="translate(-1328.235 203.677)" fill="none" clip-rule="evenodd"/>
    </clipPath>
    <clipPath id="clip-path-31">
      <path id="Path_858" data-name="Path 858" d="M1415.427-175.044q-.023.671-.049,1.343.359.034.729.048c.167.007.331.009.493.009h.2c.017-.448.037-.9.054-1.343-.089,0-.178,0-.269,0-.142,0-.287,0-.43-.008-.247-.009-.49-.027-.73-.052" transform="translate(-1415.378 175.044)" fill="none" clip-rule="evenodd"/>
    </clipPath>
    <clipPath id="clip-path-33">
      <path id="Path_861" data-name="Path 861" d="M1362.44-173.057a10.308,10.308,0,0,1-1.372.252l-.041.005.158,1.331.038,0a11.945,11.945,0,0,0,1.37-.24l-.154-1.344" transform="translate(-1361.027 173.057)" fill="none" clip-rule="evenodd"/>
    </clipPath>
    <clipPath id="clip-path-35">
      <path id="Path_864" data-name="Path 864" d="M1469.63-168.921q-.126.666-.255,1.33a11.648,11.648,0,0,0,1.39.357l.18-.919c.025-.131.052-.264.078-.4a10.258,10.258,0,0,1-1.392-.371" transform="translate(-1469.375 168.921)" fill="none" clip-rule="evenodd"/>
    </clipPath>
    <clipPath id="clip-path-37">
      <path id="Path_867" data-name="Path 867" d="M1330-209.847a1.983,1.983,0,0,1-1.614,2.281,1.983,1.983,0,0,1-2.346-1.521,1.979,1.979,0,0,1,1.614-2.291,1.977,1.977,0,0,1,2.346,1.531" transform="translate(-1326 211.416)" fill="none" clip-rule="evenodd"/>
    </clipPath>
    <clipPath id="clip-path-39">
      <path id="Path_870" data-name="Path 870" d="M1336.429-211a1.982,1.982,0,0,1-1.651,2.255,1.985,1.985,0,0,1-2.319-1.56,1.976,1.976,0,0,1,1.651-2.263,1.975,1.975,0,0,1,2.319,1.568" transform="translate(-1332.43 212.595)" fill="none" clip-rule="evenodd"/>
    </clipPath>
    <clipPath id="clip-path-41">
      <path id="Path_873" data-name="Path 873" d="M1342.875-212.036a1.983,1.983,0,0,1-1.687,2.228,1.981,1.981,0,0,1-2.29-1.6,1.975,1.975,0,0,1,1.684-2.236,1.976,1.976,0,0,1,2.293,1.607" transform="translate(-1338.874 213.669)" fill="none" clip-rule="evenodd"/>
    </clipPath>
    <clipPath id="clip-path-43">
      <path id="Path_876" data-name="Path 876" d="M1328.3-6.528l.745-11.226,5.19.559-1.916,11.45Z" transform="translate(-1328.298 17.754)" fill="none" clip-rule="evenodd"/>
    </clipPath>
    <clipPath id="clip-path-45">
      <path id="Path_879" data-name="Path 879" d="M1333.115-9.608a1.8,1.8,0,0,1,.9.381,24.21,24.21,0,0,0,5.539,3.74c2.673,1.019,4.227,2.645.066,2.645s-5.421-.131-6.677-.161c-1.856-.044-1.021.161-5.651.161-2.279,0-1.21-4.283.043-6.36.38-.633.509-1.158,1.271-1.048Z" transform="translate(-1325.962 10.266)" fill="none" clip-rule="evenodd"/>
    </clipPath>
    <clipPath id="clip-path-47">
      <path id="Path_882" data-name="Path 882" d="M1339.921-6.566l2.36-10.946,5.191.558L1343.94-5.783Z" transform="translate(-1339.921 17.512)" fill="none" clip-rule="evenodd"/>
    </clipPath>
    <clipPath id="clip-path-49">
      <path id="Path_885" data-name="Path 885" d="M1345.146-9.607a1.8,1.8,0,0,1,.9.381,28.738,28.738,0,0,0,9.9,4.493c2.956.426,3.108,1.891-1.053,1.891s-7.211-.371-9.064-.324-2.563.324-7.125.324c-3.5,0-1.215-4.468.038-6.545a1.888,1.888,0,0,1,1.895-.863Z" transform="translate(-1336.848 10.271)" fill="none" clip-rule="evenodd"/>
    </clipPath>
    <clipPath id="clip-path-51">
      <path id="Path_888" data-name="Path 888" d="M1393.349-179.033a33.151,33.151,0,0,1-4.011,2.556,6.207,6.207,0,0,0-2.462.988c-.924.617-5.4,3.767-6.6,7.775-.59,1.26-1.192,2.52-1.822,3.753q-.2.4-.4.8c-.134.255-.254.5-.376.737-.629,1.193-1.245,2.346-1.861,3.432-2.344,4.209-4.474,7.4-5.466,8.029-3.616,1.823-14.521.6-21.1-.858a3.726,3.726,0,0,0-4.42,2.828,3.708,3.708,0,0,0,2.827,4.423,82.752,82.752,0,0,0,16.208,1.957c3.7,0,7.274-.442,9.82-1.729,2.652-1.34,5.211-6.809,7.113-11.809.429-1.1.817-2.185,1.165-3.19.268-.764.523-1.474.751-2.131.014-.055.04-.109.053-.161.375-1.166.709-2.118.937-2.761.468-1.3.75-1.836,1.179-2.815s4.448-.993,6.1-2.106c1.715-1.138,1.513-4.06.817-5.964a1.928,1.928,0,0,0-.2-.343q.464-.3.949-.621c2.364-1.576,4.316-5.508.8-2.795" transform="translate(-1344.738 179.963)" fill="none" clip-rule="evenodd"/>
    </clipPath>
    <clipPath id="clip-path-53">
      <path id="Path_891" data-name="Path 891" d="M1348.625-182.052s5.707,19.832-2.02,23.468c-8.11,3.817-13.753-7.08-13.753-7.08l-1.852-13.9Z" transform="translate(-1331 182.052)" fill="none" clip-rule="evenodd"/>
    </clipPath>
    <clipPath id="clip-path-55">
      <path id="Path_894" data-name="Path 894" d="M1333.949-153.9a16.371,16.371,0,0,0,9.308.06,9.269,9.269,0,0,1-1.011-3.8c-.059-.607-.088-1.217-.1-1.79a28.352,28.352,0,0,1,.125-3.262l-6.723-.364-.17.947-.761,4.346Z" transform="translate(-1333.949 163.052)" fill="none" clip-rule="evenodd"/>
    </clipPath>
    <clipPath id="clip-path-57">
      <path id="Path_897" data-name="Path 897" d="M1346.265-169.567a1.156,1.156,0,0,1-1.437.78,1.156,1.156,0,0,1-.78-1.436,1.156,1.156,0,0,1,1.436-.781,1.157,1.157,0,0,1,.781,1.436" transform="translate(-1344 171.052)" fill="none" clip-rule="evenodd"/>
    </clipPath>
    <clipPath id="clip-path-59">
      <path id="Path_900" data-name="Path 900" d="M1329.632-81.567s-3.8-9.615-1.355-22.962h31.189a139.153,139.153,0,0,1,.122,19.553Z" transform="translate(-1327.459 104.528)" fill="none" clip-rule="evenodd"/>
    </clipPath>
    <clipPath id="clip-path-61">
      <path id="Path_903" data-name="Path 903" d="M1335.136-94.352h-.11c-3.391,0-7.427,0-6.23,7.47.047.292,1.43,30.356.419,42.987-.953,11.914-1.807,44.945-1.83,45.306h6.932c.023-.359,6.38-32.48,7.325-44.31,1.044-13.02,1.881-42.559,1.9-43.782.059-3.445-4.964-7.611-8.406-7.671" transform="translate(-1327.384 94.352)" fill="none" clip-rule="evenodd"/>
    </clipPath>
    <clipPath id="clip-path-63">
      <path id="Path_906" data-name="Path 906" d="M1357.76-88.145c-.237-3.437-3.621-5.293-7.042-5.032-3.434.236-10.345,2.962-10.108,6.4.017.259,6.1,26.313,6.327,38.071.2,10.415-.606,19.112-7.582,50.039l6.8.462c1.522-4.086,13.533-36.085,13.249-50.743-.232-12.063-1.569-38.126-1.642-39.2" transform="translate(-1339.355 93.201)" fill="none" clip-rule="evenodd"/>
    </clipPath>
    <clipPath id="clip-path-65">
      <path id="Path_909" data-name="Path 909" d="M1334.832-152.2s-5.078,24.235-6.029,28.712a4.2,4.2,0,0,1-3.256,3.324,4.534,4.534,0,0,1-1.1.147c-1.475,0-2.947-2.252-7.4-8.847-.133-.2-.28-.416-.428-.63-.523-.764-1.073-1.582-1.661-2.466-.147-.228-.309-.456-.469-.684q-1.545-2.252-3.482-5.027c-1.272.456-5.1,2.533-6.619,2.533-2.047,0-4.567-.2-3.762-2.091a7.4,7.4,0,0,1,4.782-3.9,22.962,22.962,0,0,0,3.67-1.26,1.012,1.012,0,0,0,.175-.08,2.64,2.64,0,0,1,.349-.147,3.348,3.348,0,0,1,.334-.121c.122-.027.242-.054.349-.08.132-.013.255-.04.375-.04a2.8,2.8,0,0,1,.335-.013,3.5,3.5,0,0,1,.373.027,2.677,2.677,0,0,1,.322.054,2.341,2.341,0,0,1,.363.094,1.3,1.3,0,0,1,.32.121,1.5,1.5,0,0,1,.335.161,2.179,2.179,0,0,1,.3.174,2.749,2.749,0,0,1,.295.228,1.52,1.52,0,0,1,.267.241c.08.08.175.188.253.282.042.054.082.094.123.147,1.431,1.971,3.014,4.075,4.567,6.032.176.214.349.442.524.657.642.8,1.273,1.582,1.874,2.306.173.2.334.4.495.6.444.523.859,1.005,1.261,1.448.24-1.153.509-2.413.777-3.726.038-.174.08-.362.12-.55,1.769-8.472,4.019-19.142,4.019-19.142Z" transform="translate(-1300.479 153.717)" fill="none" clip-rule="evenodd"/>
    </clipPath>
    <clipPath id="clip-path-67">
      <path id="Path_912" data-name="Path 912" d="M1319.516-134.232l-4.354,2.882c-.133-.2-.281-.416-.427-.63-.524-.764-1.073-1.582-1.662-2.467-.148-.228-.309-.456-.469-.684l4.019-2.667c.176.214.35.442.523.657.643.8,1.274,1.582,1.875,2.306.175.2.335.4.5.6" transform="translate(-1312.603 137.798)" fill="none" clip-rule="evenodd"/>
    </clipPath>
    <clipPath id="clip-path-69">
      <path id="Path_915" data-name="Path 915" d="M1381.847-164.523c-4.474,8.579-6.484,10.375-6.792,10.616-3.334,1.586-11.28.914-17.621-.371a17.894,17.894,0,0,0-3.4-.745h-25.818a3.08,3.08,0,0,0-3,2.378h0s-2.893,13.793-4.754,22.627c-.442-.523-.939-1.113-1.488-1.783l-6.8,5.456c5.2,6.367,7.877,8.619,10.542,8.633h.028a5.7,5.7,0,0,0,1.232-.146,4.751,4.751,0,0,0,1.365-.564,4.914,4.914,0,0,0,2.265-3.244c.2-.944.589-2.785,1.077-5.106,1.421,12.025,3.611,14.466,1.979,31.613h31.19s-1.187-31.829-3.389-48.875a50.287,50.287,0,0,0,11.421.243,24.64,24.64,0,0,0,9.174-2.365c1.258-.63,2.815-1.381,9.246-13.713Z" transform="translate(-1312.175 164.523)" fill="none" clip-rule="evenodd"/>
    </clipPath>
    <clipPath id="clip-path-71">
      <path id="Path_918" data-name="Path 918" d="M1319.125-136.04l-6.8,5.456c-.35-.429-.711-.885-1.087-1.354l6.805-5.442c.388.483.75.925,1.084,1.34" transform="translate(-1311.236 137.38)" fill="none" clip-rule="evenodd"/>
    </clipPath>
    <clipPath id="clip-path-73">
      <path id="Path_921" data-name="Path 921" d="M1378.316-163.79c-.014.054-.039.107-.053.161-.228.657-.481,1.367-.751,2.131l-4.287-3.083c.12-.241.242-.483.375-.737s.269-.536.4-.8Z" transform="translate(-1373.225 166.122)" fill="none" clip-rule="evenodd"/>
    </clipPath>
    <clipPath id="clip-path-75">
      <path id="Path_924" data-name="Path 924" d="M1379.621-161.075c-.242.483-.482.938-.724,1.394l-6.459-4.651c.228-.442.467-.912.724-1.408Z" transform="translate(-1372.438 165.74)" fill="none" clip-rule="evenodd"/>
    </clipPath>
    <clipPath id="clip-path-77">
      <path id="Path_927" data-name="Path 927" d="M1326.913-130.016c-.495,2.306-.883,4.129-1.086,5.08a4.9,4.9,0,0,1-2.264,3.243l1.569-21.9c.6,4.169,1.217,8.82,1.781,13.579" transform="translate(-1323.564 143.595)" fill="none" clip-rule="evenodd"/>
    </clipPath>
    <clipPath id="clip-path-79">
      <path id="Path_930" data-name="Path 930" d="M1328.1-166.62a16.587,16.587,0,0,1-4.924-10.151,10.176,10.176,0,0,1,.862-6.644c1.164-1.962,3.812-3.276,5.893-2.312a3.574,3.574,0,0,1,1.7-2.455,10.2,10.2,0,0,1,7.3-1.791c1.928.274,4.052,1.066,5.7.031.718-.453,1.185-1.553.546-2.11a3.476,3.476,0,0,1,1.45,4.778,4.082,4.082,0,0,0,1.62-.69c.453-.379.9-.927.645-1.454a6.311,6.311,0,0,1,2.915,4.165,6.261,6.261,0,0,1-1.179,4.931,8.229,8.229,0,0,1-4.6,2.781,20.015,20.015,0,0,1-5.464.385,51.985,51.985,0,0,0-.13,9.809,4.759,4.759,0,0,0-1.209-1.838,1.655,1.655,0,0,0-2.053-.067,2.066,2.066,0,0,0-.465,1.684,5.271,5.271,0,0,0,1,2.892,3.378,3.378,0,0,0,2.683,1.363c.87,4.965-4.328,6.891-4.85,7.1a3.848,3.848,0,0,0-.082-2.028,3.969,3.969,0,0,1-2.116,1.542,2.987,2.987,0,0,0-.51-2.977c-1.522-2.286-2.667-5.112-4.722-6.945" transform="translate(-1323 192.052)" fill="none" clip-rule="evenodd"/>
    </clipPath>
    <clipPath id="clip-path-81">
      <path id="Path_933" data-name="Path 933" d="M1344.2,2.6l-.639-.2c.109-.34,9.733-31.3,10.889-36.259.8-3.432,2.114-9.937,1.917-14.963-.164-4.247-2.486-38.42-2.51-38.766.439-4.129.666-17.528.668-17.663l.67.011c0,.135-.23,13.565-.672,17.666.024.286,2.347,34.47,2.513,38.725.2,5.106-1.127,11.678-1.934,15.142-1.163,4.982-10.795,35.97-10.9,36.311" transform="translate(-1343.557 105.257)" fill="none" clip-rule="evenodd"/>
    </clipPath>
    <clipPath id="clip-path-83">
      <path id="Path_936" data-name="Path 936" d="M1327.261-101.443H1337.7v-.67h-10.437Z" transform="translate(-1327.261 102.114)" fill="none" clip-rule="evenodd"/>
    </clipPath>
    <clipPath id="clip-path-85">
      <path id="Path_939" data-name="Path 939" d="M1428.646-94.973h37.176a1.594,1.594,0,0,0,1.565-2.18l-6.225-22.076a3.1,3.1,0,0,0-2.792-2.18h-37.175a1.593,1.593,0,0,0-1.564,2.18l6.221,22.076a3.105,3.105,0,0,0,2.794,2.18" transform="translate(-1419.545 121.408)" fill="none" clip-rule="evenodd"/>
    </clipPath>
    <clipPath id="clip-path-87">
      <path id="Path_942" data-name="Path 942" d="M1429.349-94.973h37.177a1.593,1.593,0,0,0,1.563-2.18l-6.223-22.076a3.1,3.1,0,0,0-2.794-2.18H1421.9a1.593,1.593,0,0,0-1.564,2.18l6.222,22.076a3.1,3.1,0,0,0,2.793,2.18" transform="translate(-1420.248 121.408)" fill="none" clip-rule="evenodd"/>
    </clipPath>
    <clipPath id="clip-path-89">
      <path id="Path_945" data-name="Path 945" d="M1428.593-100.757l-4.084-14.486a2.455,2.455,0,0,1,2.362-3.121h29.3a2.456,2.456,0,0,1,2.361,1.788l4.083,14.486a2.454,2.454,0,0,1-2.361,3.121h-29.3a2.452,2.452,0,0,1-2.361-1.788" transform="translate(-1424.416 118.363)" fill="none" clip-rule="evenodd"/>
    </clipPath>
    <clipPath id="clip-path-91">
      <path id="Path_948" data-name="Path 948" d="M1426.037-98.133a1.148,1.148,0,0,0,1.068.735h39.248a1.147,1.147,0,0,0,1.068-.735.3.3,0,0,0-.282-.41h-40.818a.3.3,0,0,0-.284.41" transform="translate(-1426.017 98.544)" fill="none" clip-rule="evenodd"/>
    </clipPath>
    <clipPath id="clip-path-93">
      <path id="Path_951" data-name="Path 951" d="M1434.86-98.133a1.145,1.145,0,0,0,1.067.735h39.247a1.146,1.146,0,0,0,1.068-.735.3.3,0,0,0-.282-.41h-40.818a.3.3,0,0,0-.282.41" transform="translate(-1434.839 98.544)" fill="none" clip-rule="evenodd"/>
    </clipPath>
    <clipPath id="clip-path-95">
      <path id="Path_954" data-name="Path 954" d="M1449.533-98.543v.186a.39.39,0,0,0,.387.387h6.673a.388.388,0,0,0,.385-.387v-.186Z" transform="translate(-1449.533 98.543)" fill="none" clip-rule="evenodd"/>
    </clipPath>
    <clipPath id="clip-path-97">
      <path id="Path_957" data-name="Path 957" d="M1486.146-93.694a6.234,6.234,0,0,0-7.073-5.267c-3.66.539-35.907,5.855-40.743,26.826-2.948,12.782,5.753,34.939,12.563,52.7l5.916-1.752c-4.936-15.142-7.929-41.211-6.331-48.143,2.487-10.783,23.313-16.231,30.412-17.29a6.237,6.237,0,0,0,5.257-7.076" transform="translate(-1437.738 99.026)" fill="none" clip-rule="evenodd"/>
    </clipPath>
    <clipPath id="clip-path-99">
      <path id="Path_960" data-name="Path 960" d="M1485.876-173.214a1.77,1.77,0,0,0-.221-.137c-1.445-6.154-6.953-12.337-13.545-12.337-6.492,0-11.93,6.045-13.475,12.059a1.751,1.751,0,0,0-1.146.416,4.762,4.762,0,0,0-1.69,3.643,4.762,4.762,0,0,0,1.69,3.643,1.774,1.774,0,0,0,1.495.4c1.254,3.737,5.19,9.666,11.072,10.095a8.358,8.358,0,0,1-1.009,4.761c-2.5,3.961-2.852,4.564-2.852,4.564a4.383,4.383,0,0,0,1.524,6,4.357,4.357,0,0,0,2.24.621,4.379,4.379,0,0,0,3.76-2.126c.046-.076.489-.807,2.742-4.382,2.13-3.382,2.5-7.446,2.323-10.871,3.1-1.639,5.316-5.374,6.477-8.729a1.764,1.764,0,0,0,.616-.33,4.759,4.759,0,0,0,1.691-3.643,4.759,4.759,0,0,0-1.691-3.643" transform="translate(-1455.799 185.688)" fill="none" clip-rule="evenodd"/>
    </clipPath>
    <clipPath id="clip-path-101">
      <path id="Path_963" data-name="Path 963" d="M1482.976-84.212s3.8-6.969,1.356-20.316h-31.19s-.443,10.158.274,20.316Z" transform="translate(-1453.007 104.528)" fill="none" clip-rule="evenodd"/>
    </clipPath>
    <clipPath id="clip-path-103">
      <path id="Path_966" data-name="Path 966" d="M1465.376-97.485c-5.606,0-10.616-.039-15.054-.075-23.034-.174-29.974-.232-33.246,5.693-1.132,2.056-1.881,5.448.993,9.938,7.266,11.355,32.374,29.136,35.089,31.334l4.635-5.81c-6.008-4.869-19.054-19.852-26.421-28.553,4.577-.237,11.582-.184,18.852-.126,4.469.034,9.509.074,15.153.074a6.235,6.235,0,0,0,6.233-6.238,6.234,6.234,0,0,0-6.233-6.237" transform="translate(-1416.069 97.61)" fill="none" clip-rule="evenodd"/>
    </clipPath>
    <clipPath id="clip-path-105">
      <path id="Path_969" data-name="Path 969" d="M1502.368-125.928c0-2.87-3.014-8.659-6.805-14.691-3.081-4.881-6.632-9.907-9.352-13.647a3.716,3.716,0,0,0-5.183-.8,3.7,3.7,0,0,0-.8,5.174c3.242,4.437,6.63,9.422,9.323,13.725,2.827,4.464,4.917,8.2,5.345,9.839-1.406,2.709-9.591,11.005-16.758,17.454a3.537,3.537,0,0,0-.3.327c-.053.059-.113.114-.162.176a3.363,3.363,0,0,0-.293.462c-.029.052-.064.1-.09.15a3.627,3.627,0,0,0-.2.523c-.016.05-.038.1-.051.146a3.611,3.611,0,0,0-.1.532c-.006.058-.021.114-.025.172a3.8,3.8,0,0,0,.008.5c0,.072,0,.145.01.216a3.262,3.262,0,0,0,.1.459c.02.083.031.165.058.245a3.524,3.524,0,0,0,.18.422c.039.082.067.166.113.245a3.576,3.576,0,0,0,.274.4c.047.063.081.13.132.19l.043.048c.006.008.012.019.02.028s.014.011.02.017a16.164,16.164,0,0,0,6.1,4.454,3.685,3.685,0,0,0,1.214.205c1.533,0,2.285-2.331,2.815-3.864.672-1.934-2.019-3.689-3.954-4.36-.045-.015-.1-.044-.148-.064,10.633-8.2,18.468-14.4,18.467-18.679" transform="translate(-1476.913 155.783)" fill="none" clip-rule="evenodd"/>
    </clipPath>
    <clipPath id="clip-path-107">
      <path id="Path_972" data-name="Path 972" d="M1495.212-140.62l-4.086,3.016-1.93,1.434c-2.693-4.3-6.081-9.289-9.323-13.726a3.694,3.694,0,0,1,.8-5.174,3.719,3.719,0,0,1,5.184.8c2.719,3.74,6.27,8.767,9.351,13.646" transform="translate(-1479.155 155.783)" fill="none" clip-rule="evenodd"/>
    </clipPath>
    <clipPath id="clip-path-109">
      <path id="Path_975" data-name="Path 975" d="M1495.443-141.946,1491-139.184l-3.806,2.373-.643-1.032-1.914-3.1c-1.354-2.2-2.586-4.142-3.5-5.549s-1.473-2.292-1.487-2.306a4.812,4.812,0,0,1-.709-1.85,4.866,4.866,0,0,1,2.13-4.879,4.825,4.825,0,0,1,1.835-.71,4.307,4.307,0,0,1,1.1-.054,4.817,4.817,0,0,1,3.778,2.185c.095.134,2.332,3.566,5.1,8.043l1.917,3.083Z" transform="translate(-1478.874 156.301)" fill="none" clip-rule="evenodd"/>
    </clipPath>
    <clipPath id="clip-path-111">
      <path id="Path_978" data-name="Path 978" d="M1491-139.184l-3.805,2.373-.642-1.032-1.916-3.1c-1.355-2.2-2.587-4.142-3.5-5.549s-1.474-2.292-1.489-2.306a4.849,4.849,0,0,1-.708-1.85,4.868,4.868,0,0,1,2.131-4.879,4.824,4.824,0,0,1,1.835-.71,4.307,4.307,0,0,1,1.1-.054,6.83,6.83,0,0,1,1.781,2.641c.095.228,2.117,5.617,4.557,12.6Z" transform="translate(-1478.873 156.301)" fill="none" clip-rule="evenodd"/>
    </clipPath>
    <clipPath id="clip-path-113">
      <path id="Path_981" data-name="Path 981" d="M1489.791-152.7c-2.156,12.439-6.4,43.685-5.479,56.259h-31.185s.335-8.4.964-18.927c.817-13.994,2.143-31.7,3.8-38.39.027-.094.041-.188.067-.268a3.056,3.056,0,0,1,2.974-2.279h25.814a3.074,3.074,0,0,1,3.041,3.606" transform="translate(-1453.127 156.302)" fill="none" clip-rule="evenodd"/>
    </clipPath>
    <clipPath id="clip-path-115">
      <path id="Path_984" data-name="Path 984" d="M1479.105-181.8c-2.948,3.814-20.379,6.163-20.379-2.407a3.374,3.374,0,0,1,1.207-2.688s.147,1.295.782,1.666a24.185,24.185,0,0,1,5.968-2.363s-.573,1.3,1.638,1.011c6.382-.85,15.674-1.547,10.784,4.781" transform="translate(-1458.726 187.593)" fill="none" clip-rule="evenodd"/>
    </clipPath>
    <clipPath id="clip-path-117">
      <path id="Path_987" data-name="Path 987" d="M1465.6-147.7c0,.04-.187,1.206-.456,3.083s-.643,4.5-1.017,7.4l-.549,4.115-9.618,17.506c.816-13.994,2.142-31.7,3.8-38.39a3.811,3.811,0,0,1,1.246-.643,4.167,4.167,0,0,1,2.558,0,5.962,5.962,0,0,1,3.791,3.995,6.394,6.394,0,0,1,.241,2.936" transform="translate(-1453.962 154.83)" fill="none" clip-rule="evenodd"/>
    </clipPath>
    <clipPath id="clip-path-119">
      <path id="Path_990" data-name="Path 990" d="M1466.7-184.761c-3.19.844-5.935,6.427-6.222,9.717-.532,6.1,4.058,15.631,13.529,15.631,11.3,0,12.388-12.063,11.84-15.1s-2.406-9.8-7.262-10.4c-2.91-.363-8.476-.749-11.885.154" transform="translate(-1460.441 185.316)" fill="none" clip-rule="evenodd"/>
    </clipPath>
    <clipPath id="clip-path-121">
      <path id="Path_993" data-name="Path 993" d="M1466.561-154.9c-.014-.027-.014-.027-.027-.013a3.987,3.987,0,0,0-1.1-.4,4.707,4.707,0,0,0-2.518.107,4.75,4.75,0,0,0-2.088,1.314c-.015.013-.042.027-.042.054a4.086,4.086,0,0,0-.321.912c-.133.59-1.688,7.654-3.321,15.536-1.716,8.123-3.551,17.1-4.087,20.75-1.111,7.6-12.993,13.713-17.481,15.429-.071.025-.13.067-.194.1a3.735,3.735,0,0,0-.422.21,3.541,3.541,0,0,0-.35.257c-.066.052-.138.091-.2.149l-.063.058c-.008.008-.017.016-.024.024-.954.881-4.682,4.642-4.223,9.221.191,1.913.228,2.413,2.032,2.946a9.423,9.423,0,0,0,2.826.275c2.049-.007,3.217-.591,3.012-2.63-.052-.517-1.015-5.387-.168-6.311,10.575-4.478,20.8-6.439,22.6-18.639.483-3.285,2.13-11.407,3.725-19.088,1.8-8.552,3.535-16.541,3.577-16.7a3.724,3.724,0,0,0-1.14-3.552" transform="translate(-1430.059 155.434)" fill="none" clip-rule="evenodd"/>
    </clipPath>
    <clipPath id="clip-path-123">
      <path id="Path_996" data-name="Path 996" d="M1464.042-151.344c-.041.161-1.782,8.15-3.577,16.7l-6.978-2.748c1.634-7.882,3.187-14.946,3.321-15.536a3.981,3.981,0,0,1,.321-.911c0-.027.026-.04.041-.054a4.753,4.753,0,0,1,2.09-1.314,4.706,4.706,0,0,1,2.518-.107,4,4,0,0,1,1.1.4c.014-.013.014-.013.025.013a3.717,3.717,0,0,1,1.14,3.552" transform="translate(-1453.487 155.434)" fill="none" clip-rule="evenodd"/>
    </clipPath>
    <clipPath id="clip-path-125">
      <path id="Path_999" data-name="Path 999" d="M1453.124-138.426l9.525,1.906.237-1.184.717-3.576c.5-2.516.986-4.783,1.333-6.421s.576-2.653.58-2.68a4.812,4.812,0,0,0-.11-2.527,4.858,4.858,0,0,0-3.568-3.28,4.8,4.8,0,0,0-2.525.111,4.853,4.853,0,0,0-3.277,3.571c-.038.165-.93,4.153-1.959,9.319l-.717,3.576Z" transform="translate(-1453.124 156.306)" fill="none" clip-rule="evenodd"/>
    </clipPath>
    <clipPath id="clip-path-127">
      <path id="Path_1002" data-name="Path 1002" d="M1471.782-100.815h10.438v-.67h-10.438Z" transform="translate(-1471.782 101.485)" fill="none" clip-rule="evenodd"/>
    </clipPath>
    <clipPath id="clip-path-129">
      <path id="Path_1005" data-name="Path 1005" d="M1451.9-52.02c-11.182-8.233-24.455-21.049-30.217-29.179-1.962-2.767-2.454-5.145-1.459-7.067,1.494-2.894,6.256-4.489,13.41-4.489,2.427,0,6.568.02,10.853.04,4.593.021,9.35.044,12.339.044,5.694,0,5.694-2.682,5.694-3.692v-8.457h.67v8.457c0,2.894-2.141,4.362-6.363,4.362-2.99,0-7.747-.023-12.343-.044-4.283-.02-8.422-.04-10.849-.04-6.79,0-11.463,1.5-12.817,4.126-.868,1.681-.392,3.826,1.413,6.372,5.728,8.08,18.934,20.829,30.068,29.027Z" transform="translate(-1419.727 104.818)" fill="none" clip-rule="evenodd"/>
    </clipPath>
    <clipPath id="clip-path-131">
      <path id="Path_1008" data-name="Path 1008" d="M1448.229-59.085a1.825,1.825,0,0,0-.643.74c-.942,2.1-4.614,6.823-6.916,8.393-2.467,1.686-1.958,3.068,1.778,1.236s6.311-3.508,8-4.281,2.444-.838,6.541-2.846c3.144-1.54-.874-4.547-2.912-5.86a1.89,1.89,0,0,0-2.081.059Z" transform="translate(-1439.153 61.988)" fill="none" clip-rule="evenodd"/>
    </clipPath>
    <clipPath id="clip-path-133">
      <path id="Path_1011" data-name="Path 1011" d="M1450.077-30.884a1.777,1.777,0,0,0-.322.925c-.1,2.3-1.282,7.482-4.016,9.232-2.517,1.611-1.719,2.839,2.109,1.21,3.415-1.452,5.271-5.2,6.548-6.543s1.958-1.689,5.013-5.078c2.345-2.6-2.5-3.9-4.882-4.355a1.89,1.89,0,0,0-1.91.83Z" transform="translate(-1444.289 35.525)" fill="none" clip-rule="evenodd"/>
    </clipPath>
    <clipPath id="clip-path-135">
      <path id="Path_1014" data-name="Path 1014" d="M1452.158,9.176h33.125v-96.42h-33.125Z" transform="translate(-1452.158 87.244)" fill="none" clip-rule="evenodd"/>
    </clipPath>
    <clipPath id="clip-path-137">
      <path id="Path_1017" data-name="Path 1017" d="M1491.855-.761h33.127V-23.6h-33.127Z" transform="translate(-1491.855 23.605)" fill="none" clip-rule="evenodd"/>
    </clipPath>
    <clipPath id="clip-path-139">
      <path id="Path_1020" data-name="Path 1020" d="M1412.461,1.532h33.126V-38.29h-33.126Z" transform="translate(-1412.461 38.29)" fill="none" clip-rule="evenodd"/>
    </clipPath>
    <clipPath id="clip-path-141">
      <path id="Path_1023" data-name="Path 1023" d="M1372.939,4.851h33.127v-64.4h-33.127Z" transform="translate(-1372.939 59.547)" fill="none" clip-rule="evenodd"/>
    </clipPath>
    <clipPath id="clip-path-143">
      <path id="Path_1026" data-name="Path 1026" d="M1313.581.357h246.058a2.1,2.1,0,0,0,2.1-2.1,2.1,2.1,0,0,0-2.1-2.1H1313.581a2.1,2.1,0,0,0-2.1,2.1,2.1,2.1,0,0,0,2.1,2.1" transform="translate(-1311.481 3.846)" fill="none" clip-rule="evenodd"/>
    </clipPath>
    <clipPath id="clip-path-145">
      <path id="Path_1029" data-name="Path 1029" d="M1378.562-120.489h18.052v-5.586h-18.052Z" transform="translate(-1378.562 126.074)" fill="none" clip-rule="evenodd"/>
    </clipPath>
    <clipPath id="clip-path-147">
      <path id="Path_1032" data-name="Path 1032" d="M1375.28-84.521h1.944v-48.7h-1.944Z" transform="translate(-1375.28 133.223)" fill="none" clip-rule="evenodd"/>
    </clipPath>
    <clipPath id="clip-path-149">
      <path id="Path_1035" data-name="Path 1035" d="M1378.563-113.532h11.025v-5.586h-11.025Z" transform="translate(-1378.563 119.118)" fill="none" clip-rule="evenodd"/>
    </clipPath>
    <clipPath id="clip-path-151">
      <path id="Path_1038" data-name="Path 1038" d="M1390.352-113.532h15.138v-5.586h-15.138Z" transform="translate(-1390.352 119.118)" fill="none" clip-rule="evenodd"/>
    </clipPath>
    <clipPath id="clip-path-153">
      <path id="Path_1041" data-name="Path 1041" d="M1378.562-106.576h7.168v-5.586h-7.168Z" transform="translate(-1378.562 112.161)" fill="none" clip-rule="evenodd"/>
    </clipPath>
    <clipPath id="clip-path-155">
      <path id="Path_1044" data-name="Path 1044" d="M1378.562-92.662h7.7v-5.586h-7.7Z" transform="translate(-1378.562 98.248)" fill="none" clip-rule="evenodd"/>
    </clipPath>
    <clipPath id="clip-path-157">
      <path id="Path_1047" data-name="Path 1047" d="M1389.377-92.662h18.443v-5.586h-18.443Z" transform="translate(-1389.377 98.248)" fill="none" clip-rule="evenodd"/>
    </clipPath>
    <clipPath id="clip-path-159">
      <path id="Path_1050" data-name="Path 1050" d="M1265.653-191.738H1298.8v-5.586h-33.147Z" transform="translate(-1265.653 197.324)" fill="none" clip-rule="evenodd"/>
    </clipPath>
    <clipPath id="clip-path-161">
      <path id="Path_1053" data-name="Path 1053" d="M1262.371-148.622h1.945v-48.7h-1.945Z" transform="translate(-1262.371 197.324)" fill="none" clip-rule="evenodd"/>
    </clipPath>
    <clipPath id="clip-path-163">
      <path id="Path_1056" data-name="Path 1056" d="M1265.653-184.782H1303.6v-5.586h-37.947Z" transform="translate(-1265.653 190.367)" fill="none" clip-rule="evenodd"/>
    </clipPath>
    <clipPath id="clip-path-165">
      <path id="Path_1059" data-name="Path 1059" d="M1265.653-177.825h25v-5.586h-25Z" transform="translate(-1265.653 183.411)" fill="none" clip-rule="evenodd"/>
    </clipPath>
    <clipPath id="clip-path-167">
      <path id="Path_1062" data-name="Path 1062" d="M1265.654-163.912h4.764V-169.5h-4.764Z" transform="translate(-1265.654 169.498)" fill="none" clip-rule="evenodd"/>
    </clipPath>
    <clipPath id="clip-path-169">
      <path id="Path_1065" data-name="Path 1065" d="M1272.344-163.912h11.409V-169.5h-11.409Z" transform="translate(-1272.344 169.498)" fill="none" clip-rule="evenodd"/>
    </clipPath>
    <clipPath id="clip-path-171">
      <path id="Path_1068" data-name="Path 1068" d="M1490.26-198.7l-2.88,2.882-5.251-5.256,2.879-2.882Z" transform="translate(-1482.129 203.951)" fill="none" clip-rule="evenodd"/>
    </clipPath>
    <clipPath id="clip-path-173">
      <path id="Path_1071" data-name="Path 1071" d="M1505.475-180.59a3.593,3.593,0,0,1-5.19-.111l-15.1-16.457,3.733-3.735,16.446,15.111a3.6,3.6,0,0,1,.111,5.192" transform="translate(-1485.185 200.892)" fill="none" clip-rule="evenodd"/>
    </clipPath>
    <clipPath id="clip-path-175">
      <path id="Path_1074" data-name="Path 1074" d="M1492.87-211.35a18.142,18.142,0,0,1-18.137,18.15,18.066,18.066,0,0,1-11.385-4.023,17.76,17.76,0,0,1-2.966-3.012,18.27,18.27,0,0,1-1.444-2.167,18,18,0,0,1-2.3-7.524c-.033-.468-.056-.945-.056-1.424a18.16,18.16,0,0,1,18.149-18.16c.477,0,.966.023,1.432.056a17.909,17.909,0,0,1,7.508,2.3,18.209,18.209,0,0,1,2.167,1.445,17.7,17.7,0,0,1,3.01,2.966,18.1,18.1,0,0,1,4.02,11.392" transform="translate(-1456.583 229.51)" fill="none" clip-rule="evenodd"/>
    </clipPath>
    <clipPath id="clip-path-177">
      <path id="Path_1077" data-name="Path 1077" d="M1483.665-227.161l-24.736,24.751a18.031,18.031,0,0,1-2.3-7.524l19.527-19.528a17.912,17.912,0,0,1,7.507,2.3" transform="translate(-1456.631 229.462)" fill="none" clip-rule="evenodd"/>
    </clipPath>
    <clipPath id="clip-path-179">
      <path id="Path_1080" data-name="Path 1080" d="M1488.336-223.255l-25.5,25.518a17.706,17.706,0,0,1-2.966-3.012l25.457-25.474a17.666,17.666,0,0,1,3.01,2.968" transform="translate(-1459.869 226.223)" fill="none" clip-rule="evenodd"/>
    </clipPath>
    <clipPath id="clip-path-181">
      <path id="Path_1083" data-name="Path 1083" d="M1475-227.226a16.021,16.021,0,0,0-11.408,4.728,16.044,16.044,0,0,0-4.725,11.414,16.047,16.047,0,0,0,4.725,11.415A16.021,16.021,0,0,0,1475-194.942a16.02,16.02,0,0,0,11.406-4.728,16.047,16.047,0,0,0,4.725-11.415,16.044,16.044,0,0,0-4.725-11.414A16.02,16.02,0,0,0,1475-227.226m0,36.306a20.006,20.006,0,0,1-14.25-5.906,20.032,20.032,0,0,1-5.9-14.258,20.031,20.031,0,0,1,5.9-14.257,20.006,20.006,0,0,1,14.25-5.906,20,20,0,0,1,14.248,5.906,20.031,20.031,0,0,1,5.9,14.257,20.032,20.032,0,0,1-5.9,14.258A20.005,20.005,0,0,1,1475-190.92" transform="translate(-1454.849 231.247)" fill="none" clip-rule="evenodd"/>
    </clipPath>
  </defs>
  <g id="Group_4434" data-name="Group 4434" transform="translate(-595.166 -4754.235)">
    <g id="Group_4426" data-name="Group 4426" transform="translate(595.166 4754.235)">
      <g id="Group_2842" data-name="Group 2842" transform="translate(25.894 122.604)" clip-path="url(#clip-path)">
        <g id="Group_2841" data-name="Group 2841" transform="translate(-74.476 -308.927)" clip-path="url(#clip-path-2)">
          <path id="Path_811" data-name="Path 811" d="M1270.418-137.793h146.195V4.463H1270.418Z" transform="translate(-1201.723 440.94)" fill="rgba(52,83,167,0.1)"/>
        </g>
      </g>
      <g id="Group_2844" data-name="Group 2844" transform="translate(38.399 0)" clip-path="url(#clip-path-3)">
        <g id="Group_2843" data-name="Group 2843" transform="translate(-86.981 -186.323)" clip-path="url(#clip-path-2)">
          <path id="Path_814" data-name="Path 814" d="M1281.234-243.84h112.221v34.667H1281.234Z" transform="translate(-1200.034 424.382)" fill="#fba185"/>
        </g>
      </g>
      <g id="Group_2846" data-name="Group 2846" transform="translate(0 103.338)" clip-path="url(#clip-path-5)">
        <g id="Group_2845" data-name="Group 2845" transform="translate(-48.581 -289.661)" clip-path="url(#clip-path-2)">
          <path id="Path_817" data-name="Path 817" d="M1248.021-154.457h46.836v64.8h-46.836Z" transform="translate(-1205.22 438.338)" fill="#ffc550"/>
        </g>
      </g>
      <g id="Group_2848" data-name="Group 2848" transform="translate(8.824 109.154)" clip-path="url(#clip-path-7)">
        <g id="Group_2847" data-name="Group 2847" transform="translate(-57.405 -295.476)" clip-path="url(#clip-path-2)">
          <path id="Path_820" data-name="Path 820" d="M1255.653-149.427h79.9v86.533h-79.9Z" transform="translate(-1204.028 439.123)" fill="#f15f46"/>
        </g>
      </g>
      <g id="Group_2850" data-name="Group 2850" transform="translate(29.225 105.065)" clip-path="url(#clip-path-9)">
        <g id="Group_2849" data-name="Group 2849" transform="translate(-77.807 -291.388)" clip-path="url(#clip-path-2)">
          <path id="Path_823" data-name="Path 823" d="M1273.3-152.964h37.468v33.3H1273.3Z" transform="translate(-1201.273 438.571)" fill="#f7872c"/>
        </g>
      </g>
      <g id="Group_2852" data-name="Group 2852" transform="translate(0.963 155.615)" clip-path="url(#clip-path-11)">
        <g id="Group_2851" data-name="Group 2851" transform="translate(-49.544 -341.938)" clip-path="url(#clip-path-2)">
          <path id="Path_826" data-name="Path 826" d="M1248.853-109.24h33.786v31.212h-33.786Z" transform="translate(-1205.09 445.398)" fill="#d1d9fd"/>
        </g>
      </g>
      <g id="Group_2854" data-name="Group 2854" transform="translate(63.984 12.087)" clip-path="url(#clip-path-13)">
        <g id="Group_2853" data-name="Group 2853" transform="translate(-112.565 -198.41)" clip-path="url(#clip-path-2)">
          <path id="Path_829" data-name="Path 829" d="M1303.364-233.385h229.055v107.436H1303.364Z" transform="translate(-1196.579 426.014)" fill="#0074e3"/>
        </g>
      </g>
      <g id="Group_2856" data-name="Group 2856" transform="translate(71.701 17.909)" clip-path="url(#clip-path-15)">
        <g id="Group_2855" data-name="Group 2855" transform="translate(-120.282 -204.232)" clip-path="url(#clip-path-2)">
          <path id="Path_832" data-name="Path 832" d="M1310.038-228.349h213.62V-133.2h-213.62Z" transform="translate(-1195.537 426.801)" fill="#fff"/>
        </g>
      </g>
      <g id="Group_2858" data-name="Group 2858" transform="translate(187.241 33.978)" clip-path="url(#clip-path-17)">
        <g id="Group_2857" data-name="Group 2857" transform="translate(-235.822 -220.301)" clip-path="url(#clip-path-2)">
          <path id="Path_835" data-name="Path 835" d="M1409.975-214.451h15.1v65.433h-15.1Z" transform="translate(-1179.933 428.971)" fill="#f15f46"/>
        </g>
      </g>
      <g id="Group_2860" data-name="Group 2860" transform="translate(91.835 71.541)" clip-path="url(#clip-path-19)">
        <g id="Group_2859" data-name="Group 2859" transform="translate(-140.416 -257.863)" clip-path="url(#clip-path-2)">
          <path id="Path_838" data-name="Path 838" d="M1327.453-181.961h17.471v34.99h-17.471Z" transform="translate(-1192.818 434.043)" fill="#e1ebf4"/>
        </g>
      </g>
      <g id="Group_2862" data-name="Group 2862" transform="translate(124.393 72.066)" clip-path="url(#clip-path-21)">
        <g id="Group_2861" data-name="Group 2861" transform="translate(-172.974 -258.388)" clip-path="url(#clip-path-2)">
          <path id="Path_841" data-name="Path 841" d="M1355.614-181.507h15.051v29.736h-15.051Z" transform="translate(-1188.421 434.114)" fill="#e1ebf4"/>
        </g>
      </g>
      <g id="Group_2864" data-name="Group 2864" transform="translate(155.316 49.859)" clip-path="url(#clip-path-23)">
        <g id="Group_2863" data-name="Group 2863" transform="translate(-203.897 -236.181)" clip-path="url(#clip-path-2)">
          <path id="Path_844" data-name="Path 844" d="M1382.361-200.715h14.466v49.552h-14.466Z" transform="translate(-1184.245 431.115)" fill="#e1ebf4"/>
        </g>
      </g>
      <g id="Group_2866" data-name="Group 2866" transform="translate(217.578 46.939)" clip-path="url(#clip-path-25)">
        <g id="Group_2865" data-name="Group 2865" transform="translate(-266.159 -233.262)" clip-path="url(#clip-path-2)">
          <path id="Path_847" data-name="Path 847" d="M1436.215-203.24h18v54.862h-18Z" transform="translate(-1175.836 430.721)" fill="#e1ebf4"/>
        </g>
      </g>
      <g id="Group_2868" data-name="Group 2868" transform="translate(247.717 65.942)" clip-path="url(#clip-path-27)">
        <g id="Group_2867" data-name="Group 2867" transform="translate(-296.299 -252.265)" clip-path="url(#clip-path-2)">
          <path id="Path_850" data-name="Path 850" d="M1462.284-186.8h18.57v40.587h-18.57Z" transform="translate(-1171.766 433.287)" fill="#e1ebf4"/>
        </g>
      </g>
      <g id="Group_2870" data-name="Group 2870" transform="translate(86.958 40.653)" clip-path="url(#clip-path-29)">
        <g id="Group_2869" data-name="Group 2869" transform="translate(-135.539 -226.976)" clip-path="url(#clip-path-2)">
          <path id="Path_853" data-name="Path 853" d="M1323.235-208.677h176.387V-155.6H1323.235Z" transform="translate(-1193.476 429.872)" fill="#e7eafd"/>
        </g>
      </g>
      <g id="Group_2872" data-name="Group 2872" transform="translate(187.707 73.756)" clip-path="url(#clip-path-31)">
        <g id="Group_2871" data-name="Group 2871" transform="translate(-236.289 -260.079)" clip-path="url(#clip-path-2)">
          <path id="Path_856" data-name="Path 856" d="M1410.378-180.044h13.04v12.962h-13.04Z" transform="translate(-1179.87 434.343)" fill="#dd797c"/>
        </g>
      </g>
      <g id="Group_2874" data-name="Group 2874" transform="translate(124.87 76.054)" clip-path="url(#clip-path-33)">
        <g id="Group_2873" data-name="Group 2873" transform="translate(-173.451 -262.377)" clip-path="url(#clip-path-2)">
          <path id="Path_859" data-name="Path 859" d="M1356.027-178.057h13.128v13.15h-13.128Z" transform="translate(-1188.356 434.653)" fill="#d2dcf7"/>
        </g>
      </g>
      <g id="Group_2876" data-name="Group 2876" transform="translate(250.135 80.836)" clip-path="url(#clip-path-35)">
        <g id="Group_2875" data-name="Group 2875" transform="translate(-298.716 -267.159)" clip-path="url(#clip-path-2)">
          <path id="Path_862" data-name="Path 862" d="M1464.375-173.921h13.209v13.248h-13.209Z" transform="translate(-1171.439 435.299)" fill="#d2dcf7"/>
        </g>
      </g>
      <g id="Group_2878" data-name="Group 2878" transform="translate(84.375 31.706)" clip-path="url(#clip-path-37)">
        <g id="Group_2877" data-name="Group 2877" transform="translate(-132.956 -218.028)" clip-path="url(#clip-path-2)">
          <path id="Path_865" data-name="Path 865" d="M1321-216.416h15.589v15.449H1321Z" transform="translate(-1193.825 428.664)" fill="#ffc550"/>
        </g>
      </g>
      <g id="Group_2880" data-name="Group 2880" transform="translate(91.808 30.342)" clip-path="url(#clip-path-39)">
        <g id="Group_2879" data-name="Group 2879" transform="translate(-140.389 -216.665)" clip-path="url(#clip-path-2)">
          <path id="Path_868" data-name="Path 868" d="M1327.43-217.6h15.587v15.448H1327.43Z" transform="translate(-1192.821 428.48)" fill="#ffc550"/>
        </g>
      </g>
      <g id="Group_2882" data-name="Group 2882" transform="translate(99.258 29.101)" clip-path="url(#clip-path-41)">
        <g id="Group_2881" data-name="Group 2881" transform="translate(-147.839 -215.424)" clip-path="url(#clip-path-2)">
          <path id="Path_871" data-name="Path 871" d="M1333.873-218.669h15.585v15.448h-15.585Z" transform="translate(-1191.815 428.312)" fill="#ffc550"/>
        </g>
      </g>
      <g id="Group_2884" data-name="Group 2884" transform="translate(87.031 255.605)" clip-path="url(#clip-path-43)">
        <g id="Group_2883" data-name="Group 2883" transform="translate(-135.612 -441.928)" clip-path="url(#clip-path-2)">
          <path id="Path_874" data-name="Path 874" d="M1323.3-22.754h17.5V.816h-17.5Z" transform="translate(-1193.466 458.901)" fill="#d5ddea"/>
        </g>
      </g>
      <g id="Group_2886" data-name="Group 2886" transform="translate(84.33 264.262)" clip-path="url(#clip-path-45)">
        <g id="Group_2885" data-name="Group 2885" transform="translate(-132.911 -450.585)" clip-path="url(#clip-path-2)">
          <path id="Path_877" data-name="Path 877" d="M1320.962-15.266h27.788V3.719h-27.788Z" transform="translate(-1193.831 460.07)" fill="#d74735"/>
        </g>
      </g>
      <g id="Group_2888" data-name="Group 2888" transform="translate(100.469 255.885)" clip-path="url(#clip-path-47)">
        <g id="Group_2887" data-name="Group 2887" transform="translate(-149.05 -442.208)" clip-path="url(#clip-path-2)">
          <path id="Path_880" data-name="Path 880" d="M1334.921-22.512h19.112V.779h-19.112Z" transform="translate(-1191.652 458.939)" fill="#d5ddea"/>
        </g>
      </g>
      <g id="Group_2890" data-name="Group 2890" transform="translate(96.916 264.256)" clip-path="url(#clip-path-49)">
        <g id="Group_2889" data-name="Group 2889" transform="translate(-145.497 -450.579)" clip-path="url(#clip-path-2)">
          <path id="Path_883" data-name="Path 883" d="M1331.848-15.271h32.818V3.719h-32.818Z" transform="translate(-1192.131 460.07)" fill="#f15f46"/>
        </g>
      </g>
      <g id="Group_2892" data-name="Group 2892" transform="translate(106.038 68.07)" clip-path="url(#clip-path-51)">
        <g id="Group_2891" data-name="Group 2891" transform="translate(-154.62 -254.392)" clip-path="url(#clip-path-2)">
          <path id="Path_886" data-name="Path 886" d="M1339.738-184.963h62.089v48.917h-62.089Z" transform="translate(-1190.9 433.575)" fill="#ffae84"/>
        </g>
      </g>
      <g id="Group_2894" data-name="Group 2894" transform="translate(90.155 65.655)" clip-path="url(#clip-path-53)">
        <g id="Group_2893" data-name="Group 2893" transform="translate(-138.736 -251.978)" clip-path="url(#clip-path-2)">
          <path id="Path_889" data-name="Path 889" d="M1326-151.211h31.216v-35.84H1326Z" transform="translate(-1193.045 433.249)" fill="#ffdfc4"/>
        </g>
      </g>
      <g id="Group_2896" data-name="Group 2896" transform="translate(93.564 87.622)" clip-path="url(#clip-path-55)">
        <g id="Group_2895" data-name="Group 2895" transform="translate(-142.146 -273.944)" clip-path="url(#clip-path-2)">
          <path id="Path_892" data-name="Path 892" d="M1328.949-146.65h20.869v-21.4h-20.869Z" transform="translate(-1192.584 436.215)" fill="#ffdfc4"/>
        </g>
      </g>
      <g id="Group_2898" data-name="Group 2898" transform="translate(105.185 78.373)" clip-path="url(#clip-path-57)">
        <g id="Group_2897" data-name="Group 2897" transform="translate(-153.766 -264.695)" clip-path="url(#clip-path-2)">
          <path id="Path_895" data-name="Path 895" d="M1339-162.178h13.874v-13.874H1339Z" transform="translate(-1191.015 434.966)" fill="#ffc19f"/>
        </g>
      </g>
      <g id="Group_2900" data-name="Group 2900" transform="translate(86.061 155.282)" clip-path="url(#clip-path-59)">
        <g id="Group_2899" data-name="Group 2899" transform="translate(-134.642 -341.605)" clip-path="url(#clip-path-2)">
          <path id="Path_898" data-name="Path 898" d="M1322.458-109.528h43.982v34.523h-43.982Z" transform="translate(-1193.598 445.353)" fill="#242143"/>
        </g>
      </g>
      <g id="Group_2902" data-name="Group 2902" transform="translate(85.974 167.048)" clip-path="url(#clip-path-61)">
        <g id="Group_2901" data-name="Group 2901" transform="translate(-134.556 -353.371)" clip-path="url(#clip-path-2)">
          <path id="Path_901" data-name="Path 901" d="M1322.384-99.352h27.72V7.972h-27.72Z" transform="translate(-1193.609 446.942)" fill="#242143"/>
        </g>
      </g>
      <g id="Group_2904" data-name="Group 2904" transform="translate(99.814 168.378)" clip-path="url(#clip-path-63)">
        <g id="Group_2903" data-name="Group 2903" transform="translate(-148.396 -354.701)" clip-path="url(#clip-path-2)">
          <path id="Path_904" data-name="Path 904" d="M1334.355-98.2h31.612V8.358h-31.612Z" transform="translate(-1191.74 447.121)" fill="#242143"/>
        </g>
      </g>
      <g id="Group_2906" data-name="Group 2906" transform="translate(54.869 98.414)" clip-path="url(#clip-path-65)">
        <g id="Group_2905" data-name="Group 2905" transform="translate(-103.45 -284.737)" clip-path="url(#clip-path-2)">
          <path id="Path_907" data-name="Path 907" d="M1295.479-158.716h45.915v45.26h-45.915Z" transform="translate(-1197.81 437.673)" fill="#ffae84"/>
        </g>
      </g>
      <g id="Group_2908" data-name="Group 2908" transform="translate(68.885 116.818)" clip-path="url(#clip-path-67)">
        <g id="Group_2907" data-name="Group 2907" transform="translate(-117.467 -303.141)" clip-path="url(#clip-path-2)">
          <path id="Path_910" data-name="Path 910" d="M1307.6-142.8h18.474v18.009H1307.6Z" transform="translate(-1195.917 440.158)" fill="#ec8b61"/>
        </g>
      </g>
      <g id="Group_2910" data-name="Group 2910" transform="translate(68.391 85.921)" clip-path="url(#clip-path-69)">
        <g id="Group_2909" data-name="Group 2909" transform="translate(-116.972 -272.244)" clip-path="url(#clip-path-2)">
          <path id="Path_913" data-name="Path 913" d="M1307.175-169.523h87.693V-88.6h-87.693Z" transform="translate(-1195.984 435.986)" fill="#00dd91"/>
        </g>
      </g>
      <g id="Group_2912" data-name="Group 2912" transform="translate(67.305 117.301)" clip-path="url(#clip-path-71)">
        <g id="Group_2911" data-name="Group 2911" transform="translate(-115.886 -303.624)" clip-path="url(#clip-path-2)">
          <path id="Path_916" data-name="Path 916" d="M1306.236-142.38h19.451v18.357h-19.451Z" transform="translate(-1196.13 440.223)" fill="#b6d0ff"/>
        </g>
      </g>
      <g id="Group_2914" data-name="Group 2914" transform="translate(138.973 84.072)" clip-path="url(#clip-path-73)">
        <g id="Group_2913" data-name="Group 2913" transform="translate(-187.554 -270.394)" clip-path="url(#clip-path-2)">
          <path id="Path_919" data-name="Path 919" d="M1368.225-171.122h16.652v16.186h-16.652Z" transform="translate(-1186.452 435.736)" fill="#ec8b61"/>
        </g>
      </g>
      <g id="Group_2916" data-name="Group 2916" transform="translate(138.063 84.514)" clip-path="url(#clip-path-75)">
        <g id="Group_2915" data-name="Group 2915" transform="translate(-186.644 -270.836)" clip-path="url(#clip-path-2)">
          <path id="Path_922" data-name="Path 922" d="M1367.438-170.74h18.745v17.62h-18.745Z" transform="translate(-1186.575 435.795)" fill="#b6d0ff"/>
        </g>
      </g>
      <g id="Group_2918" data-name="Group 2918" transform="translate(81.558 110.116)" clip-path="url(#clip-path-77)">
        <g id="Group_2917" data-name="Group 2917" transform="translate(-130.139 -296.439)" clip-path="url(#clip-path-2)">
          <path id="Path_925" data-name="Path 925" d="M1318.564-148.595h14.911v33.463h-14.911Z" transform="translate(-1194.206 439.253)" fill="#3971d7"/>
        </g>
      </g>
      <g id="Group_2920" data-name="Group 2920" transform="translate(80.906 54.094)" clip-path="url(#clip-path-79)">
        <g id="Group_2919" data-name="Group 2919" transform="translate(-129.487 -240.416)" clip-path="url(#clip-path-2)">
          <path id="Path_928" data-name="Path 928" d="M1318-149.65h40.465v-47.4H1318Z" transform="translate(-1194.294 431.687)" fill="#232043"/>
        </g>
      </g>
      <g id="Group_2922" data-name="Group 2922" transform="translate(104.672 154.439)" clip-path="url(#clip-path-81)">
        <g id="Group_2921" data-name="Group 2921" transform="translate(-153.254 -340.762)" clip-path="url(#clip-path-2)">
          <path id="Path_931" data-name="Path 931" d="M1338.557-110.257h25.058V9.159h-25.058Z" transform="translate(-1191.084 445.239)" fill="#687b99"/>
        </g>
      </g>
      <g id="Group_2924" data-name="Group 2924" transform="translate(85.832 158.074)" clip-path="url(#clip-path-83)">
        <g id="Group_2923" data-name="Group 2923" transform="translate(-134.413 -344.397)" clip-path="url(#clip-path-2)">
          <path id="Path_934" data-name="Path 934" d="M1322.261-107.114h22v12.232h-22Z" transform="translate(-1193.628 445.73)" fill="#687b99"/>
        </g>
      </g>
      <g id="Group_2926" data-name="Group 2926" transform="translate(192.524 135.767)" clip-path="url(#clip-path-85)">
        <g id="Group_2925" data-name="Group 2925" transform="translate(-241.106 -322.09)" clip-path="url(#clip-path-2)">
          <path id="Path_937" data-name="Path 937" d="M1414.545-126.408h59.488v38h-59.488Z" transform="translate(-1179.22 442.717)" fill="#cc5505"/>
        </g>
      </g>
      <g id="Group_2928" data-name="Group 2928" transform="translate(193.337 135.767)" clip-path="url(#clip-path-87)">
        <g id="Group_2927" data-name="Group 2927" transform="translate(-241.918 -322.09)" clip-path="url(#clip-path-2)">
          <path id="Path_940" data-name="Path 940" d="M1415.248-126.408h59.489v38h-59.489Z" transform="translate(-1179.11 442.717)" fill="#f78734"/>
        </g>
      </g>
      <g id="Group_2930" data-name="Group 2930" transform="translate(198.157 139.287)" clip-path="url(#clip-path-89)">
        <g id="Group_2929" data-name="Group 2929" transform="translate(-246.738 -325.61)" clip-path="url(#clip-path-2)">
          <path id="Path_943" data-name="Path 943" d="M1419.417-123.363h49.849v30.956h-49.849Z" transform="translate(-1178.459 443.193)" fill="#f7f7f7"/>
        </g>
      </g>
      <g id="Group_2932" data-name="Group 2932" transform="translate(200.007 162.202)" clip-path="url(#clip-path-91)">
        <g id="Group_2931" data-name="Group 2931" transform="translate(-248.588 -348.524)" clip-path="url(#clip-path-2)">
          <path id="Path_946" data-name="Path 946" d="M1421.017-103.543H1474v12.706h-52.986Z" transform="translate(-1178.209 446.287)" fill="#cc5505"/>
        </g>
      </g>
      <g id="Group_2934" data-name="Group 2934" transform="translate(210.207 162.202)" clip-path="url(#clip-path-93)">
        <g id="Group_2933" data-name="Group 2933" transform="translate(-258.789 -348.524)" clip-path="url(#clip-path-2)">
          <path id="Path_949" data-name="Path 949" d="M1429.839-103.543h52.986v12.706h-52.986Z" transform="translate(-1176.832 446.287)" fill="#fbd492"/>
        </g>
      </g>
      <g id="Group_2936" data-name="Group 2936" transform="translate(227.195 162.202)" clip-path="url(#clip-path-95)">
        <g id="Group_2935" data-name="Group 2935" transform="translate(-275.776 -348.525)" clip-path="url(#clip-path-2)">
          <path id="Path_952" data-name="Path 952" d="M1444.533-103.543h19.007v12.135h-19.007Z" transform="translate(-1174.537 446.287)" fill="#fff3e0"/>
        </g>
      </g>
      <g id="Group_2938" data-name="Group 2938" transform="translate(213.558 161.643)" clip-path="url(#clip-path-97)">
        <g id="Group_2937" data-name="Group 2937" transform="translate(-262.14 -347.966)" clip-path="url(#clip-path-2)">
          <path id="Path_955" data-name="Path 955" d="M1432.738-104.026h60.036V-12.87h-60.036Z" transform="translate(-1176.379 446.212)" fill="#f4af38"/>
        </g>
      </g>
      <g id="Group_2940" data-name="Group 2940" transform="translate(234.439 61.451)" clip-path="url(#clip-path-99)">
        <g id="Group_2939" data-name="Group 2939" transform="translate(-283.021 -247.774)" clip-path="url(#clip-path-2)">
          <path id="Path_958" data-name="Path 958" d="M1450.8-190.688h43.33v57.76H1450.8Z" transform="translate(-1173.559 432.681)" fill="#ffae84"/>
        </g>
      </g>
      <g id="Group_2942" data-name="Group 2942" transform="translate(231.211 155.283)" clip-path="url(#clip-path-101)">
        <g id="Group_2941" data-name="Group 2941" transform="translate(-279.793 -341.605)" clip-path="url(#clip-path-2)">
          <path id="Path_961" data-name="Path 961" d="M1448.007-109.528h43.707v31.877h-43.707Z" transform="translate(-1173.995 445.353)" fill="#ffc550"/>
        </g>
      </g>
      <g id="Group_2944" data-name="Group 2944" transform="translate(188.506 163.28)" clip-path="url(#clip-path-103)">
        <g id="Group_2943" data-name="Group 2943" transform="translate(-237.087 -349.603)" clip-path="url(#clip-path-2)">
          <path id="Path_964" data-name="Path 964" d="M1411.069-102.61h67.1v58.577h-67.1Z" transform="translate(-1179.762 446.433)" fill="#ffc550"/>
        </g>
      </g>
      <g id="Group_2946" data-name="Group 2946" transform="translate(258.85 96.025)" clip-path="url(#clip-path-105)">
        <g id="Group_2945" data-name="Group 2945" transform="translate(-307.432 -282.348)" clip-path="url(#clip-path-2)">
          <path id="Path_967" data-name="Path 967" d="M1471.914-160.783h37.015V-92.4h-37.015Z" transform="translate(-1170.262 437.35)" fill="#ffae84"/>
        </g>
      </g>
      <g id="Group_2948" data-name="Group 2948" transform="translate(261.442 96.026)" clip-path="url(#clip-path-107)">
        <g id="Group_2947" data-name="Group 2947" transform="translate(-310.024 -282.348)" clip-path="url(#clip-path-2)">
          <path id="Path_970" data-name="Path 970" d="M1474.156-160.783h27.618v31.174h-27.618Z" transform="translate(-1169.912 437.35)" fill="#ec8b61"/>
        </g>
      </g>
      <g id="Group_2950" data-name="Group 2950" transform="translate(261.117 95.426)" clip-path="url(#clip-path-109)">
        <g id="Group_2949" data-name="Group 2949" transform="translate(-309.698 -281.748)" clip-path="url(#clip-path-2)">
          <path id="Path_973" data-name="Path 973" d="M1473.874-161.3H1502v31.051h-28.13Z" transform="translate(-1169.956 437.269)" fill="#f15f46"/>
        </g>
      </g>
      <g id="Group_2952" data-name="Group 2952" transform="translate(261.116 95.426)" clip-path="url(#clip-path-111)">
        <g id="Group_2951" data-name="Group 2951" transform="translate(-309.698 -281.748)" clip-path="url(#clip-path-2)">
          <path id="Path_976" data-name="Path 976" d="M1473.873-161.3h23.684v31.051h-23.684Z" transform="translate(-1169.956 437.269)" fill="#e1452f"/>
        </g>
      </g>
      <g id="Group_2954" data-name="Group 2954" transform="translate(231.35 95.425)" clip-path="url(#clip-path-113)">
        <g id="Group_2953" data-name="Group 2953" transform="translate(-279.931 -281.748)" clip-path="url(#clip-path-2)">
          <path id="Path_979" data-name="Path 979" d="M1448.127-161.3H1496.4v71.426h-48.274Z" transform="translate(-1173.976 437.269)" fill="#f15f46"/>
        </g>
      </g>
      <g id="Group_2956" data-name="Group 2956" transform="translate(237.823 59.249)" clip-path="url(#clip-path-115)">
        <g id="Group_2955" data-name="Group 2955" transform="translate(-286.405 -245.571)" clip-path="url(#clip-path-2)">
          <path id="Path_982" data-name="Path 982" d="M1453.726-192.593h33.309V-171.8h-33.309Z" transform="translate(-1173.102 432.383)" fill="#5252ff"/>
        </g>
      </g>
      <g id="Group_2958" data-name="Group 2958" transform="translate(232.315 97.127)" clip-path="url(#clip-path-117)">
        <g id="Group_2957" data-name="Group 2957" transform="translate(-280.897 -283.45)" clip-path="url(#clip-path-2)">
          <path id="Path_985" data-name="Path 985" d="M1448.962-159.83h23.277v50.8h-23.277Z" transform="translate(-1173.846 437.499)" fill="#e1452f"/>
        </g>
      </g>
      <g id="Group_2960" data-name="Group 2960" transform="translate(239.806 61.88)" clip-path="url(#clip-path-119)">
        <g id="Group_2959" data-name="Group 2959" transform="translate(-288.388 -248.203)" clip-path="url(#clip-path-2)">
          <path id="Path_988" data-name="Path 988" d="M1455.441-190.316h37.084v37.465h-37.084Z" transform="translate(-1172.834 432.739)" fill="#5252ff"/>
        </g>
      </g>
      <g id="Group_2962" data-name="Group 2962" transform="translate(204.681 96.428)" clip-path="url(#clip-path-121)">
        <g id="Group_2961" data-name="Group 2961" transform="translate(-253.262 -282.751)" clip-path="url(#clip-path-2)">
          <path id="Path_991" data-name="Path 991" d="M1425.059-160.434h49.29v79.022h-49.29Z" transform="translate(-1177.578 437.405)" fill="#ffae84"/>
        </g>
      </g>
      <g id="Group_2964" data-name="Group 2964" transform="translate(231.766 96.428)" clip-path="url(#clip-path-123)">
        <g id="Group_2963" data-name="Group 2963" transform="translate(-280.348 -282.751)" clip-path="url(#clip-path-2)">
          <path id="Path_994" data-name="Path 994" d="M1448.487-160.434h22.2v32.354h-22.2Z" transform="translate(-1173.92 437.405)" fill="#ec8b61"/>
        </g>
      </g>
      <g id="Group_2966" data-name="Group 2966" transform="translate(231.347 95.42)" clip-path="url(#clip-path-125)">
        <g id="Group_2965" data-name="Group 2965" transform="translate(-279.928 -281.743)" clip-path="url(#clip-path-2)">
          <path id="Path_997" data-name="Path 997" d="M1448.124-161.306H1472.2v31.347h-24.073Z" transform="translate(-1173.977 437.268)" fill="#f15f46"/>
        </g>
      </g>
      <g id="Group_2968" data-name="Group 2968" transform="translate(252.918 158.801)" clip-path="url(#clip-path-127)">
        <g id="Group_2967" data-name="Group 2967" transform="translate(-301.499 -345.123)" clip-path="url(#clip-path-2)">
          <path id="Path_1000" data-name="Path 1000" d="M1466.782-106.485h22v12.232h-22Z" transform="translate(-1171.064 445.828)" fill="#eea11b"/>
        </g>
      </g>
      <g id="Group_2970" data-name="Group 2970" transform="translate(192.735 154.947)" clip-path="url(#clip-path-129)">
        <g id="Group_2969" data-name="Group 2969" transform="translate(-241.316 -341.27)" clip-path="url(#clip-path-2)">
          <path id="Path_1003" data-name="Path 1003" d="M1414.727-109.818h55.026v64.36h-55.026Z" transform="translate(-1179.191 445.307)" fill="#eea11b"/>
        </g>
      </g>
      <g id="Group_2972" data-name="Group 2972" transform="translate(215.194 204.464)" clip-path="url(#clip-path-131)">
        <g id="Group_2971" data-name="Group 2971" transform="translate(-263.776 -390.787)" clip-path="url(#clip-path-2)">
          <path id="Path_1006" data-name="Path 1006" d="M1434.153-66.988h30.555v25.7h-30.555Z" transform="translate(-1176.158 451.995)" fill="#293548"/>
        </g>
      </g>
      <g id="Group_2974" data-name="Group 2974" transform="translate(221.133 235.06)" clip-path="url(#clip-path-133)">
        <g id="Group_2973" data-name="Group 2973" transform="translate(-269.714 -421.383)" clip-path="url(#clip-path-2)">
          <path id="Path_1009" data-name="Path 1009" d="M1439.289-40.525h27.306v28.337h-27.306Z" transform="translate(-1175.356 456.127)" fill="#293548"/>
        </g>
      </g>
      <g id="Group_2976" data-name="Group 2976" transform="translate(230.23 175.265)" clip-path="url(#clip-path-135)">
        <g id="Group_2975" data-name="Group 2975" transform="translate(-278.811 -361.588)" clip-path="url(#clip-path-2)">
          <path id="Path_1012" data-name="Path 1012" d="M1447.158-92.244h44.687V15.737h-44.687Z" transform="translate(-1174.128 448.051)" fill="#457af4"/>
        </g>
      </g>
      <g id="Group_2978" data-name="Group 2978" transform="translate(276.125 248.841)" clip-path="url(#clip-path-137)">
        <g id="Group_2977" data-name="Group 2977" transform="translate(-324.706 -435.164)" clip-path="url(#clip-path-2)">
          <path id="Path_1015" data-name="Path 1015" d="M1486.855-28.6h44.688V5.8h-44.688Z" transform="translate(-1167.929 457.988)" fill="#0074e3"/>
        </g>
      </g>
      <g id="Group_2980" data-name="Group 2980" transform="translate(184.335 231.863)" clip-path="url(#clip-path-139)">
        <g id="Group_2979" data-name="Group 2979" transform="translate(-232.916 -418.186)" clip-path="url(#clip-path-2)">
          <path id="Path_1018" data-name="Path 1018" d="M1407.461-43.29h44.688V8.093h-44.688Z" transform="translate(-1180.326 455.695)" fill="#0074e3"/>
        </g>
      </g>
      <g id="Group_2982" data-name="Group 2982" transform="translate(138.642 207.287)" clip-path="url(#clip-path-141)">
        <g id="Group_2981" data-name="Group 2981" transform="translate(-187.223 -393.61)" clip-path="url(#clip-path-2)">
          <path id="Path_1021" data-name="Path 1021" d="M1367.939-64.547h44.688V11.412h-44.688Z" transform="translate(-1186.496 452.376)" fill="#0074e3"/>
        </g>
      </g>
      <g id="Group_2984" data-name="Group 2984" transform="translate(67.588 271.685)" clip-path="url(#clip-path-143)">
        <g id="Group_2983" data-name="Group 2983" transform="translate(-116.17 -458.008)" clip-path="url(#clip-path-2)">
          <path id="Path_1024" data-name="Path 1024" d="M1306.481-8.846H1568.3V6.918H1306.481Z" transform="translate(-1196.092 461.073)" fill="#e1e1e1"/>
        </g>
      </g>
      <g id="Group_2986" data-name="Group 2986" transform="translate(145.143 130.372)" clip-path="url(#clip-path-145)">
        <g id="Group_2985" data-name="Group 2985" transform="translate(-193.724 -316.695)" clip-path="url(#clip-path-2)">
          <path id="Path_1027" data-name="Path 1027" d="M1373.562-131.074h29.613v17.147h-29.613Z" transform="translate(-1185.618 441.989)" fill="#0074e3"/>
        </g>
      </g>
      <g id="Group_2988" data-name="Group 2988" transform="translate(141.348 122.107)" clip-path="url(#clip-path-147)">
        <g id="Group_2987" data-name="Group 2987" transform="translate(-189.93 -308.43)" clip-path="url(#clip-path-2)">
          <path id="Path_1030" data-name="Path 1030" d="M1370.28-138.223h13.5v60.264h-13.5Z" transform="translate(-1186.131 440.872)" fill="#e1ebf4"/>
        </g>
      </g>
      <g id="Group_2990" data-name="Group 2990" transform="translate(145.144 138.415)" clip-path="url(#clip-path-149)">
        <g id="Group_2989" data-name="Group 2989" transform="translate(-193.725 -324.738)" clip-path="url(#clip-path-2)">
          <path id="Path_1033" data-name="Path 1033" d="M1373.563-124.118h22.586v17.147h-22.586Z" transform="translate(-1185.618 443.075)" fill="#0074e3"/>
        </g>
      </g>
      <g id="Group_2992" data-name="Group 2992" transform="translate(158.774 138.415)" clip-path="url(#clip-path-151)">
        <g id="Group_2991" data-name="Group 2991" transform="translate(-207.355 -324.738)" clip-path="url(#clip-path-2)">
          <path id="Path_1036" data-name="Path 1036" d="M1385.352-124.118h26.7v17.147h-26.7Z" transform="translate(-1183.778 443.075)" fill="#0074e3"/>
        </g>
      </g>
      <g id="Group_2994" data-name="Group 2994" transform="translate(145.143 146.458)" clip-path="url(#clip-path-153)">
        <g id="Group_2993" data-name="Group 2993" transform="translate(-193.724 -332.78)" clip-path="url(#clip-path-2)">
          <path id="Path_1039" data-name="Path 1039" d="M1373.562-117.161h18.729v17.147h-18.729Z" transform="translate(-1185.618 444.161)" fill="#0074e3"/>
        </g>
      </g>
      <g id="Group_2996" data-name="Group 2996" transform="translate(145.143 162.543)" clip-path="url(#clip-path-155)">
        <g id="Group_2995" data-name="Group 2995" transform="translate(-193.724 -348.866)" clip-path="url(#clip-path-2)">
          <path id="Path_1042" data-name="Path 1042" d="M1373.562-103.248h19.262V-86.1h-19.262Z" transform="translate(-1185.618 446.333)" fill="#0074e3"/>
        </g>
      </g>
      <g id="Group_2998" data-name="Group 2998" transform="translate(157.646 162.543)" clip-path="url(#clip-path-157)">
        <g id="Group_2997" data-name="Group 2997" transform="translate(-206.228 -348.866)" clip-path="url(#clip-path-2)">
          <path id="Path_1045" data-name="Path 1045" d="M1384.377-103.248h30V-86.1h-30Z" transform="translate(-1183.93 446.333)" fill="#0074e3"/>
        </g>
      </g>
      <g id="Group_3000" data-name="Group 3000" transform="translate(14.605 47.998)" clip-path="url(#clip-path-159)">
        <g id="Group_2999" data-name="Group 2999" transform="translate(-63.186 -234.321)" clip-path="url(#clip-path-2)">
          <path id="Path_1048" data-name="Path 1048" d="M1260.653-202.324h44.708v17.147h-44.708Z" transform="translate(-1203.247 430.864)" fill="#0074e3"/>
        </g>
      </g>
      <g id="Group_3002" data-name="Group 3002" transform="translate(10.81 47.998)" clip-path="url(#clip-path-161)">
        <g id="Group_3001" data-name="Group 3001" transform="translate(-59.392 -234.321)" clip-path="url(#clip-path-2)">
          <path id="Path_1051" data-name="Path 1051" d="M1257.371-202.324h13.506v60.264h-13.506Z" transform="translate(-1203.76 430.864)" fill="#e1ebf4"/>
        </g>
      </g>
      <g id="Group_3004" data-name="Group 3004" transform="translate(14.605 56.041)" clip-path="url(#clip-path-163)">
        <g id="Group_3003" data-name="Group 3003" transform="translate(-63.186 -242.363)" clip-path="url(#clip-path-2)">
          <path id="Path_1054" data-name="Path 1054" d="M1260.653-195.367h49.508v17.147h-49.508Z" transform="translate(-1203.247 431.95)" fill="#0074e3"/>
        </g>
      </g>
      <g id="Group_3006" data-name="Group 3006" transform="translate(14.605 64.083)" clip-path="url(#clip-path-165)">
        <g id="Group_3005" data-name="Group 3005" transform="translate(-63.186 -250.406)" clip-path="url(#clip-path-2)">
          <path id="Path_1057" data-name="Path 1057" d="M1260.653-188.411h36.559v17.147h-36.559Z" transform="translate(-1203.247 433.036)" fill="#0074e3"/>
        </g>
      </g>
      <g id="Group_3008" data-name="Group 3008" transform="translate(14.606 80.169)" clip-path="url(#clip-path-167)">
        <g id="Group_3007" data-name="Group 3007" transform="translate(-63.187 -266.491)" clip-path="url(#clip-path-2)">
          <path id="Path_1060" data-name="Path 1060" d="M1260.654-174.5h16.326v17.147h-16.326Z" transform="translate(-1203.247 435.209)" fill="#0074e3"/>
        </g>
      </g>
      <g id="Group_3010" data-name="Group 3010" transform="translate(22.341 80.169)" clip-path="url(#clip-path-169)">
        <g id="Group_3009" data-name="Group 3009" transform="translate(-70.922 -266.491)" clip-path="url(#clip-path-2)">
          <path id="Path_1063" data-name="Path 1063" d="M1267.344-174.5h22.97v17.147h-22.97Z" transform="translate(-1202.203 435.209)" fill="#0074e3"/>
        </g>
      </g>
      <g id="Group_3012" data-name="Group 3012" transform="translate(264.88 40.336)" clip-path="url(#clip-path-171)">
        <g id="Group_3011" data-name="Group 3011" transform="translate(-313.462 -226.659)" clip-path="url(#clip-path-2)">
          <path id="Path_1066" data-name="Path 1066" d="M1477.129-208.951h19.692v19.7h-19.692Z" transform="translate(-1169.448 429.829)" fill="#f78779"/>
        </g>
      </g>
      <g id="Group_3014" data-name="Group 3014" transform="translate(268.413 43.873)" clip-path="url(#clip-path-173)">
        <g id="Group_3013" data-name="Group 3013" transform="translate(-316.995 -230.196)" clip-path="url(#clip-path-2)">
          <path id="Path_1069" data-name="Path 1069" d="M1480.185-205.892h32.9v32.917h-32.9Z" transform="translate(-1168.971 430.307)" fill="#eea36c"/>
        </g>
      </g>
      <g id="Group_3016" data-name="Group 3016" transform="translate(235.346 10.786)" clip-path="url(#clip-path-175)">
        <g id="Group_3015" data-name="Group 3015" transform="translate(-283.927 -197.109)" clip-path="url(#clip-path-2)">
          <path id="Path_1072" data-name="Path 1072" d="M1451.583-234.51h47.848v47.871h-47.848Z" transform="translate(-1173.437 425.839)" fill="#bee1ee"/>
        </g>
      </g>
      <g id="Group_3018" data-name="Group 3018" transform="translate(235.401 10.843)" clip-path="url(#clip-path-177)">
        <g id="Group_3017" data-name="Group 3017" transform="translate(-283.982 -197.165)" clip-path="url(#clip-path-2)">
          <path id="Path_1075" data-name="Path 1075" d="M1451.631-234.462h38.6v38.613h-38.6Z" transform="translate(-1173.429 425.846)" fill="#fff"/>
        </g>
      </g>
      <g id="Group_3020" data-name="Group 3020" transform="translate(239.145 14.587)" clip-path="url(#clip-path-179)">
        <g id="Group_3019" data-name="Group 3019" transform="translate(-287.726 -200.91)" clip-path="url(#clip-path-2)">
          <path id="Path_1078" data-name="Path 1078" d="M1454.869-231.223H1494.9v40.047h-40.029Z" transform="translate(-1172.924 426.352)" fill="#fff"/>
        </g>
      </g>
      <g id="Group_3022" data-name="Group 3022" transform="translate(233.341 8.778)" clip-path="url(#clip-path-181)">
        <g id="Group_3021" data-name="Group 3021" transform="translate(-281.922 -195.101)" clip-path="url(#clip-path-2)">
          <path id="Path_1081" data-name="Path 1081" d="M1449.849-236.247h51.863v51.889h-51.863Z" transform="translate(-1173.707 425.567)" fill="#fbd492"/>
        </g>
      </g>
    </g>
  </g>
</svg>
