<svg xmlns="http://www.w3.org/2000/svg" xmlns:xlink="http://www.w3.org/1999/xlink" width="365.839" height="276.191" viewBox="0 0 365.839 276.191">
  <defs>
    <clipPath id="clip-path">
      <path id="Path_1087" data-name="Path 1087" d="M1104.543-19.937a12.179,12.179,0,0,0-4.933,1.047c.034-.45.054-.9.054-1.362a17.805,17.805,0,0,0-17.8-17.807,17.734,17.734,0,0,0-11.908,4.572,17.688,17.688,0,0,0-8.167-2.908v-9.482a18.922,18.922,0,0,0-18.92-18.924,18.922,18.922,0,0,0-18.755,16.447,26.146,26.146,0,0,0-7.414-1.073,26.044,26.044,0,0,0-14.536,4.41,26.062,26.062,0,0,0-17.5-6.721A26.172,26.172,0,0,0,958.49-25.563c0,.674.031,1.34.08,2a17.913,17.913,0,0,0-7.251-1.538,17.928,17.928,0,0,0-8.269,2.013,17.807,17.807,0,0,0-17.575-14.972,17.731,17.731,0,0,0-11.908,4.572,17.689,17.689,0,0,0-8.168-2.908v-9.482A18.922,18.922,0,0,0,886.479-64.8a18.922,18.922,0,0,0-18.755,16.447,26.144,26.144,0,0,0-7.414-1.073,26.043,26.043,0,0,0-14.536,4.41,26.063,26.063,0,0,0-17.5-6.721A26.172,26.172,0,0,0,802.1-25.563c0,.674.031,1.34.08,2a17.913,17.913,0,0,0-7.251-1.538A18.025,18.025,0,0,0,777.008-8.948h339.729a12.262,12.262,0,0,0-12.194-10.989" transform="translate(-777.008 64.8)" fill="none" clip-rule="evenodd"/>
    </clipPath>
    <clipPath id="clip-path-2">
      <path id="Path_1086" data-name="Path 1086" d="M736,538.781h433.55V-400H736Z" transform="translate(-736 400)" fill="none"/>
    </clipPath>
    <clipPath id="clip-path-3">
      <path id="Path_1090" data-name="Path 1090" d="M989.939,12.877H855.531A10.16,10.16,0,0,1,845.373,2.716V-229.163a10.16,10.16,0,0,1,10.159-10.161H989.939a10.16,10.16,0,0,1,10.159,10.161V2.716a10.159,10.159,0,0,1-10.159,10.161" transform="translate(-845.373 239.324)" fill="none" clip-rule="evenodd"/>
    </clipPath>
    <clipPath id="clip-path-5">
      <path id="Path_1093" data-name="Path 1093" d="M925.7-35.276a11.82,11.82,0,0,1-11.819,11.822,11.82,11.82,0,0,1-11.819-11.822A11.82,11.82,0,0,1,913.884-47.1,11.82,11.82,0,0,1,925.7-35.276" transform="translate(-902.064 47.098)" fill="none" clip-rule="evenodd"/>
    </clipPath>
    <clipPath id="clip-path-7">
      <path id="Path_1096" data-name="Path 1096" d="M931.613-225.44H903.09a1.759,1.759,0,0,1-1.758-1.759,1.758,1.758,0,0,1,1.758-1.759h28.523a1.758,1.758,0,0,1,1.758,1.759,1.759,1.759,0,0,1-1.758,1.759" transform="translate(-901.332 228.957)" fill="none" clip-rule="evenodd"/>
    </clipPath>
    <clipPath id="clip-path-9">
      <path id="Path_1099" data-name="Path 1099" d="M899.047-227.2a1.759,1.759,0,0,1-1.758,1.759,1.759,1.759,0,0,1-1.758-1.759,1.758,1.758,0,0,1,1.758-1.759,1.758,1.758,0,0,1,1.758,1.759" transform="translate(-895.531 228.957)" fill="none" clip-rule="evenodd"/>
    </clipPath>
    <clipPath id="clip-path-11">
      <path id="Path_1102" data-name="Path 1102" d="M842.331-194.3h3.516v-17.586h-3.516Z" transform="translate(-842.331 211.887)" fill="none" clip-rule="evenodd"/>
    </clipPath>
    <clipPath id="clip-path-13">
      <path id="Path_1105" data-name="Path 1105" d="M979.2-194.3h3.516v-17.586H979.2Z" transform="translate(-979.202 211.887)" fill="none" clip-rule="evenodd"/>
    </clipPath>
    <clipPath id="clip-path-15">
      <path id="Path_1108" data-name="Path 1108" d="M979.2-165.005h3.516v-17.586H979.2Z" transform="translate(-979.202 182.591)" fill="none" clip-rule="evenodd"/>
    </clipPath>
    <clipPath id="clip-path-17">
      <path id="Path_1111" data-name="Path 1111" d="M855.68-27.951H986.962V-218.366H855.68Z" transform="translate(-855.68 218.366)" fill="none" clip-rule="evenodd"/>
    </clipPath>
    <clipPath id="clip-path-19">
      <path id="Path_1114" data-name="Path 1114" d="M892.842-137.293h-24.36a3.452,3.452,0,0,1-3.452-3.452v-24.365a3.452,3.452,0,0,1,3.452-3.452h24.36a3.453,3.453,0,0,1,3.452,3.452v24.365a3.453,3.453,0,0,1-3.452,3.452" transform="translate(-865.03 168.563)" fill="none" clip-rule="evenodd"/>
    </clipPath>
    <clipPath id="clip-path-21">
      <path id="Path_1117" data-name="Path 1117" d="M926.748-137.293h-24.36a3.452,3.452,0,0,1-3.452-3.452v-24.365a3.452,3.452,0,0,1,3.452-3.452h24.36a3.452,3.452,0,0,1,3.452,3.452v24.365a3.453,3.453,0,0,1-3.452,3.452" transform="translate(-898.936 168.563)" fill="none" clip-rule="evenodd"/>
    </clipPath>
    <clipPath id="clip-path-23">
      <path id="Path_1120" data-name="Path 1120" d="M932.842-137.293H964.1v-31.27H932.842Z" transform="translate(-932.842 168.563)" fill="none" clip-rule="evenodd"/>
    </clipPath>
    <clipPath id="clip-path-25">
      <path id="Path_1123" data-name="Path 1123" d="M913.906-155.009l10.7-5.27a1.958,1.958,0,0,0-1.931-1.644H905.107a1.958,1.958,0,0,0-1.838,1.293Z" transform="translate(-903.27 161.924)" fill="none" clip-rule="evenodd"/>
    </clipPath>
    <clipPath id="clip-path-27">
      <path id="Path_1126" data-name="Path 1126" d="M913.893-153.37l-10.732-5.673v10.623a1.964,1.964,0,0,0,1.964,1.964h17.567a1.964,1.964,0,0,0,1.964-1.964v-10.251Z" transform="translate(-903.161 159.043)" fill="none" clip-rule="evenodd"/>
    </clipPath>
    <clipPath id="clip-path-29">
      <path id="Path_1129" data-name="Path 1129" d="M889.745-158.015a7.636,7.636,0,0,0-.538-.756l.364-.366a1.229,1.229,0,0,0,0-1.742l-3.467-3.468a1.229,1.229,0,0,0-1.742,0l-3.476,3.476a1.227,1.227,0,0,0-.191,1.5,1.037,1.037,0,0,0,.191.252l1.951,1.951,1.516,1.517a1.233,1.233,0,0,0,1.747,0l.916-.918a3.859,3.859,0,0,1,.453.843,4.1,4.1,0,0,1-.913,4.407l-4.7,4.706a4.1,4.1,0,0,1-4.406.913,3.56,3.56,0,0,1-.839-.456l1.65-1.652a1.229,1.229,0,0,0,0-1.742l-1.516-1.517-1.951-1.951a1.036,1.036,0,0,0-.251-.192,1.22,1.22,0,0,0-1.49.187l-3.476,3.477a1.232,1.232,0,0,0,0,1.748l3.466,3.468a1.224,1.224,0,0,0,1.281.291,6.52,6.52,0,0,0,.848.621,7.181,7.181,0,0,0,8.859-1.022l4.7-4.706a7.185,7.185,0,0,0,1.021-8.861" transform="translate(-869.2 164.711)" fill="none" clip-rule="evenodd"/>
    </clipPath>
    <clipPath id="clip-path-31">
      <path id="Path_1132" data-name="Path 1132" d="M865.03-99.434h31.263V-130.7H865.03Z" transform="translate(-865.03 130.704)" fill="none" clip-rule="evenodd"/>
    </clipPath>
    <clipPath id="clip-path-33">
      <path id="Path_1135" data-name="Path 1135" d="M898.936-99.434H930.2V-130.7H898.936Z" transform="translate(-898.936 130.704)" fill="none" clip-rule="evenodd"/>
    </clipPath>
    <clipPath id="clip-path-35">
      <path id="Path_1138" data-name="Path 1138" d="M932.842-99.434H964.1V-130.7H932.842Z" transform="translate(-932.842 130.704)" fill="none" clip-rule="evenodd"/>
    </clipPath>
    <clipPath id="clip-path-37">
      <path id="Path_1141" data-name="Path 1141" d="M865.03-61.575h31.263v-31.27H865.03Z" transform="translate(-865.03 92.845)" fill="none" clip-rule="evenodd"/>
    </clipPath>
    <clipPath id="clip-path-39">
      <path id="Path_1144" data-name="Path 1144" d="M898.936-61.575H930.2v-31.27H898.936Z" transform="translate(-898.936 92.845)" fill="none" clip-rule="evenodd"/>
    </clipPath>
    <clipPath id="clip-path-41">
      <path id="Path_1147" data-name="Path 1147" d="M932.842-61.575H964.1v-31.27H932.842Z" transform="translate(-932.842 92.845)" fill="none" clip-rule="evenodd"/>
    </clipPath>
    <clipPath id="clip-path-43">
      <path id="Path_1150" data-name="Path 1150" d="M877.11-196.247H866.235a1.2,1.2,0,0,1-1.2-1.205v-10.877a1.2,1.2,0,0,1,1.2-1.205H877.11a1.2,1.2,0,0,1,1.2,1.205v10.877a1.2,1.2,0,0,1-1.2,1.205" transform="translate(-865.031 209.534)" fill="none" clip-rule="evenodd"/>
    </clipPath>
    <clipPath id="clip-path-45">
      <path id="Path_1153" data-name="Path 1153" d="M866.847-205.523h9.084v-1.856h-9.084Z" transform="translate(-866.847 207.379)" fill="none" clip-rule="evenodd"/>
    </clipPath>
    <clipPath id="clip-path-47">
      <path id="Path_1156" data-name="Path 1156" d="M866.847-202.734h9.084v-1.856h-9.084Z" transform="translate(-866.847 204.59)" fill="none" clip-rule="evenodd"/>
    </clipPath>
    <clipPath id="clip-path-49">
      <path id="Path_1159" data-name="Path 1159" d="M866.847-199.945h9.084V-201.8h-9.084Z" transform="translate(-866.847 201.801)" fill="none" clip-rule="evenodd"/>
    </clipPath>
    <clipPath id="clip-path-51">
      <path id="Path_1162" data-name="Path 1162" d="M961.274-209.534H947.61a1.7,1.7,0,0,0-1.1.4l-5.819,4.945a1.7,1.7,0,0,0,0,2.59l5.819,4.944a1.7,1.7,0,0,0,1.1.4h13.664a1.7,1.7,0,0,0,1.7-1.7v-9.89a1.7,1.7,0,0,0-1.7-1.7" transform="translate(-940.091 209.534)" fill="none" clip-rule="evenodd"/>
    </clipPath>
    <clipPath id="clip-path-53">
      <path id="Path_1165" data-name="Path 1165" d="M955.69-205.144l-2.007-2.007-1.882,1.882-1.881-1.882-2.008,2.007,1.882,1.882-1.882,1.881,2.008,2.008,1.881-1.882,1.882,1.882,2.007-2.008-1.882-1.881Z" transform="translate(-947.913 207.152)" fill="none" clip-rule="evenodd"/>
    </clipPath>
    <clipPath id="clip-path-55">
      <path id="Path_1168" data-name="Path 1168" d="M877.1-5.925a466,466,0,0,1-53.479,3.091,466.021,466.021,0,0,1-53.479-3.091,464.26,464.26,0,0,1,106.959,0" transform="translate(-770.137 9.016)" fill="none" clip-rule="evenodd"/>
    </clipPath>
    <clipPath id="clip-path-57">
      <path id="Path_1171" data-name="Path 1171" d="M846.51-114.883l-.527-5.45,1.2-6.709,1.708.306.034,5.3,7.742-6.78,1.376.7,1.464-.522,1.222,1.2-1.9,3.318.854,1.067-6.128,7.983-3.824,1.668L848.64-110l-3.6-2.146Z" transform="translate(-845.04 128.22)" fill="none" clip-rule="evenodd"/>
    </clipPath>
    <clipPath id="clip-path-59">
      <path id="Path_1174" data-name="Path 1174" d="M823.933-135.383s5.436,2.316,6.949,7.989,6.805,22.785,7.939,23.162,8.7-12.1,8.7-12.1l8.7,6.051s-7.939,19.141-17.392,20.233-14.888-22.589-14.888-22.589Z" transform="translate(-823.933 135.383)" fill="none" clip-rule="evenodd"/>
    </clipPath>
    <clipPath id="clip-path-61">
      <path id="Path_1177" data-name="Path 1177" d="M821.646-5.61l6.619.5.255-2c2.382,2.042,11.054,2.955,18.216,3.358l.181-2.478a55.075,55.075,0,0,1-16.741-8.719.11.11,0,0,1-.017-.028c-.426-.6-.738-4.408-.647-7.442L823-22.917l.566,9.009a1.367,1.367,0,0,0-.164.22c-1.185,1.821-1.753,8.078-1.753,8.078" transform="translate(-821.646 22.917)" fill="none" clip-rule="evenodd"/>
    </clipPath>
    <clipPath id="clip-path-63">
      <path id="Path_1180" data-name="Path 1180" d="M823.381-13.908a1.318,1.318,0,0,0-.164.22c2.291.245,5.376-.777,6.76-1.293-.425-.6-.737-4.408-.646-7.443l-6.516-.493Z" transform="translate(-822.814 22.916)" fill="none" clip-rule="evenodd"/>
    </clipPath>
    <clipPath id="clip-path-65">
      <path id="Path_1183" data-name="Path 1183" d="M832.3-10.466l2.2-2.765-.889-.706-2.2,2.765Z" transform="translate(-831.417 13.937)" fill="none" clip-rule="evenodd"/>
    </clipPath>
    <clipPath id="clip-path-67">
      <path id="Path_1186" data-name="Path 1186" d="M831.029-11.363l2.2-2.766-.889-.705-2.2,2.765Z" transform="translate(-830.141 14.835)" fill="none" clip-rule="evenodd"/>
    </clipPath>
    <clipPath id="clip-path-69">
      <path id="Path_1189" data-name="Path 1189" d="M829.6-12.249l2.2-2.765-.888-.706-2.2,2.765Z" transform="translate(-828.711 15.72)" fill="none" clip-rule="evenodd"/>
    </clipPath>
    <clipPath id="clip-path-71">
      <path id="Path_1192" data-name="Path 1192" d="M813.638-5.61l-6.618.5-.256-2c-2.382,2.042-11.053,2.955-18.216,3.358l-.181-2.478a55.1,55.1,0,0,0,16.742-8.719.135.135,0,0,0,.016-.028c.426-.6.738-4.408.647-7.442l6.516-.494-.567,9.009a1.41,1.41,0,0,1,.165.22c1.185,1.821,1.752,8.078,1.752,8.078" transform="translate(-788.368 22.917)" fill="none" clip-rule="evenodd"/>
    </clipPath>
    <clipPath id="clip-path-73">
      <path id="Path_1195" data-name="Path 1195" d="M809.459-13.908a1.4,1.4,0,0,1,.164.22c-2.291.245-5.376-.777-6.76-1.293.426-.6.738-4.408.647-7.443l6.516-.493Z" transform="translate(-802.863 22.916)" fill="none" clip-rule="evenodd"/>
    </clipPath>
    <clipPath id="clip-path-75">
      <path id="Path_1198" data-name="Path 1198" d="M799.984-10.466l-2.2-2.765.889-.706,2.2,2.765Z" transform="translate(-797.786 13.937)" fill="none" clip-rule="evenodd"/>
    </clipPath>
    <clipPath id="clip-path-77">
      <path id="Path_1201" data-name="Path 1201" d="M801.26-11.363l-2.2-2.766.889-.705,2.2,2.765Z" transform="translate(-799.062 14.835)" fill="none" clip-rule="evenodd"/>
    </clipPath>
    <clipPath id="clip-path-79">
      <path id="Path_1204" data-name="Path 1204" d="M802.69-12.249l-2.2-2.765.889-.706,2.2,2.765Z" transform="translate(-800.492 15.72)" fill="none" clip-rule="evenodd"/>
    </clipPath>
    <clipPath id="clip-path-81">
      <path id="Path_1207" data-name="Path 1207" d="M803.224-96.785s-4.836,81.826-3.776,87.877h12.284s2.776-68.071,5.986-69.584,6.427,69.584,6.427,69.584h11.907l-6.382-86.6Z" transform="translate(-799.296 96.785)" fill="none" clip-rule="evenodd"/>
    </clipPath>
    <clipPath id="clip-path-83">
      <path id="Path_1210" data-name="Path 1210" d="M809.771-136.852s-5.336.618-6.754,2.931-.263,43.392-.263,43.392,12.623,6.24,26.445,1.276c0,0-.852-44.908-1.89-45.9s-5.008-1.56-5.008-1.56l-6.325,2.414Z" transform="translate(-802.31 136.852)" fill="none" clip-rule="evenodd"/>
    </clipPath>
    <clipPath id="clip-path-85">
      <path id="Path_1213" data-name="Path 1213" d="M809.5-123.969l-13.352,19.52,14.26,9.12L824.555-114.1Z" transform="translate(-796.144 123.969)" fill="none" clip-rule="evenodd"/>
    </clipPath>
    <clipPath id="clip-path-87">
      <path id="Path_1216" data-name="Path 1216" d="M807.174-114.779s1.11-3.58.008-5.441l1.324-.878,1.783,3.372s1.523-3.366.961-3.959l-.816-.815s2.072-.508,2.628.278l1.344.134.935.989,1.339.327,1.384,2.157-2.789,5.073-5.043,4.771-4.536-4.8Z" transform="translate(-805.696 122.662)" fill="none" clip-rule="evenodd"/>
    </clipPath>
    <clipPath id="clip-path-89">
      <path id="Path_1219" data-name="Path 1219" d="M805.268-134.317s-24.907,28.6-15.076,39.941,24.371-12.291,24.371-12.291l-5.751-6.118s-9.357,10.87-10.113,9.344,5.908-14.382,5.908-14.382Z" transform="translate(-787.895 134.317)" fill="none" clip-rule="evenodd"/>
    </clipPath>
    <clipPath id="clip-path-91">
      <path id="Path_1222" data-name="Path 1222" d="M818.539-143.476v7.657s-1.8,2.553-3.913,2.553-3.664-3.4-3.664-3.4l.464-3.982.335-2.825Z" transform="translate(-810.962 143.476)" fill="none" clip-rule="evenodd"/>
    </clipPath>
    <clipPath id="clip-path-93">
      <path id="Path_1225" data-name="Path 1225" d="M818.476-143.476v3.37c-3.863,1.05-6.023.227-7.113-.545l.335-2.825Z" transform="translate(-811.363 143.476)" fill="none" clip-rule="evenodd"/>
    </clipPath>
    <clipPath id="clip-path-95">
      <path id="Path_1228" data-name="Path 1228" d="M817.454-161.116s11.633,15.483,4.61,20.918c-5.776,4.469-10.771,1.005-12.053-1.758-1.711-3.69-4.068-15.754-4.068-15.754Z" transform="translate(-805.943 161.116)" fill="none" clip-rule="evenodd"/>
    </clipPath>
    <clipPath id="clip-path-97">
      <path id="Path_1231" data-name="Path 1231" d="M818.278-155.241s2.16-3.819,4.568-.428-1.712,6.459-1.712,6.459Z" transform="translate(-818.278 157.072)" fill="none" clip-rule="evenodd"/>
    </clipPath>
    <clipPath id="clip-path-99">
      <path id="Path_1234" data-name="Path 1234" d="M808.882-152.478s-3.89-2.028-4.065,2.128,4.95,4.487,4.95,4.487Z" transform="translate(-804.812 152.973)" fill="none" clip-rule="evenodd"/>
    </clipPath>
    <clipPath id="clip-path-101">
      <path id="Path_1237" data-name="Path 1237" d="M820.46-156.009a2.91,2.91,0,0,1,.542.378,3.125,3.125,0,0,1,.86,1.2,3.125,3.125,0,0,1,.2,1.462,2.933,2.933,0,0,1-.134.646,1.745,1.745,0,0,0,.117-.142,2.079,2.079,0,0,0,.25-.444,2.288,2.288,0,0,0,.016-1.7,2.286,2.286,0,0,0-1.182-1.224,2.062,2.062,0,0,0-.487-.15,1.773,1.773,0,0,0-.183-.023" transform="translate(-820.46 156.009)" fill="none" clip-rule="evenodd"/>
    </clipPath>
    <clipPath id="clip-path-103">
      <path id="Path_1240" data-name="Path 1240" d="M806.592-151.584a2.923,2.923,0,0,0-.248.611,3.134,3.134,0,0,0-.071,1.473,3.131,3.131,0,0,0,.629,1.335,2.94,2.94,0,0,0,.463.471,1.644,1.644,0,0,1-.175-.056,2.006,2.006,0,0,1-.452-.235,2.288,2.288,0,0,1-.939-1.42,2.293,2.293,0,0,1,.325-1.67,2.092,2.092,0,0,1,.327-.391,1.769,1.769,0,0,1,.141-.118" transform="translate(-805.758 151.584)" fill="none" clip-rule="evenodd"/>
    </clipPath>
    <clipPath id="clip-path-105">
      <path id="Path_1243" data-name="Path 1243" d="M817.812-151.442a1.264,1.264,0,0,0,1.57.854,1.264,1.264,0,0,0,.853-1.57,1.264,1.264,0,0,0-1.57-.854,1.265,1.265,0,0,0-.853,1.57" transform="translate(-817.76 153.064)" fill="none" clip-rule="evenodd"/>
    </clipPath>
    <clipPath id="clip-path-107">
      <path id="Path_1246" data-name="Path 1246" d="M809.051-148.849a1.264,1.264,0,0,0,1.57.854,1.265,1.265,0,0,0,.853-1.57,1.265,1.265,0,0,0-1.571-.854,1.264,1.264,0,0,0-.853,1.57" transform="translate(-808.999 150.472)" fill="none" clip-rule="evenodd"/>
    </clipPath>
    <clipPath id="clip-path-109">
      <path id="Path_1249" data-name="Path 1249" d="M814.864-147.532a1.565,1.565,0,0,0,.3.226,2.087,2.087,0,0,0,.4.191,1.068,1.068,0,0,0,.649.015,1.187,1.187,0,0,0,.663-.491,1.282,1.282,0,0,0,.177-.958,9.437,9.437,0,0,0-.459-1.785,9.339,9.339,0,0,0-1.7-2.865,8.5,8.5,0,0,0-.7-.721l-.276-.244.181.319c.118.2.285.5.478.865a24.266,24.266,0,0,1,1.29,2.914c.213.58.4,1.14.547,1.658a.765.765,0,0,1-.344.949,1.165,1.165,0,0,1-.864.042,1.988,1.988,0,0,1-.343-.114" transform="translate(-813.919 154.164)" fill="none" clip-rule="evenodd"/>
    </clipPath>
    <clipPath id="clip-path-111">
      <path id="Path_1252" data-name="Path 1252" d="M802.33-159.294c.4-1.3,3.8-4.477,11.572-5.2,3.7-.344,3.023-4.443,3.023-4.443s4.75,3.9,3.7,7.516a2.776,2.776,0,0,1,1.09,1.418,34.113,34.113,0,0,1,1.008,4.863s-1.336.089-.255,2.579l-4.008-6.183a20.129,20.129,0,0,1-11.728,3.37l1.575,6.634s-1.034-1.978-2.363-1.231c0,0-4.02-8.02-3.617-9.323" transform="translate(-802.302 168.936)" fill="none" clip-rule="evenodd"/>
    </clipPath>
    <clipPath id="clip-path-113">
      <path id="Path_1255" data-name="Path 1255" d="M807.148-158.481l.55.167a8.351,8.351,0,0,0,1.557.257,9.077,9.077,0,0,0,5.08-1.132,7.742,7.742,0,0,0,3.518-3.831,4.175,4.175,0,0,0,.271-1.566,3.165,3.165,0,0,0-.044-.426l-.025-.147a3.568,3.568,0,0,1-.022.57,4.416,4.416,0,0,1-.447,1.455,8.664,8.664,0,0,1-3.534,3.439,10.6,10.6,0,0,1-4.793,1.349,10.2,10.2,0,0,1-1.545-.056l-.567-.079" transform="translate(-807.148 165.16)" fill="none" clip-rule="evenodd"/>
    </clipPath>
    <clipPath id="clip-path-115">
      <path id="Path_1258" data-name="Path 1258" d="M806.8-159.923s.586.072,1.543.1a9.229,9.229,0,0,0,3.73-.569,6.924,6.924,0,0,0,2.9-2.421,14.933,14.933,0,0,0,.856-1.29l-1.075,1.1a8.912,8.912,0,0,1-2.908,2.074,13.946,13.946,0,0,1-3.522.815l-1.529.188" transform="translate(-806.799 164.101)" fill="none" clip-rule="evenodd"/>
    </clipPath>
    <clipPath id="clip-path-117">
      <path id="Path_1261" data-name="Path 1261" d="M803.849-158.046l.032-.215a4.532,4.532,0,0,1,.111-.564,6.236,6.236,0,0,1,.706-1.669,6.228,6.228,0,0,1,1.147-1.4,4.725,4.725,0,0,1,.447-.362l.176-.128-.213.046a2.752,2.752,0,0,0-.569.2,3.5,3.5,0,0,0-1.484,1.346,3.509,3.509,0,0,0-.5,1.941,2.77,2.77,0,0,0,.088.6l.058.21" transform="translate(-803.698 162.388)" fill="none" clip-rule="evenodd"/>
    </clipPath>
    <clipPath id="clip-path-119">
      <path id="Path_1264" data-name="Path 1264" d="M805.174-156.979a3.229,3.229,0,0,1-.093-.377,4.712,4.712,0,0,1-.064-.806,4.776,4.776,0,0,1,.051-.807,3.072,3.072,0,0,1,.087-.378.979.979,0,0,0-.342.241,1.365,1.365,0,0,0-.376.949,1.367,1.367,0,0,0,.391.943.978.978,0,0,0,.346.236" transform="translate(-804.437 159.347)" fill="none" clip-rule="evenodd"/>
    </clipPath>
    <clipPath id="clip-path-121">
      <path id="Path_1267" data-name="Path 1267" d="M811.3-137.588l-2.541.85,3.006,6.713,3.2-4.161Z" transform="translate(-808.764 137.588)" fill="none" clip-rule="evenodd"/>
    </clipPath>
    <clipPath id="clip-path-123">
      <path id="Path_1270" data-name="Path 1270" d="M814.131-134.184l3.157,4.16,3.167-6.574-2.411-.989Z" transform="translate(-814.131 137.588)" fill="none" clip-rule="evenodd"/>
    </clipPath>
    <clipPath id="clip-path-125">
      <path id="Path_1273" data-name="Path 1273" d="M765-149.814h13.091v-13.094H765Z" transform="translate(-765 162.908)" fill="none" clip-rule="evenodd"/>
    </clipPath>
    <clipPath id="clip-path-127">
      <path id="Path_1276" data-name="Path 1276" d="M773.783-134.592h13.091v-13.094H773.783Z" transform="translate(-773.783 147.686)" fill="none" clip-rule="evenodd"/>
    </clipPath>
    <clipPath id="clip-path-129">
      <path id="Path_1279" data-name="Path 1279" d="M1104.868-3.893c-9.8-.868-24.9-1.886-41.854-1.886-15.436,0-29.336.844-39.1,1.649-9.762-.805-23.662-1.649-39.1-1.649a466.14,466.14,0,0,0-53.479,3.09A466.024,466.024,0,0,0,984.82.4c15.436,0,29.335-.844,39.1-1.65,9.76.806,23.66,1.65,39.1,1.65,16.956,0,32.057-1.019,41.854-1.886Z" transform="translate(-931.341 5.779)" fill="none" clip-rule="evenodd"/>
    </clipPath>
    <clipPath id="clip-path-131">
      <path id="Path_1282" data-name="Path 1282" d="M947.829,1.775h64.078V-38.537H947.829Z" transform="translate(-947.829 38.537)" fill="none" clip-rule="evenodd"/>
    </clipPath>
    <clipPath id="clip-path-133">
      <path id="Path_1285" data-name="Path 1285" d="M947.829-38.537l64.078,40.312H947.829Z" transform="translate(-947.829 38.537)" fill="none" clip-rule="evenodd"/>
    </clipPath>
    <clipPath id="clip-path-135">
      <path id="Path_1288" data-name="Path 1288" d="M983.036-36.207l6.637.058.122-2.015c2.512,1.879,11.225,2.214,18.4,2.14l.016-2.485A55.127,55.127,0,0,1,990.927-46.1a.106.106,0,0,1-.019-.028c-.464-.565-1.028-4.348-1.139-7.382l-6.535-.059,1.164,8.95a1.437,1.437,0,0,0-.149.232c-1.062,1.9-1.212,8.176-1.212,8.176" transform="translate(-983.036 53.566)" fill="none" clip-rule="evenodd"/>
    </clipPath>
    <clipPath id="clip-path-137">
      <path id="Path_1291" data-name="Path 1291" d="M984.371-44.615a1.436,1.436,0,0,0-.149.232c2.3.091,5.313-1.133,6.66-1.741-.464-.565-1.028-4.348-1.139-7.382l-6.535-.059Z" transform="translate(-983.207 53.565)" fill="none" clip-rule="evenodd"/>
    </clipPath>
    <clipPath id="clip-path-139">
      <path id="Path_1294" data-name="Path 1294" d="M993.479-41.754l2.009-2.905-.933-.645L992.546-42.4Z" transform="translate(-992.546 45.304)" fill="none" clip-rule="evenodd"/>
    </clipPath>
    <clipPath id="clip-path-141">
      <path id="Path_1297" data-name="Path 1297" d="M992.147-42.564l2.009-2.906-.934-.645-2.009,2.905Z" transform="translate(-991.213 46.115)" fill="none" clip-rule="evenodd"/>
    </clipPath>
    <clipPath id="clip-path-143">
      <path id="Path_1300" data-name="Path 1300" d="M990.661-43.353l2.009-2.905-.933-.645L989.728-44Z" transform="translate(-989.728 46.903)" fill="none" clip-rule="evenodd"/>
    </clipPath>
    <clipPath id="clip-path-145">
      <path id="Path_1303" data-name="Path 1303" d="M971.013-36.207l-6.637.058-.122-2.015c-2.512,1.879-11.225,2.214-18.4,2.14l-.016-2.485A55.127,55.127,0,0,0,963.122-46.1a.106.106,0,0,0,.019-.028c.464-.565,1.029-4.348,1.14-7.382l6.535-.059-1.164,8.95a1.429,1.429,0,0,1,.149.232c1.062,1.9,1.212,8.176,1.212,8.176" transform="translate(-945.839 53.566)" fill="none" clip-rule="evenodd"/>
    </clipPath>
    <clipPath id="clip-path-147">
      <path id="Path_1306" data-name="Path 1306" d="M967.314-44.615a1.44,1.44,0,0,1,.149.232c-2.3.091-5.313-1.133-6.659-1.741.464-.565,1.028-4.348,1.139-7.382l6.535-.059Z" transform="translate(-960.804 53.565)" fill="none" clip-rule="evenodd"/>
    </clipPath>
    <clipPath id="clip-path-149">
      <path id="Path_1309" data-name="Path 1309" d="M957.567-41.754l-2.009-2.905.934-.645L958.5-42.4Z" transform="translate(-955.558 45.304)" fill="none" clip-rule="evenodd"/>
    </clipPath>
    <clipPath id="clip-path-151">
      <path id="Path_1312" data-name="Path 1312" d="M958.9-42.564l-2.009-2.906.933-.645,2.009,2.905Z" transform="translate(-956.891 46.115)" fill="none" clip-rule="evenodd"/>
    </clipPath>
    <clipPath id="clip-path-153">
      <path id="Path_1315" data-name="Path 1315" d="M960.385-43.353l-2.009-2.905.934-.645L961.318-44Z" transform="translate(-958.376 46.903)" fill="none" clip-rule="evenodd"/>
    </clipPath>
    <clipPath id="clip-path-155">
      <path id="Path_1318" data-name="Path 1318" d="M993.344-127.925s4.836,81.826,3.776,87.878H984.837s-2.776-68.071-5.986-69.585-6.427,69.585-6.427,69.585H960.518l6.381-86.6Z" transform="translate(-960.518 127.925)" fill="none" clip-rule="evenodd"/>
    </clipPath>
    <clipPath id="clip-path-157">
      <path id="Path_1321" data-name="Path 1321" d="M1029.028-201.751,923.873-183.827a1.5,1.5,0,0,1-1.725-1.222l-1.774-10.413a1.5,1.5,0,0,1,1.223-1.725l105.155-17.925a1.5,1.5,0,0,1,1.725,1.223l1.775,10.412a1.5,1.5,0,0,1-1.223,1.726" transform="translate(-920.352 215.133)" fill="none" clip-rule="evenodd"/>
    </clipPath>
    <clipPath id="clip-path-159">
      <path id="Path_1324" data-name="Path 1324" d="M1017.168-201.751l-18.586,3.168-2.276-13.361,18.586-3.168a1.5,1.5,0,0,1,1.725,1.223l1.775,10.412a1.5,1.5,0,0,1-1.223,1.726" transform="translate(-996.306 215.133)" fill="none" clip-rule="evenodd"/>
    </clipPath>
    <clipPath id="clip-path-161">
      <path id="Path_1327" data-name="Path 1327" d="M1006.3-205.545a2.881,2.881,0,0,1-3.324-2.357,2.881,2.881,0,0,1,2.355-3.326,2.882,2.882,0,0,1,3.325,2.357,2.881,2.881,0,0,1-2.356,3.326m6.369.8L1009.505-207a3.99,3.99,0,0,0-1.413-4.687,3.99,3.99,0,0,0-5.561.948,3.99,3.99,0,0,0,.948,5.563,3.986,3.986,0,0,0,4.888-.219l3.169,2.246a.431.431,0,0,0,.6-.1l.638-.9a.434.434,0,0,0-.1-.6" transform="translate(-1001.796 212.417)" fill="none" clip-rule="evenodd"/>
    </clipPath>
    <clipPath id="clip-path-163">
      <path id="Path_1330" data-name="Path 1330" d="M964.727-111.39s1.152-47.33,3.236-49.392a7.392,7.392,0,0,1,4.819-2.041l6.882.419,6.882-.655s3.752,1.995,4.274,4.079,3.276,48.111,3.276,48.111-14.494,5.384-29.369-.521" transform="translate(-964.727 163.059)" fill="none" clip-rule="evenodd"/>
    </clipPath>
    <clipPath id="clip-path-165">
      <path id="Path_1333" data-name="Path 1333" d="M982.951-162.659a16.37,16.37,0,0,1-9.308.06,9.259,9.259,0,0,0,1.011-3.8c.059-.607.088-1.217.1-1.79a28.243,28.243,0,0,0-.125-3.262l6.723-.363.17.947.76,4.346Z" transform="translate(-973.643 171.81)" fill="none" clip-rule="evenodd"/>
    </clipPath>
    <clipPath id="clip-path-167">
      <path id="Path_1336" data-name="Path 1336" d="M982.141-166.644a33.9,33.9,0,0,1-7.624.121c.06-.607.088-1.217.1-1.79,0,0,4.94-.947,6.767-2.678Z" transform="translate(-974.517 170.99)" fill="none" clip-rule="evenodd"/>
    </clipPath>
    <clipPath id="clip-path-169">
      <path id="Path_1339" data-name="Path 1339" d="M970.979-187.956s-5.222,18.237,1.848,21.581c7.421,3.51,12.584-6.511,12.584-6.511l1.7-12.782Z" transform="translate(-969.123 187.956)" fill="none" clip-rule="evenodd"/>
    </clipPath>
    <clipPath id="clip-path-171">
      <path id="Path_1342" data-name="Path 1342" d="M978.41-176.068a2.674,2.674,0,0,1,.187.574,2.5,2.5,0,0,1-.059,1.294,2.4,2.4,0,0,1-.721,1.056,2.489,2.489,0,0,1-.487.331,1.659,1.659,0,0,0,.173-.02,1.884,1.884,0,0,0,.456-.129,1.819,1.819,0,0,0,1.028-1.077,1.92,1.92,0,0,0-.169-1.509,2.078,2.078,0,0,0-.281-.395c-.078-.084-.126-.127-.126-.127" transform="translate(-977.328 176.068)" fill="none" clip-rule="evenodd"/>
    </clipPath>
    <clipPath id="clip-path-173">
      <path id="Path_1345" data-name="Path 1345" d="M970.653-176.05a1.263,1.263,0,0,0,1.57.853,1.263,1.263,0,0,0,.853-1.569,1.264,1.264,0,0,0-1.57-.854,1.264,1.264,0,0,0-.853,1.57" transform="translate(-970.601 177.672)" fill="none" clip-rule="evenodd"/>
    </clipPath>
    <clipPath id="clip-path-175">
      <path id="Path_1348" data-name="Path 1348" d="M989.609-171.347A15.351,15.351,0,0,0,994.1-180.7a9.47,9.47,0,0,0-.787-6.123c-1.063-1.809-3.478-3.019-5.378-2.131a3.294,3.294,0,0,0-1.549-2.263,9.234,9.234,0,0,0-6.657-1.651c-1.76.253-3.7.982-5.2.028-.656-.417-1.082-1.431-.5-1.945a3.219,3.219,0,0,0-1.322,4.4,3.708,3.708,0,0,1-1.478-.636c-.413-.349-.825-.854-.589-1.34a5.812,5.812,0,0,0-2.659,3.839,5.814,5.814,0,0,0,1.076,4.545,7.5,7.5,0,0,0,4.2,2.563,18.094,18.094,0,0,0,4.986.355,48.333,48.333,0,0,1,.118,9.041,4.4,4.4,0,0,1,1.1-1.694,1.5,1.5,0,0,1,1.873-.062,1.916,1.916,0,0,1,.424,1.552,4.9,4.9,0,0,1-.914,2.665A3.075,3.075,0,0,1,978.4-168.3c-.794,4.576,3.95,6.351,4.426,6.546a3.573,3.573,0,0,1,.075-1.87,3.619,3.619,0,0,0,1.93,1.421,2.773,2.773,0,0,1,.466-2.743c1.389-2.107,2.433-4.712,4.308-6.4" transform="translate(-967.89 194.787)" fill="none" clip-rule="evenodd"/>
    </clipPath>
    <clipPath id="clip-path-177">
      <path id="Path_1351" data-name="Path 1351" d="M980.6-183.939s-.184.089-.533.223a8.187,8.187,0,0,1-1.535.4,10.678,10.678,0,0,1-5.224-.517,8.063,8.063,0,0,1-2.615-1.418,5.243,5.243,0,0,1-1.444-2,5,5,0,0,1-.363-1.573,3.9,3.9,0,0,1,0-.58s.06.2.2.533a6.222,6.222,0,0,0,.741,1.3,5.732,5.732,0,0,0,1.536,1.423,11.586,11.586,0,0,0,2.381,1.061,19.8,19.8,0,0,0,4.757,1.108,13.92,13.92,0,0,0,1.525.057l.571-.019" transform="translate(-968.875 189.398)" fill="none" clip-rule="evenodd"/>
    </clipPath>
    <clipPath id="clip-path-179">
      <path id="Path_1354" data-name="Path 1354" d="M983.371-178.441s0,.083-.017.3l-.1-.069a12.708,12.708,0,0,0,.884-1.381,11.747,11.747,0,0,0,.972-2.449c.679-2.307.395-4.533.115-4.406a.712.712,0,0,1,.363.192,2.584,2.584,0,0,1,.592.95,5.559,5.559,0,0,1,.213,3.619,5.7,5.7,0,0,1-1.584,2.625,4.786,4.786,0,0,1-1.477.953l-.172.073.071-.142c.1-.192.141-.262.141-.262" transform="translate(-983.159 186.454)" fill="none" clip-rule="evenodd"/>
    </clipPath>
    <clipPath id="clip-path-181">
      <path id="Path_1357" data-name="Path 1357" d="M984.282-176.466l.373-.322a8.231,8.231,0,0,0,.89-.943,10.019,10.019,0,0,0,1.817-3.612,14.645,14.645,0,0,0,.484-4.092c-.009-.549-.036-1-.061-1.317s-.038-.493-.038-.493.093.151.239.437a8.56,8.56,0,0,1,.517,1.263,8.051,8.051,0,0,1,.142,4.558,6.729,6.729,0,0,1-2.653,3.75,5.376,5.376,0,0,1-1.232.628,4.718,4.718,0,0,1-.478.143" transform="translate(-984.282 187.245)" fill="none" clip-rule="evenodd"/>
    </clipPath>
    <clipPath id="clip-path-183">
      <path id="Path_1360" data-name="Path 1360" d="M983.646-187.24a4.314,4.314,0,0,1-.445.288,6.228,6.228,0,0,1-1.343.576,13.14,13.14,0,0,1-4.735.363,9.732,9.732,0,0,1-2.623-.52,5.649,5.649,0,0,1-1.922-1.145,4.018,4.018,0,0,1-.9-1.182,2.809,2.809,0,0,1-.2-.5,4.425,4.425,0,0,0,.363.372,4.877,4.877,0,0,0,1.118.762,10.815,10.815,0,0,0,4.26.881c1.8.135,3.37.348,4.526.307a9.523,9.523,0,0,0,1.381-.116l.515-.091" transform="translate(-971.483 189.355)" fill="none" clip-rule="evenodd"/>
    </clipPath>
    <clipPath id="clip-path-185">
      <path id="Path_1363" data-name="Path 1363" d="M982.6-189.179a4.2,4.2,0,0,1-.985.6,5.328,5.328,0,0,1-2.745.451,5.336,5.336,0,0,1-2.589-1.019,4.226,4.226,0,0,1-.837-.8l1.1.185c.66.107,1.528.2,2.466.307s1.807.186,2.476.22l1.114.05" transform="translate(-975.449 189.942)" fill="none" clip-rule="evenodd"/>
    </clipPath>
    <clipPath id="clip-path-187">
      <path id="Path_1366" data-name="Path 1366" d="M982.233-189.952s-.253,0-.58-.013a4.063,4.063,0,0,1-1.1-.173,4.026,4.026,0,0,1-.971-.543c-.267-.188-.464-.347-.464-.347a1.756,1.756,0,0,1,.52-.317,1.947,1.947,0,0,1,1.351-.052,1.944,1.944,0,0,1,1.03.875,1.749,1.749,0,0,1,.214.57" transform="translate(-979.118 191.494)" fill="none" clip-rule="evenodd"/>
    </clipPath>
    <clipPath id="clip-path-189">
      <path id="Path_1369" data-name="Path 1369" d="M973.947-163.834l-2.254,1.141s2.246,2.284,7.386,2.019c4.425-.228,6.379-2.255,6.379-2.255l-2.2-.965a21.73,21.73,0,0,1-9.308.06" transform="translate(-971.693 163.894)" fill="none" clip-rule="evenodd"/>
    </clipPath>
    <clipPath id="clip-path-191">
      <path id="Path_1372" data-name="Path 1372" d="M959.742-195.906l-1.064-1.9-1.138-3.305-2.6-.468-2.24,1.954s-3.184.66-3.727,1.924-.113,7.2-.113,7.2l1.661,1.566-.171,1.536-2.657,19.394h6.855l2.059-18.851.227-1.265,3.393-2.721Z" transform="translate(-947.689 201.584)" fill="none" clip-rule="evenodd"/>
    </clipPath>
    <clipPath id="clip-path-193">
      <path id="Path_1375" data-name="Path 1375" d="M957.293-168.312c-1.525-2.428-.4-6.187.55-12.518L947.453-182.1c-.694,5.873-1.937,12.51.09,18.19,2.205,6.179,14.192,14.615,25.123,18.55l2.973-14.493c-9.508.42-15.466-3.878-18.344-8.461" transform="translate(-946.435 182.099)" fill="none" clip-rule="evenodd"/>
    </clipPath>
    <clipPath id="clip-path-195">
      <path id="Path_1378" data-name="Path 1378" d="M995.747-202.242l.826-2.019.73-3.419,2.527-.779,2.459,1.669s3.242.27,3.934,1.459.982,7.132.982,7.132l-1.459,1.755.355,1.5,4.982,18.931-6.8.828-4.323-18.464-.379-1.229-3.7-2.291Z" transform="translate(-995.747 208.459)" fill="none" clip-rule="evenodd"/>
    </clipPath>
    <clipPath id="clip-path-197">
      <path id="Path_1381" data-name="Path 1381" d="M1003.97-175.044c1.22-2.594-.348-6.19-2.058-12.36l10.16-2.515c1.4,5.746,3.435,12.183,2.109,18.068-1.442,6.4-16.454,20.434-26.829,25.663L983.6-158.866c9.28-1.856,18.068-11.28,20.37-16.179" transform="translate(-983.599 189.919)" fill="none" clip-rule="evenodd"/>
    </clipPath>
    <clipPath id="clip-path-199">
      <path id="Path_1384" data-name="Path 1384" d="M954.9-5.925a466,466,0,0,1-53.479,3.091,466.02,466.02,0,0,1-53.479-3.091,464.26,464.26,0,0,1,106.959,0" transform="translate(-847.938 9.016)" fill="none" clip-rule="evenodd"/>
    </clipPath>
    <clipPath id="clip-path-201">
      <path id="Path_1387" data-name="Path 1387" d="M895.086-117.41l8-11.9,8.781-3.047.181,1.5-5.158,3.309,5.746,1.56,6.4-5.013,1.073,1.154-6.67,6.6-8.765-.7-4.019,7.9Z" transform="translate(-895.086 132.354)" fill="none" clip-rule="evenodd"/>
    </clipPath>
    <clipPath id="clip-path-203">
      <path id="Path_1390" data-name="Path 1390" d="M876.533-135.932s-13.806,27.943-8.6,36.019,20.641,2.782,20.641,2.782Z" transform="translate(-866.762 135.932)" fill="none" clip-rule="evenodd"/>
    </clipPath>
    <clipPath id="clip-path-205">
      <path id="Path_1393" data-name="Path 1393" d="M905.981-5.843v2.65H889.86l.836-7.886.32-3.025,1.313-12.475h6.142s-.352,7.042-.234,12.091a23.734,23.734,0,0,0,.352,4.275c.023.071.038.133.054.188.852,2.9,7.338,4.182,7.338,4.182" transform="translate(-889.86 26.579)" fill="none" clip-rule="evenodd"/>
    </clipPath>
    <clipPath id="clip-path-207">
      <path id="Path_1396" data-name="Path 1396" d="M905.981-7.476v2.65H889.86l.836-7.886.32-3.025a3.11,3.11,0,0,0,.5.164,11.057,11.057,0,0,0,6.72-.548,23.734,23.734,0,0,0,.352,4.275c.023.071.038.133.054.188.852,2.9,7.338,4.182,7.338,4.182" transform="translate(-889.86 16.121)" fill="none" clip-rule="evenodd"/>
    </clipPath>
    <clipPath id="clip-path-209">
      <path id="Path_1399" data-name="Path 1399" d="M905.981-7.936v2.65H889.86l.836-7.886c.062.031.117.07.18.1a9.5,9.5,0,0,0,3.946,1.243,9.346,9.346,0,0,0,3.767-.478c.023.071.038.133.054.188.852,2.9,7.338,4.182,7.338,4.182" transform="translate(-889.86 13.173)" fill="none" clip-rule="evenodd"/>
    </clipPath>
    <clipPath id="clip-path-211">
      <path id="Path_1402" data-name="Path 1402" d="M891.618-5.843v2.65H875.5l.836-7.886.32-3.025,1.313-12.475h6.142s-.351,7.042-.234,12.091a23.734,23.734,0,0,0,.352,4.275c.023.071.038.133.054.188.852,2.9,7.338,4.182,7.338,4.182" transform="translate(-875.497 26.579)" fill="none" clip-rule="evenodd"/>
    </clipPath>
    <clipPath id="clip-path-213">
      <path id="Path_1405" data-name="Path 1405" d="M891.618-7.476v2.65H875.5l.836-7.886.32-3.025a3.106,3.106,0,0,0,.5.164,11.057,11.057,0,0,0,6.72-.548,23.734,23.734,0,0,0,.352,4.275c.023.071.038.133.054.188.852,2.9,7.338,4.182,7.338,4.182" transform="translate(-875.497 16.121)" fill="none" clip-rule="evenodd"/>
    </clipPath>
    <clipPath id="clip-path-215">
      <path id="Path_1408" data-name="Path 1408" d="M891.618-7.936v2.65H875.5l.836-7.886c.063.031.117.07.18.1a9.5,9.5,0,0,0,3.946,1.243,9.346,9.346,0,0,0,3.767-.478c.023.071.038.133.054.188.852,2.9,7.338,4.182,7.338,4.182" transform="translate(-875.497 13.173)" fill="none" clip-rule="evenodd"/>
    </clipPath>
    <clipPath id="clip-path-217">
      <path id="Path_1411" data-name="Path 1411" d="M898.349-96.183s2.658-40.583.329-42.364a6.7,6.7,0,0,0-5.994-.907l-6.882.419-2.623-.655s-5.64.938-7.477,4.361c-1.016,1.893-3.621,39.714-3.621,39.714s11.393,5.337,26.268-.569" transform="translate(-872.081 139.795)" fill="none" clip-rule="evenodd"/>
    </clipPath>
    <clipPath id="clip-path-219">
      <path id="Path_1414" data-name="Path 1414" d="M883.586-139.3a16.37,16.37,0,0,0,9.308.06,9.282,9.282,0,0,1-1.01-3.8c-.059-.607-.088-1.217-.1-1.79a28.241,28.241,0,0,1,.125-3.262l-6.723-.363-.17.947-.76,4.347Z" transform="translate(-883.586 148.454)" fill="none" clip-rule="evenodd"/>
    </clipPath>
    <clipPath id="clip-path-221">
      <path id="Path_1417" data-name="Path 1417" d="M884.168-143.288a33.918,33.918,0,0,0,7.625.121c-.059-.607-.088-1.217-.1-1.79,0,0-4.94-.947-6.767-2.679Z" transform="translate(-884.168 147.636)" fill="none" clip-rule="evenodd"/>
    </clipPath>
    <clipPath id="clip-path-223">
      <path id="Path_1420" data-name="Path 1420" d="M900.394-161.746s.146,18.97-7.561,20.3c-8.089,1.393-10.38-9.645-10.38-9.645l1.79-12.768Z" transform="translate(-882.453 163.863)" fill="none" clip-rule="evenodd"/>
    </clipPath>
    <clipPath id="clip-path-225">
      <path id="Path_1423" data-name="Path 1423" d="M895.235-150.489a1.264,1.264,0,0,1-1.741.4,1.263,1.263,0,0,1-.4-1.741,1.263,1.263,0,0,1,1.74-.4,1.263,1.263,0,0,1,.4,1.741" transform="translate(-892.901 152.423)" fill="none" clip-rule="evenodd"/>
    </clipPath>
    <clipPath id="clip-path-227">
      <path id="Path_1426" data-name="Path 1426" d="M893.191-140.479l2.254,1.141s-2.246,2.284-7.385,2.019c-4.425-.227-6.379-2.255-6.379-2.255l2.2-.965a21.729,21.729,0,0,0,9.308.06" transform="translate(-881.681 140.539)" fill="none" clip-rule="evenodd"/>
    </clipPath>
    <clipPath id="clip-path-229">
      <path id="Path_1429" data-name="Path 1429" d="M876.063-49.437l1.032,41.679h8.737c.1-9.683,2.324-43.25,2.324-43.25s-5.619-31.7-1.692-32.306c1.692-.26,6.987,31.981,6.987,31.981l-.406,43.575H902.7L906.515-50.9l-7.757-51.176-26.268.569s-3.161,11.033-3.021,14.412c.175,4.23,6.595,37.655,6.595,37.655" transform="translate(-869.464 102.073)" fill="none" clip-rule="evenodd"/>
    </clipPath>
    <clipPath id="clip-path-231">
      <path id="Path_1432" data-name="Path 1432" d="M874.284-22.608l.488,4.983,11.429-.684v-3.42Z" transform="translate(-874.284 22.608)" fill="none" clip-rule="evenodd"/>
    </clipPath>
    <clipPath id="clip-path-233">
      <path id="Path_1435" data-name="Path 1435" d="M934.341-123.31h-24.36a3.452,3.452,0,0,1-3.451-3.452v-24.365a3.452,3.452,0,0,1,3.451-3.452h24.36a3.452,3.452,0,0,1,3.452,3.452v24.365a3.452,3.452,0,0,1-3.452,3.452" transform="translate(-906.53 154.58)" fill="none" clip-rule="evenodd"/>
    </clipPath>
    <clipPath id="clip-path-235">
      <path id="Path_1438" data-name="Path 1438" d="M923.182-140.359a4.838,4.838,0,0,0,2.905-4.436,4.84,4.84,0,0,0-4.839-4.84,4.84,4.84,0,0,0-4.839,4.84,4.839,4.839,0,0,0,2.906,4.436,8.879,8.879,0,0,0-6.945,8.663v.533h17.757v-.533a8.88,8.88,0,0,0-6.945-8.663" transform="translate(-912.371 149.635)" fill="none" clip-rule="evenodd"/>
    </clipPath>
    <clipPath id="clip-path-237">
      <path id="Path_1441" data-name="Path 1441" d="M900.958-23.171l-.488,4.983-11.428-.684v-3.42Z" transform="translate(-889.041 23.171)" fill="none" clip-rule="evenodd"/>
    </clipPath>
    <clipPath id="clip-path-239">
      <path id="Path_1444" data-name="Path 1444" d="M914.264-117.18l8-11.9,8.781-3.047.181,1.5-5.158,3.309,5.747,1.559,6.4-5.013,1.073,1.154-6.67,6.6-8.765-.7-4.019,7.9Z" transform="translate(-914.264 132.125)" fill="none" clip-rule="evenodd"/>
    </clipPath>
    <clipPath id="clip-path-241">
      <path id="Path_1447" data-name="Path 1447" d="M894.148-139.307s5.436,2.316,6.948,7.989,6.805,22.785,7.939,23.162,8.7-12.1,8.7-12.1l8.7,6.051s-7.94,19.141-17.393,20.233c-6.225.719-11.693-15.272-14.7-26.278a37.41,37.41,0,0,1-.185-19.056" transform="translate(-893.005 139.307)" fill="none" clip-rule="evenodd"/>
    </clipPath>
    <clipPath id="clip-path-243">
      <path id="Path_1450" data-name="Path 1450" d="M911.965-119.633l2.658-4.3,10.139,7.523-1.294,1.954Z" transform="translate(-911.965 123.931)" fill="none" clip-rule="evenodd"/>
    </clipPath>
    <clipPath id="clip-path-245">
      <path id="Path_1453" data-name="Path 1453" d="M902.214-157.58c.084-.228,0-.832.086-1.06a9.143,9.143,0,0,0-7.156,7.489,9.142,9.142,0,0,0,4.777,9.191c-5.458.6-11.07.789-16.352-.709s-11.067-4.92-13.37-9.906a3.23,3.23,0,0,0,2.882-.636c3.265-3.233,4.289-8.013,5.969-12.29a10.35,10.35,0,0,1,2.7-4.292,4.3,4.3,0,0,1,4.758-.708c1.093-1.247,3.376-1.573,5.031-1.49a14.35,14.35,0,0,1,12.575,9.575,5.482,5.482,0,0,1,.31,2.84,2.971,2.971,0,0,1-2.215,2" transform="translate(-870.2 172.003)" fill="none" clip-rule="evenodd"/>
    </clipPath>
    <clipPath id="clip-path-247">
      <path id="Path_1456" data-name="Path 1456" d="M874.43-152.466s.073,0,.208-.012a2.082,2.082,0,0,0,.564-.136,3.059,3.059,0,0,0,1.5-1.353,16.609,16.609,0,0,0,1.143-2.947c.391-1.158.846-2.418,1.365-3.725s1.049-2.521,1.545-3.674a8.307,8.307,0,0,1,1.9-2.815,4.439,4.439,0,0,1,2.01-1.08,3.175,3.175,0,0,1,.606-.075l.21,0-.2.055a3.536,3.536,0,0,0-.548.216,4.562,4.562,0,0,0-1.592,1.339A9.275,9.275,0,0,0,881.8-163.9c-.356,1.14-.827,2.429-1.348,3.742s-1.059,2.559-1.569,3.676a12.274,12.274,0,0,1-1.643,2.908,3.221,3.221,0,0,1-1.984,1.161,2.032,2.032,0,0,1-.617-.009,1.952,1.952,0,0,1-.205-.045" transform="translate(-874.43 168.283)" fill="none" clip-rule="evenodd"/>
    </clipPath>
    <clipPath id="clip-path-249">
      <path id="Path_1459" data-name="Path 1459" d="M898.349-166.18a3.3,3.3,0,0,0-1.092-.592,25.069,25.069,0,0,0-3.2-1.139,6.121,6.121,0,0,0-4.579.385,10.913,10.913,0,0,0-3.82,4.332,33.276,33.276,0,0,0-1.955,5.754,21.4,21.4,0,0,1-1.872,4.821,11.073,11.073,0,0,1-2.187,2.717,10.009,10.009,0,0,1-.981.8s.322-.317.83-.943a12.109,12.109,0,0,0,1.743-2.874,25.846,25.846,0,0,0,1.378-4.8,25.449,25.449,0,0,1,1.855-6.078,11.268,11.268,0,0,1,1.953-2.779,9.75,9.75,0,0,1,2.526-1.945,5.675,5.675,0,0,1,2.89-.566,8.163,8.163,0,0,1,2.419.535,19.846,19.846,0,0,1,3.089,1.587,4.608,4.608,0,0,1,.775.538,1.669,1.669,0,0,1,.223.241" transform="translate(-878.668 169.092)" fill="none" clip-rule="evenodd"/>
    </clipPath>
    <clipPath id="clip-path-251">
      <path id="Path_1462" data-name="Path 1462" d="M897.358-164.57l-.231-.133a3.594,3.594,0,0,0-.7-.27,6.962,6.962,0,0,0-2.716-.036,5.537,5.537,0,0,0-3.5,1.331,10.208,10.208,0,0,0-1.329,1.874,16.741,16.741,0,0,0-1.1,2.271,22.836,22.836,0,0,0-1.207,4.786,17.846,17.846,0,0,1-1.1,4.1,8.048,8.048,0,0,1-1.586,2.4,6.477,6.477,0,0,1-.77.7,8.4,8.4,0,0,0,.607-.828,8.806,8.806,0,0,0,1.123-2.493,23.019,23.019,0,0,0,.614-4.03,17.8,17.8,0,0,1,1.081-5.122,14.24,14.24,0,0,1,1.254-2.447,9.767,9.767,0,0,1,1.645-2.025,4.418,4.418,0,0,1,2.229-1.051,11.282,11.282,0,0,1,2-.127,6.613,6.613,0,0,1,2.83.505,3.419,3.419,0,0,1,.659.418l.2.18" transform="translate(-883.113 165.674)" fill="none" clip-rule="evenodd"/>
    </clipPath>
    <clipPath id="clip-path-253">
      <path id="Path_1465" data-name="Path 1465" d="M896.7-162.658l-.187.045c-.122.025-.3.075-.523.145a6.983,6.983,0,0,0-1.742.856,8.373,8.373,0,0,0-2.008,1.938,10.729,10.729,0,0,0-1.521,3.026,18.423,18.423,0,0,0-.75,3.4,13.9,13.9,0,0,1-.62,2.974,13.745,13.745,0,0,1-.872,1.845l-.37.643.177-.72c.112-.461.288-1.127.422-1.941a21.9,21.9,0,0,0,.145-2.9,12.634,12.634,0,0,1,.606-3.721,9.034,9.034,0,0,1,1.925-3.327,7.494,7.494,0,0,1,2.555-1.8,6.05,6.05,0,0,1,2.018-.473,4.657,4.657,0,0,1,.556,0l.191.012" transform="translate(-888.102 162.679)" fill="none" clip-rule="evenodd"/>
    </clipPath>
    <clipPath id="clip-path-255">
      <path id="Path_1468" data-name="Path 1468" d="M1009.41-96.874h54.7v-37.678h-54.7Z" transform="translate(-1009.41 134.551)" fill="none" clip-rule="evenodd"/>
    </clipPath>
    <clipPath id="clip-path-257">
      <path id="Path_1471" data-name="Path 1471" d="M1015.212-105.215H1056.5V-128.2h-41.286Z" transform="translate(-1015.212 128.197)" fill="none" clip-rule="evenodd"/>
    </clipPath>
    <clipPath id="clip-path-259">
      <path id="Path_1474" data-name="Path 1474" d="M1021.126-111.223h27.611v-12.394h-27.611Z" transform="translate(-1021.126 123.617)" fill="none" clip-rule="evenodd"/>
    </clipPath>
  </defs>
  <g id="Group_4433" data-name="Group 4433" transform="translate(-97.817 -4753.676)">
    <g id="Group_4427" data-name="Group 4427" transform="translate(97.817 4753.676)">
      <g id="Group_3024" data-name="Group 3024" transform="translate(13.882 201.773)" clip-path="url(#clip-path)">
        <g id="Group_3023" data-name="Group 3023" transform="translate(-47.41 -387.536)" clip-path="url(#clip-path-2)">
          <path id="Path_1085" data-name="Path 1085" d="M772.008-69.8H1123.3V-2.386H772.008Z" transform="translate(-730.378 451.556)" fill="#00c585"/>
        </g>
      </g>
      <g id="Group_3026" data-name="Group 3026" transform="translate(92.922 0)" clip-path="url(#clip-path-3)">
        <g id="Group_3025" data-name="Group 3025" transform="translate(-126.45 -185.763)" clip-path="url(#clip-path-2)">
          <path id="Path_1088" data-name="Path 1088" d="M840.373-244.324h166.286V19.438H840.373Z" transform="translate(-719.704 424.306)" fill="#fff"/>
        </g>
      </g>
      <g id="Group_3028" data-name="Group 3028" transform="translate(158.465 222.239)" clip-path="url(#clip-path-5)">
        <g id="Group_3027" data-name="Group 3027" transform="translate(-191.993 -408.002)" clip-path="url(#clip-path-2)">
          <path id="Path_1091" data-name="Path 1091" d="M897.064-52.1h35.2v35.205h-35.2Z" transform="translate(-710.852 454.32)" fill="#d2d2d2"/>
        </g>
      </g>
      <g id="Group_3030" data-name="Group 3030" transform="translate(157.618 11.985)" clip-path="url(#clip-path-7)">
        <g id="Group_3029" data-name="Group 3029" transform="translate(-191.146 -197.748)" clip-path="url(#clip-path-2)">
          <path id="Path_1094" data-name="Path 1094" d="M896.332-233.957h43.6v15.079h-43.6Z" transform="translate(-710.967 425.925)" fill="#d2d2d2"/>
        </g>
      </g>
      <g id="Group_3032" data-name="Group 3032" transform="translate(150.911 11.985)" clip-path="url(#clip-path-9)">
        <g id="Group_3031" data-name="Group 3031" transform="translate(-184.439 -197.748)" clip-path="url(#clip-path-2)">
          <path id="Path_1097" data-name="Path 1097" d="M890.531-233.957h15.078v15.079H890.531Z" transform="translate(-711.872 425.925)" fill="#d2d2d2"/>
        </g>
      </g>
      <g id="Group_3034" data-name="Group 3034" transform="translate(89.405 31.721)" clip-path="url(#clip-path-11)">
        <g id="Group_3033" data-name="Group 3033" transform="translate(-122.933 -217.484)" clip-path="url(#clip-path-2)">
          <path id="Path_1100" data-name="Path 1100" d="M837.331-216.887h15.078v29.148H837.331Z" transform="translate(-720.179 428.59)" fill="#d2d2d2"/>
        </g>
      </g>
      <g id="Group_3036" data-name="Group 3036" transform="translate(247.646 31.721)" clip-path="url(#clip-path-13)">
        <g id="Group_3035" data-name="Group 3035" transform="translate(-281.174 -217.484)" clip-path="url(#clip-path-2)">
          <path id="Path_1103" data-name="Path 1103" d="M974.2-216.887H989.28v29.148H974.2Z" transform="translate(-698.808 428.59)" fill="#d2d2d2"/>
        </g>
      </g>
      <g id="Group_3038" data-name="Group 3038" transform="translate(247.646 65.591)" clip-path="url(#clip-path-15)">
        <g id="Group_3037" data-name="Group 3037" transform="translate(-281.174 -251.354)" clip-path="url(#clip-path-2)">
          <path id="Path_1106" data-name="Path 1106" d="M974.2-187.591H989.28v29.148H974.2Z" transform="translate(-698.808 433.164)" fill="#d2d2d2"/>
        </g>
      </g>
      <g id="Group_3040" data-name="Group 3040" transform="translate(104.838 24.23)" clip-path="url(#clip-path-17)">
        <g id="Group_3039" data-name="Group 3039" transform="translate(-138.366 -209.993)" clip-path="url(#clip-path-2)">
          <path id="Path_1109" data-name="Path 1109" d="M850.68-223.366H993.523V-21.389H850.68Z" transform="translate(-718.094 427.579)" fill="#0074e3"/>
        </g>
      </g>
      <g id="Group_3042" data-name="Group 3042" transform="translate(115.649 81.809)" clip-path="url(#clip-path-19)">
        <g id="Group_3041" data-name="Group 3041" transform="translate(-149.176 -267.572)" clip-path="url(#clip-path-2)">
          <path id="Path_1112" data-name="Path 1112" d="M860.03-173.563h42.824v42.831H860.03Z" transform="translate(-716.635 435.355)" fill="#ff7979"/>
        </g>
      </g>
      <g id="Group_3044" data-name="Group 3044" transform="translate(154.848 81.809)" clip-path="url(#clip-path-21)">
        <g id="Group_3043" data-name="Group 3043" transform="translate(-188.376 -267.572)" clip-path="url(#clip-path-2)">
          <path id="Path_1115" data-name="Path 1115" d="M893.936-173.563h42.824v42.831H893.936Z" transform="translate(-711.341 435.355)" fill="#00de91"/>
        </g>
      </g>
      <g id="Group_3046" data-name="Group 3046" transform="translate(194.048 81.809)" clip-path="url(#clip-path-23)">
        <g id="Group_3045" data-name="Group 3045" transform="translate(-227.576 -267.572)" clip-path="url(#clip-path-2)">
          <path id="Path_1118" data-name="Path 1118" d="M927.842-173.563h42.824v42.831H927.842Z" transform="translate(-706.047 435.355)" fill="#3a4182"/>
        </g>
      </g>
      <g id="Group_3048" data-name="Group 3048" transform="translate(159.858 89.485)" clip-path="url(#clip-path-25)">
        <g id="Group_3047" data-name="Group 3047" transform="translate(-193.386 -275.248)" clip-path="url(#clip-path-2)">
          <path id="Path_1121" data-name="Path 1121" d="M898.27-166.924h32.9v18.475h-32.9Z" transform="translate(-710.664 436.391)" fill="#fff"/>
        </g>
      </g>
      <g id="Group_3050" data-name="Group 3050" transform="translate(159.732 92.816)" clip-path="url(#clip-path-27)">
        <g id="Group_3049" data-name="Group 3049" transform="translate(-193.26 -278.579)" clip-path="url(#clip-path-2)">
          <path id="Path_1124" data-name="Path 1124" d="M898.161-164.043h33.056v24.148H898.161Z" transform="translate(-710.681 436.841)" fill="#fff"/>
        </g>
      </g>
      <g id="Group_3052" data-name="Group 3052" transform="translate(120.469 86.263)" clip-path="url(#clip-path-29)">
        <g id="Group_3051" data-name="Group 3051" transform="translate(-153.997 -272.026)" clip-path="url(#clip-path-2)">
          <path id="Path_1127" data-name="Path 1127" d="M864.2-169.711h33.184v33.924H864.2Z" transform="translate(-715.984 435.956)" fill="#fff"/>
        </g>
      </g>
      <g id="Group_3054" data-name="Group 3054" transform="translate(115.648 125.579)" clip-path="url(#clip-path-31)">
        <g id="Group_3053" data-name="Group 3053" transform="translate(-149.176 -311.342)" clip-path="url(#clip-path-2)">
          <path id="Path_1130" data-name="Path 1130" d="M860.03-135.7h42.824v42.831H860.03Z" transform="translate(-716.635 441.266)" fill="#3a4182"/>
        </g>
      </g>
      <g id="Group_3056" data-name="Group 3056" transform="translate(154.848 125.579)" clip-path="url(#clip-path-33)">
        <g id="Group_3055" data-name="Group 3055" transform="translate(-188.376 -311.342)" clip-path="url(#clip-path-2)">
          <path id="Path_1133" data-name="Path 1133" d="M893.936-135.7H936.76v42.831H893.936Z" transform="translate(-711.341 441.266)" fill="#3a4182"/>
        </g>
      </g>
      <g id="Group_3058" data-name="Group 3058" transform="translate(194.048 125.579)" clip-path="url(#clip-path-35)">
        <g id="Group_3057" data-name="Group 3057" transform="translate(-227.576 -311.342)" clip-path="url(#clip-path-2)">
          <path id="Path_1136" data-name="Path 1136" d="M927.842-135.7h42.824v42.831H927.842Z" transform="translate(-706.047 441.266)" fill="#3a4182"/>
        </g>
      </g>
      <g id="Group_3060" data-name="Group 3060" transform="translate(115.648 169.35)" clip-path="url(#clip-path-37)">
        <g id="Group_3059" data-name="Group 3059" transform="translate(-149.176 -355.113)" clip-path="url(#clip-path-2)">
          <path id="Path_1139" data-name="Path 1139" d="M860.03-97.845h42.824v42.831H860.03Z" transform="translate(-716.635 447.177)" fill="#3a4182"/>
        </g>
      </g>
      <g id="Group_3062" data-name="Group 3062" transform="translate(154.848 169.35)" clip-path="url(#clip-path-39)">
        <g id="Group_3061" data-name="Group 3061" transform="translate(-188.376 -355.113)" clip-path="url(#clip-path-2)">
          <path id="Path_1142" data-name="Path 1142" d="M893.936-97.845H936.76v42.831H893.936Z" transform="translate(-711.341 447.177)" fill="#3a4182"/>
        </g>
      </g>
      <g id="Group_3064" data-name="Group 3064" transform="translate(194.048 169.35)" clip-path="url(#clip-path-41)">
        <g id="Group_3063" data-name="Group 3063" transform="translate(-227.576 -355.113)" clip-path="url(#clip-path-2)">
          <path id="Path_1145" data-name="Path 1145" d="M927.842-97.845h42.824v42.831H927.842Z" transform="translate(-706.047 447.177)" fill="#3a4182"/>
        </g>
      </g>
      <g id="Group_3066" data-name="Group 3066" transform="translate(115.649 34.441)" clip-path="url(#clip-path-43)">
        <g id="Group_3065" data-name="Group 3065" transform="translate(-149.177 -220.204)" clip-path="url(#clip-path-2)">
          <path id="Path_1148" data-name="Path 1148" d="M860.031-214.534h24.846v24.849H860.031Z" transform="translate(-716.635 428.958)" fill="#ff7192"/>
        </g>
      </g>
      <g id="Group_3068" data-name="Group 3068" transform="translate(117.749 36.933)" clip-path="url(#clip-path-45)">
        <g id="Group_3067" data-name="Group 3067" transform="translate(-151.277 -222.696)" clip-path="url(#clip-path-2)">
          <path id="Path_1151" data-name="Path 1151" d="M861.847-212.379h20.646v13.418H861.847Z" transform="translate(-716.351 429.294)" fill="#fff"/>
        </g>
      </g>
      <g id="Group_3070" data-name="Group 3070" transform="translate(117.749 40.157)" clip-path="url(#clip-path-47)">
        <g id="Group_3069" data-name="Group 3069" transform="translate(-151.277 -225.92)" clip-path="url(#clip-path-2)">
          <path id="Path_1154" data-name="Path 1154" d="M861.847-209.59h20.646v13.418H861.847Z" transform="translate(-716.351 429.73)" fill="#fff"/>
        </g>
      </g>
      <g id="Group_3072" data-name="Group 3072" transform="translate(117.749 43.381)" clip-path="url(#clip-path-49)">
        <g id="Group_3071" data-name="Group 3071" transform="translate(-151.277 -229.144)" clip-path="url(#clip-path-2)">
          <path id="Path_1157" data-name="Path 1157" d="M861.847-206.8h20.646v13.418H861.847Z" transform="translate(-716.351 430.165)" fill="#fff"/>
        </g>
      </g>
      <g id="Group_3074" data-name="Group 3074" transform="translate(202.429 34.441)" clip-path="url(#clip-path-51)">
        <g id="Group_3073" data-name="Group 3073" transform="translate(-235.957 -220.204)" clip-path="url(#clip-path-2)">
          <path id="Path_1160" data-name="Path 1160" d="M935.091-214.534h34.442v24.849H935.091Z" transform="translate(-704.915 428.958)" fill="#ff7192"/>
        </g>
      </g>
      <g id="Group_3076" data-name="Group 3076" transform="translate(211.472 37.196)" clip-path="url(#clip-path-53)">
        <g id="Group_3075" data-name="Group 3075" transform="translate(-245 -222.959)" clip-path="url(#clip-path-2)">
          <path id="Path_1163" data-name="Path 1163" d="M942.913-212.152h19.338v19.34H942.913Z" transform="translate(-703.694 429.33)" fill="#fff"/>
        </g>
      </g>
      <g id="Group_3078" data-name="Group 3078" transform="translate(5.939 266.267)" clip-path="url(#clip-path-55)">
        <g id="Group_3077" data-name="Group 3077" transform="translate(-39.467 -452.03)" clip-path="url(#clip-path-2)">
          <path id="Path_1166" data-name="Path 1166" d="M765.137-14.016h118.52V3.727H765.137Z" transform="translate(-731.451 460.266)" fill="#d2d2d2"/>
        </g>
      </g>
      <g id="Group_3080" data-name="Group 3080" transform="translate(92.537 128.451)" clip-path="url(#clip-path-57)">
        <g id="Group_3079" data-name="Group 3079" transform="translate(-126.065 -314.214)" clip-path="url(#clip-path-2)">
          <path id="Path_1169" data-name="Path 1169" d="M840.04-133.22h27.249v29.786H840.04Z" transform="translate(-719.756 441.654)" fill="#ffdfc4"/>
        </g>
      </g>
      <g id="Group_3082" data-name="Group 3082" transform="translate(68.134 120.17)" clip-path="url(#clip-path-59)">
        <g id="Group_3081" data-name="Group 3081" transform="translate(-101.662 -305.933)" clip-path="url(#clip-path-2)">
          <path id="Path_1172" data-name="Path 1172" d="M818.933-140.383h43.841v56.931H818.933Z" transform="translate(-723.051 440.535)" fill="#d0d0dd"/>
        </g>
      </g>
      <g id="Group_3084" data-name="Group 3084" transform="translate(65.491 250.196)" clip-path="url(#clip-path-61)">
        <g id="Group_3083" data-name="Group 3083" transform="translate(-99.019 -435.959)" clip-path="url(#clip-path-2)">
          <path id="Path_1175" data-name="Path 1175" d="M816.646-27.917h36.832V2.807H816.646Z" transform="translate(-723.408 458.095)" fill="#5e4841"/>
        </g>
      </g>
      <g id="Group_3086" data-name="Group 3086" transform="translate(66.841 250.196)" clip-path="url(#clip-path-63)">
        <g id="Group_3085" data-name="Group 3085" transform="translate(-100.368 -435.96)" clip-path="url(#clip-path-2)">
          <path id="Path_1178" data-name="Path 1178" d="M817.814-27.916h18.724V-7.089H817.814Z" transform="translate(-723.226 458.095)" fill="#fff"/>
        </g>
      </g>
      <g id="Group_3088" data-name="Group 3088" transform="translate(76.786 260.578)" clip-path="url(#clip-path-65)">
        <g id="Group_3087" data-name="Group 3087" transform="translate(-110.314 -446.341)" clip-path="url(#clip-path-2)">
          <path id="Path_1181" data-name="Path 1181" d="M826.417-18.937h14.647V-3.9H826.417Z" transform="translate(-721.883 459.497)" fill="#fff"/>
        </g>
      </g>
      <g id="Group_3090" data-name="Group 3090" transform="translate(75.311 259.54)" clip-path="url(#clip-path-67)">
        <g id="Group_3089" data-name="Group 3089" transform="translate(-108.839 -445.303)" clip-path="url(#clip-path-2)">
          <path id="Path_1184" data-name="Path 1184" d="M825.141-19.835h14.648V-4.8H825.141Z" transform="translate(-722.082 459.357)" fill="#fff"/>
        </g>
      </g>
      <g id="Group_3092" data-name="Group 3092" transform="translate(73.658 258.516)" clip-path="url(#clip-path-69)">
        <g id="Group_3091" data-name="Group 3091" transform="translate(-107.186 -444.279)" clip-path="url(#clip-path-2)">
          <path id="Path_1187" data-name="Path 1187" d="M823.711-20.72h14.648V-5.688H823.711Z" transform="translate(-722.305 459.219)" fill="#fff"/>
        </g>
      </g>
      <g id="Group_3094" data-name="Group 3094" transform="translate(27.016 250.196)" clip-path="url(#clip-path-71)">
        <g id="Group_3093" data-name="Group 3093" transform="translate(-60.544 -435.959)" clip-path="url(#clip-path-2)">
          <path id="Path_1190" data-name="Path 1190" d="M783.368-27.917H820.2V2.807H783.368Z" transform="translate(-728.604 458.095)" fill="#5e4841"/>
        </g>
      </g>
      <g id="Group_3096" data-name="Group 3096" transform="translate(43.774 250.196)" clip-path="url(#clip-path-73)">
        <g id="Group_3095" data-name="Group 3095" transform="translate(-77.302 -435.96)" clip-path="url(#clip-path-2)">
          <path id="Path_1193" data-name="Path 1193" d="M797.863-27.916h18.725V-7.089H797.863Z" transform="translate(-726.341 458.095)" fill="#fff"/>
        </g>
      </g>
      <g id="Group_3098" data-name="Group 3098" transform="translate(37.905 260.578)" clip-path="url(#clip-path-75)">
        <g id="Group_3097" data-name="Group 3097" transform="translate(-71.433 -446.341)" clip-path="url(#clip-path-2)">
          <path id="Path_1196" data-name="Path 1196" d="M792.786-18.937h14.648V-3.9H792.786Z" transform="translate(-727.134 459.497)" fill="#fff"/>
        </g>
      </g>
      <g id="Group_3100" data-name="Group 3100" transform="translate(39.38 259.54)" clip-path="url(#clip-path-77)">
        <g id="Group_3099" data-name="Group 3099" transform="translate(-72.908 -445.303)" clip-path="url(#clip-path-2)">
          <path id="Path_1199" data-name="Path 1199" d="M794.062-19.835H808.71V-4.8H794.062Z" transform="translate(-726.935 459.357)" fill="#fff"/>
        </g>
      </g>
      <g id="Group_3102" data-name="Group 3102" transform="translate(41.033 258.516)" clip-path="url(#clip-path-79)">
        <g id="Group_3101" data-name="Group 3101" transform="translate(-74.561 -444.279)" clip-path="url(#clip-path-2)">
          <path id="Path_1202" data-name="Path 1202" d="M795.492-20.72H810.14V-5.688H795.492Z" transform="translate(-726.711 459.219)" fill="#fff"/>
        </g>
      </g>
      <g id="Group_3104" data-name="Group 3104" transform="translate(39.651 164.794)" clip-path="url(#clip-path-81)">
        <g id="Group_3103" data-name="Group 3103" transform="translate(-73.179 -350.557)" clip-path="url(#clip-path-2)">
          <path id="Path_1205" data-name="Path 1205" d="M794.3-101.785h48.316V-2.346H794.3Z" transform="translate(-726.898 446.562)" fill="#0074e3"/>
        </g>
      </g>
      <g id="Group_3106" data-name="Group 3106" transform="translate(43.136 118.471)" clip-path="url(#clip-path-83)">
        <g id="Group_3105" data-name="Group 3105" transform="translate(-76.664 -304.234)" clip-path="url(#clip-path-2)">
          <path id="Path_1208" data-name="Path 1208" d="M797.311-141.852H835.76v61.079H797.311Z" transform="translate(-726.427 440.306)" fill="#dddde9"/>
        </g>
      </g>
      <g id="Group_3108" data-name="Group 3108" transform="translate(36.006 133.365)" clip-path="url(#clip-path-85)">
        <g id="Group_3107" data-name="Group 3107" transform="translate(-69.534 -319.128)" clip-path="url(#clip-path-2)">
          <path id="Path_1211" data-name="Path 1211" d="M791.144-128.969h39.972v40.2H791.144Z" transform="translate(-727.39 442.317)" fill="#232043"/>
        </g>
      </g>
      <g id="Group_3110" data-name="Group 3110" transform="translate(47.05 134.877)" clip-path="url(#clip-path-87)">
        <g id="Group_3109" data-name="Group 3109" transform="translate(-80.578 -320.64)" clip-path="url(#clip-path-2)">
          <path id="Path_1214" data-name="Path 1214" d="M800.7-127.662h23.93v25.452H800.7Z" transform="translate(-725.899 442.521)" fill="#ffdfc4"/>
        </g>
      </g>
      <g id="Group_3112" data-name="Group 3112" transform="translate(26.47 121.402)" clip-path="url(#clip-path-89)">
        <g id="Group_3111" data-name="Group 3111" transform="translate(-59.997 -307.165)" clip-path="url(#clip-path-2)">
          <path id="Path_1217" data-name="Path 1217" d="M782.895-139.317h38.23v54.584h-38.23Z" transform="translate(-728.678 440.702)" fill="#d0d0dd"/>
        </g>
      </g>
      <g id="Group_3114" data-name="Group 3114" transform="translate(53.138 110.813)" clip-path="url(#clip-path-91)">
        <g id="Group_3113" data-name="Group 3113" transform="translate(-86.666 -296.577)" clip-path="url(#clip-path-2)">
          <path id="Path_1220" data-name="Path 1220" d="M805.962-148.476H825.1V-126.7H805.962Z" transform="translate(-725.077 439.272)" fill="#ffdfc4"/>
        </g>
      </g>
      <g id="Group_3116" data-name="Group 3116" transform="translate(53.602 110.813)" clip-path="url(#clip-path-93)">
        <g id="Group_3115" data-name="Group 3115" transform="translate(-87.13 -296.577)" clip-path="url(#clip-path-2)">
          <path id="Path_1223" data-name="Path 1223" d="M806.363-148.476h18.674v15.428H806.363Z" transform="translate(-725.014 439.272)" fill="#ffc19f"/>
        </g>
      </g>
      <g id="Group_3118" data-name="Group 3118" transform="translate(47.336 90.419)" clip-path="url(#clip-path-95)">
        <g id="Group_3117" data-name="Group 3117" transform="translate(-80.864 -276.182)" clip-path="url(#clip-path-2)">
          <path id="Path_1226" data-name="Path 1226" d="M800.943-166.116h29.936v34.627H800.943Z" transform="translate(-725.86 436.517)" fill="#ffdfc4"/>
        </g>
      </g>
      <g id="Group_3120" data-name="Group 3120" transform="translate(61.597 95.094)" clip-path="url(#clip-path-97)">
        <g id="Group_3119" data-name="Group 3119" transform="translate(-95.125 -280.857)" clip-path="url(#clip-path-2)">
          <path id="Path_1229" data-name="Path 1229" d="M813.278-162.072h16.885v19.424H813.278Z" transform="translate(-723.934 437.149)" fill="#ffdfc4"/>
        </g>
      </g>
      <g id="Group_3122" data-name="Group 3122" transform="translate(46.029 99.833)" clip-path="url(#clip-path-99)">
        <g id="Group_3121" data-name="Group 3121" transform="translate(-79.556 -285.596)" clip-path="url(#clip-path-2)">
          <path id="Path_1232" data-name="Path 1232" d="M799.812-157.973h16.515V-139.3H799.812Z" transform="translate(-726.037 437.789)" fill="#ffdfc4"/>
        </g>
      </g>
      <g id="Group_3124" data-name="Group 3124" transform="translate(64.119 96.323)" clip-path="url(#clip-path-101)">
        <g id="Group_3123" data-name="Group 3123" transform="translate(-97.647 -282.087)" clip-path="url(#clip-path-2)">
          <path id="Path_1235" data-name="Path 1235" d="M815.46-161.009h13.569v15.245H815.46Z" transform="translate(-723.594 437.315)" fill="#f9c1a0"/>
        </g>
      </g>
      <g id="Group_3126" data-name="Group 3126" transform="translate(47.121 101.439)" clip-path="url(#clip-path-103)">
        <g id="Group_3125" data-name="Group 3125" transform="translate(-80.649 -287.203)" clip-path="url(#clip-path-2)">
          <path id="Path_1238" data-name="Path 1238" d="M800.758-156.584h13.168v15.451H800.758Z" transform="translate(-725.889 438.006)" fill="#f9c1a0"/>
        </g>
      </g>
      <g id="Group_3128" data-name="Group 3128" transform="translate(60.997 99.728)" clip-path="url(#clip-path-105)">
        <g id="Group_3127" data-name="Group 3127" transform="translate(-94.525 -285.491)" clip-path="url(#clip-path-2)">
          <path id="Path_1241" data-name="Path 1241" d="M812.76-158.064h14.089v14.089H812.76Z" transform="translate(-724.015 437.775)" fill="#ffc19f"/>
        </g>
      </g>
      <g id="Group_3130" data-name="Group 3130" transform="translate(50.868 102.725)" clip-path="url(#clip-path-107)">
        <g id="Group_3129" data-name="Group 3129" transform="translate(-84.396 -288.488)" clip-path="url(#clip-path-2)">
          <path id="Path_1244" data-name="Path 1244" d="M804-155.472h14.089v14.089H804Z" transform="translate(-725.383 438.179)" fill="#ffc19f"/>
        </g>
      </g>
      <g id="Group_3132" data-name="Group 3132" transform="translate(56.557 98.457)" clip-path="url(#clip-path-109)">
        <g id="Group_3131" data-name="Group 3131" transform="translate(-90.085 -284.22)" clip-path="url(#clip-path-2)">
          <path id="Path_1247" data-name="Path 1247" d="M808.919-159.164h14.723V-140.5H808.919Z" transform="translate(-724.615 437.603)" fill="#ffc19f"/>
        </g>
      </g>
      <g id="Group_3134" data-name="Group 3134" transform="translate(43.126 81.377)" clip-path="url(#clip-path-111)">
        <g id="Group_3133" data-name="Group 3133" transform="translate(-76.654 -267.141)" clip-path="url(#clip-path-2)">
          <path id="Path_1250" data-name="Path 1250" d="M797.3-173.936h31.985v31.758H797.3Z" transform="translate(-726.429 435.296)" fill="#232043"/>
        </g>
      </g>
      <g id="Group_3136" data-name="Group 3136" transform="translate(48.729 85.744)" clip-path="url(#clip-path-113)">
        <g id="Group_3135" data-name="Group 3135" transform="translate(-82.257 -271.507)" clip-path="url(#clip-path-2)">
          <path id="Path_1253" data-name="Path 1253" d="M802.148-170.159h22.54v18.691h-22.54Z" transform="translate(-725.672 435.886)" fill="#393750"/>
        </g>
      </g>
      <g id="Group_3138" data-name="Group 3138" transform="translate(48.325 86.968)" clip-path="url(#clip-path-115)">
        <g id="Group_3137" data-name="Group 3137" transform="translate(-81.853 -272.731)" clip-path="url(#clip-path-2)">
          <path id="Path_1256" data-name="Path 1256" d="M801.8-169.1h20.595v15.845H801.8Z" transform="translate(-725.727 436.051)" fill="#393750"/>
        </g>
      </g>
      <g id="Group_3140" data-name="Group 3140" transform="translate(44.741 88.949)" clip-path="url(#clip-path-117)">
        <g id="Group_3139" data-name="Group 3139" transform="translate(-78.268 -274.712)" clip-path="url(#clip-path-2)">
          <path id="Path_1259" data-name="Path 1259" d="M798.7-167.388h14.33v15.9H798.7Z" transform="translate(-726.211 436.319)" fill="#393750"/>
        </g>
      </g>
      <g id="Group_3142" data-name="Group 3142" transform="translate(45.594 92.464)" clip-path="url(#clip-path-119)">
        <g id="Group_3141" data-name="Group 3141" transform="translate(-79.122 -278.227)" clip-path="url(#clip-path-2)">
          <path id="Path_1262" data-name="Path 1262" d="M799.437-164.347h12.3v13.93h-12.3Z" transform="translate(-726.095 436.794)" fill="#393750"/>
        </g>
      </g>
      <g id="Group_3144" data-name="Group 3144" transform="translate(50.597 117.62)" clip-path="url(#clip-path-121)">
        <g id="Group_3143" data-name="Group 3143" transform="translate(-84.125 -303.384)" clip-path="url(#clip-path-2)">
          <path id="Path_1265" data-name="Path 1265" d="M803.764-142.588H821.53v19.125H803.764Z" transform="translate(-725.42 440.191)" fill="#fff"/>
        </g>
      </g>
      <g id="Group_3146" data-name="Group 3146" transform="translate(56.802 117.621)" clip-path="url(#clip-path-123)">
        <g id="Group_3145" data-name="Group 3145" transform="translate(-90.329 -303.384)" clip-path="url(#clip-path-2)">
          <path id="Path_1268" data-name="Path 1268" d="M809.131-142.588h17.885v19.124H809.131Z" transform="translate(-724.582 440.191)" fill="#fff"/>
        </g>
      </g>
      <g id="Group_3148" data-name="Group 3148" transform="translate(0 88.347)" clip-path="url(#clip-path-125)">
        <g id="Group_3147" data-name="Group 3147" transform="translate(-33.528 -274.11)" clip-path="url(#clip-path-2)">
          <path id="Path_1271" data-name="Path 1271" d="M760-167.908h24.652v24.655H760Z" transform="translate(-732.253 436.238)" fill="#ff7192"/>
        </g>
      </g>
      <g id="Group_3150" data-name="Group 3150" transform="translate(10.154 105.946)" clip-path="url(#clip-path-127)">
        <g id="Group_3149" data-name="Group 3149" transform="translate(-43.682 -291.709)" clip-path="url(#clip-path-2)">
          <path id="Path_1274" data-name="Path 1274" d="M768.783-152.686h24.652v24.655H768.783Z" transform="translate(-730.881 438.614)" fill="#3289e0"/>
        </g>
      </g>
      <g id="Group_3152" data-name="Group 3152" transform="translate(192.312 270.01)" clip-path="url(#clip-path-129)">
        <g id="Group_3151" data-name="Group 3151" transform="translate(-225.84 -455.773)" clip-path="url(#clip-path-2)">
          <path id="Path_1277" data-name="Path 1277" d="M926.341-10.779h185.088V6.964H926.341Z" transform="translate(-706.281 460.771)" fill="#d2d2d2"/>
        </g>
      </g>
      <g id="Group_3154" data-name="Group 3154" transform="translate(211.375 232.136)" clip-path="url(#clip-path-131)">
        <g id="Group_3153" data-name="Group 3153" transform="translate(-244.903 -417.9)" clip-path="url(#clip-path-2)">
          <path id="Path_1280" data-name="Path 1280" d="M942.829-43.537h75.64V8.337h-75.64Z" transform="translate(-703.707 455.656)" fill="#3289e0"/>
        </g>
      </g>
      <g id="Group_3156" data-name="Group 3156" transform="translate(211.375 232.137)" clip-path="url(#clip-path-133)">
        <g id="Group_3155" data-name="Group 3155" transform="translate(-244.903 -417.9)" clip-path="url(#clip-path-2)">
          <path id="Path_1283" data-name="Path 1283" d="M942.829-43.537h75.639V8.337H942.829Z" transform="translate(-703.707 455.656)" fill="#3e8fff"/>
        </g>
      </g>
      <g id="Group_3158" data-name="Group 3158" transform="translate(252.08 214.762)" clip-path="url(#clip-path-135)">
        <g id="Group_3157" data-name="Group 3157" transform="translate(-285.607 -400.525)" clip-path="url(#clip-path-2)">
          <path id="Path_1286" data-name="Path 1286" d="M978.036-58.566h36.736v29.112H978.036Z" transform="translate(-698.21 453.31)" fill="#232043"/>
        </g>
      </g>
      <g id="Group_3160" data-name="Group 3160" transform="translate(252.277 214.762)" clip-path="url(#clip-path-137)">
        <g id="Group_3159" data-name="Group 3159" transform="translate(-285.805 -400.525)" clip-path="url(#clip-path-2)">
          <path id="Path_1289" data-name="Path 1289" d="M978.207-58.565h19.236v20.749H978.207Z" transform="translate(-698.183 453.31)" fill="#ffdfc4"/>
        </g>
      </g>
      <g id="Group_3162" data-name="Group 3162" transform="translate(263.074 224.314)" clip-path="url(#clip-path-139)">
        <g id="Group_3161" data-name="Group 3161" transform="translate(-296.602 -410.077)" clip-path="url(#clip-path-2)">
          <path id="Path_1292" data-name="Path 1292" d="M987.546-50.3h14.5v15.111h-14.5Z" transform="translate(-696.725 454.6)" fill="#fff"/>
        </g>
      </g>
      <g id="Group_3164" data-name="Group 3164" transform="translate(261.533 223.375)" clip-path="url(#clip-path-141)">
        <g id="Group_3163" data-name="Group 3163" transform="translate(-295.061 -409.139)" clip-path="url(#clip-path-2)">
          <path id="Path_1295" data-name="Path 1295" d="M986.213-51.115h14.5V-36h-14.5Z" transform="translate(-696.933 454.473)" fill="#fff"/>
        </g>
      </g>
      <g id="Group_3166" data-name="Group 3166" transform="translate(259.816 222.465)" clip-path="url(#clip-path-143)">
        <g id="Group_3165" data-name="Group 3165" transform="translate(-293.344 -408.228)" clip-path="url(#clip-path-2)">
          <path id="Path_1298" data-name="Path 1298" d="M984.728-51.9h14.5v15.111h-14.5Z" transform="translate(-697.165 454.35)" fill="#fff"/>
        </g>
      </g>
      <g id="Group_3168" data-name="Group 3168" transform="translate(209.074 214.762)" clip-path="url(#clip-path-145)">
        <g id="Group_3167" data-name="Group 3167" transform="translate(-242.602 -400.525)" clip-path="url(#clip-path-2)">
          <path id="Path_1301" data-name="Path 1301" d="M940.839-58.566h36.735v29.112H940.839Z" transform="translate(-704.018 453.31)" fill="#232043"/>
        </g>
      </g>
      <g id="Group_3170" data-name="Group 3170" transform="translate(226.376 214.762)" clip-path="url(#clip-path-147)">
        <g id="Group_3169" data-name="Group 3169" transform="translate(-259.904 -400.525)" clip-path="url(#clip-path-2)">
          <path id="Path_1304" data-name="Path 1304" d="M955.8-58.565H975.04v20.749H955.8Z" transform="translate(-701.681 453.31)" fill="#ffdfc4"/>
        </g>
      </g>
      <g id="Group_3172" data-name="Group 3172" transform="translate(220.311 224.314)" clip-path="url(#clip-path-149)">
        <g id="Group_3171" data-name="Group 3171" transform="translate(-253.839 -410.077)" clip-path="url(#clip-path-2)">
          <path id="Path_1307" data-name="Path 1307" d="M950.558-50.3h14.5v15.111h-14.5Z" transform="translate(-702.5 454.6)" fill="#fff"/>
        </g>
      </g>
      <g id="Group_3174" data-name="Group 3174" transform="translate(221.852 223.375)" clip-path="url(#clip-path-151)">
        <g id="Group_3173" data-name="Group 3173" transform="translate(-255.38 -409.139)" clip-path="url(#clip-path-2)">
          <path id="Path_1310" data-name="Path 1310" d="M951.891-51.115h14.5V-36h-14.5Z" transform="translate(-702.292 454.473)" fill="#fff"/>
        </g>
      </g>
      <g id="Group_3176" data-name="Group 3176" transform="translate(223.569 222.465)" clip-path="url(#clip-path-153)">
        <g id="Group_3175" data-name="Group 3175" transform="translate(-257.097 -408.228)" clip-path="url(#clip-path-2)">
          <path id="Path_1313" data-name="Path 1313" d="M953.376-51.9h14.5v15.111h-14.5Z" transform="translate(-702.06 454.35)" fill="#fff"/>
        </g>
      </g>
      <g id="Group_3178" data-name="Group 3178" transform="translate(226.045 128.792)" clip-path="url(#clip-path-155)">
        <g id="Group_3177" data-name="Group 3177" transform="translate(-259.573 -314.555)" clip-path="url(#clip-path-2)">
          <path id="Path_1316" data-name="Path 1316" d="M955.518-132.925h48.315v99.44H955.518Z" transform="translate(-701.726 441.7)" fill="#232043"/>
        </g>
      </g>
      <g id="Group_3180" data-name="Group 3180" transform="translate(179.608 27.968)" clip-path="url(#clip-path-157)">
        <g id="Group_3179" data-name="Group 3179" transform="translate(-213.136 -213.731)" clip-path="url(#clip-path-2)">
          <path id="Path_1319" data-name="Path 1319" d="M915.352-220.133h121.482v42.889H915.352Z" transform="translate(-707.997 428.083)" fill="#fff"/>
        </g>
      </g>
      <g id="Group_3182" data-name="Group 3182" transform="translate(267.421 27.968)" clip-path="url(#clip-path-159)">
        <g id="Group_3181" data-name="Group 3181" transform="translate(-300.949 -213.731)" clip-path="url(#clip-path-2)">
          <path id="Path_1322" data-name="Path 1322" d="M991.306-220.133h33.669v28.112H991.306Z" transform="translate(-696.138 428.083)" fill="#3e8fff"/>
        </g>
      </g>
      <g id="Group_3184" data-name="Group 3184" transform="translate(273.768 31.108)" clip-path="url(#clip-path-161)">
        <g id="Group_3183" data-name="Group 3183" transform="translate(-307.296 -216.871)" clip-path="url(#clip-path-2)">
          <path id="Path_1325" data-name="Path 1325" d="M996.8-217.417h22.621V-196.5H996.8Z" transform="translate(-695.281 428.508)" fill="#fff"/>
        </g>
      </g>
      <g id="Group_3186" data-name="Group 3186" transform="translate(230.911 88.172)" clip-path="url(#clip-path-163)">
        <g id="Group_3185" data-name="Group 3185" transform="translate(-264.439 -273.935)" clip-path="url(#clip-path-2)">
          <path id="Path_1328" data-name="Path 1328" d="M959.727-168.059h40.93v66h-40.93Z" transform="translate(-701.069 436.214)" fill="#00de91"/>
        </g>
      </g>
      <g id="Group_3188" data-name="Group 3188" transform="translate(241.219 78.056)" clip-path="url(#clip-path-165)">
        <g id="Group_3187" data-name="Group 3187" transform="translate(-274.747 -263.819)" clip-path="url(#clip-path-2)">
          <path id="Path_1331" data-name="Path 1331" d="M968.643-176.81h20.869v21.4H968.643Z" transform="translate(-699.677 434.848)" fill="#ffdfc4"/>
        </g>
      </g>
      <g id="Group_3190" data-name="Group 3190" transform="translate(242.23 79.003)" clip-path="url(#clip-path-167)">
        <g id="Group_3189" data-name="Group 3189" transform="translate(-275.758 -264.766)" clip-path="url(#clip-path-2)">
          <path id="Path_1334" data-name="Path 1334" d="M969.517-175.99H988.7V-159.8H969.517Z" transform="translate(-699.54 434.976)" fill="#ffc19f"/>
        </g>
      </g>
      <g id="Group_3192" data-name="Group 3192" transform="translate(235.993 59.388)" clip-path="url(#clip-path-169)">
        <g id="Group_3191" data-name="Group 3191" transform="translate(-269.521 -245.152)" clip-path="url(#clip-path-2)">
          <path id="Path_1337" data-name="Path 1337" d="M964.123-192.956h29.545v33.888H964.123Z" transform="translate(-700.382 432.327)" fill="#ffdfc4"/>
        </g>
      </g>
      <g id="Group_3194" data-name="Group 3194" transform="translate(245.48 73.133)" clip-path="url(#clip-path-171)">
        <g id="Group_3193" data-name="Group 3193" transform="translate(-279.008 -258.896)" clip-path="url(#clip-path-2)">
          <path id="Path_1340" data-name="Path 1340" d="M972.328-181.068h13.3v14.817h-13.3Z" transform="translate(-699.101 434.183)" fill="#f9c1a0"/>
        </g>
      </g>
      <g id="Group_3196" data-name="Group 3196" transform="translate(237.702 71.278)" clip-path="url(#clip-path-173)">
        <g id="Group_3195" data-name="Group 3195" transform="translate(-271.23 -257.041)" clip-path="url(#clip-path-2)">
          <path id="Path_1343" data-name="Path 1343" d="M965.6-182.672H979.69v14.089H965.6Z" transform="translate(-700.151 433.932)" fill="#ffc19f"/>
        </g>
      </g>
      <g id="Group_3198" data-name="Group 3198" transform="translate(234.568 51.49)" clip-path="url(#clip-path-175)">
        <g id="Group_3197" data-name="Group 3197" transform="translate(-268.096 -237.254)" clip-path="url(#clip-path-2)">
          <path id="Path_1346" data-name="Path 1346" d="M962.89-199.787h37.936v44.595H962.89Z" transform="translate(-700.575 431.26)" fill="#232043"/>
        </g>
      </g>
      <g id="Group_3200" data-name="Group 3200" transform="translate(235.707 57.721)" clip-path="url(#clip-path-177)">
        <g id="Group_3199" data-name="Group 3199" transform="translate(-269.235 -243.484)" clip-path="url(#clip-path-2)">
          <path id="Path_1349" data-name="Path 1349" d="M963.875-194.4h23.283v17.773H963.875Z" transform="translate(-700.421 432.102)" fill="#393750"/>
        </g>
      </g>
      <g id="Group_3202" data-name="Group 3202" transform="translate(252.221 61.125)" clip-path="url(#clip-path-179)">
        <g id="Group_3201" data-name="Group 3201" transform="translate(-285.749 -246.888)" clip-path="url(#clip-path-2)">
          <path id="Path_1352" data-name="Path 1352" d="M978.159-191.454h15v19.978h-15Z" transform="translate(-698.191 432.561)" fill="#393750"/>
        </g>
      </g>
      <g id="Group_3204" data-name="Group 3204" transform="translate(253.52 60.21)" clip-path="url(#clip-path-181)">
        <g id="Group_3203" data-name="Group 3203" transform="translate(-287.048 -245.973)" clip-path="url(#clip-path-2)">
          <path id="Path_1355" data-name="Path 1355" d="M979.282-192.245h16.189V-169.9H979.282Z" transform="translate(-698.015 432.438)" fill="#393750"/>
        </g>
      </g>
      <g id="Group_3206" data-name="Group 3206" transform="translate(238.723 57.771)" clip-path="url(#clip-path-183)">
        <g id="Group_3205" data-name="Group 3205" transform="translate(-272.25 -243.534)" clip-path="url(#clip-path-2)">
          <path id="Path_1358" data-name="Path 1358" d="M966.483-194.355h23.724v14.96H966.483Z" transform="translate(-700.014 432.108)" fill="#393750"/>
        </g>
      </g>
      <g id="Group_3208" data-name="Group 3208" transform="translate(243.307 57.092)" clip-path="url(#clip-path-185)">
        <g id="Group_3207" data-name="Group 3207" transform="translate(-276.835 -242.856)" clip-path="url(#clip-path-2)">
          <path id="Path_1361" data-name="Path 1361" d="M970.449-194.942h18.718v13.406H970.449Z" transform="translate(-699.394 432.017)" fill="#393750"/>
        </g>
      </g>
      <g id="Group_3210" data-name="Group 3210" transform="translate(247.55 55.298)" clip-path="url(#clip-path-187)">
        <g id="Group_3209" data-name="Group 3209" transform="translate(-281.077 -241.061)" clip-path="url(#clip-path-2)">
          <path id="Path_1364" data-name="Path 1364" d="M974.118-196.494h14.676v13.1H974.118Z" transform="translate(-698.821 431.774)" fill="#393750"/>
        </g>
      </g>
      <g id="Group_3212" data-name="Group 3212" transform="translate(238.965 87.207)" clip-path="url(#clip-path-189)">
        <g id="Group_3211" data-name="Group 3211" transform="translate(-272.493 -272.97)" clip-path="url(#clip-path-2)">
          <path id="Path_1367" data-name="Path 1367" d="M966.693-168.894H992.02v14.8H966.693Z" transform="translate(-699.981 436.084)" fill="#fff"/>
        </g>
      </g>
      <g id="Group_3214" data-name="Group 3214" transform="translate(211.213 43.632)" clip-path="url(#clip-path-191)">
        <g id="Group_3213" data-name="Group 3213" transform="translate(-244.741 -229.395)" clip-path="url(#clip-path-2)">
          <path id="Path_1370" data-name="Path 1370" d="M942.689-206.584h24.1v45.134h-24.1Z" transform="translate(-703.729 430.199)" fill="#ffdfc4"/>
        </g>
      </g>
      <g id="Group_3216" data-name="Group 3216" transform="translate(209.764 66.16)" clip-path="url(#clip-path-193)">
        <g id="Group_3215" data-name="Group 3215" transform="translate(-243.291 -251.923)" clip-path="url(#clip-path-2)">
          <path id="Path_1373" data-name="Path 1373" d="M941.435-187.1H982.2v48.3H941.435Z" transform="translate(-703.924 433.241)" fill="#00de91"/>
        </g>
      </g>
      <g id="Group_3218" data-name="Group 3218" transform="translate(266.774 35.684)" clip-path="url(#clip-path-195)">
        <g id="Group_3217" data-name="Group 3217" transform="translate(-300.302 -221.447)" clip-path="url(#clip-path-2)">
          <path id="Path_1376" data-name="Path 1376" d="M990.747-213.459h26.9v44.841h-26.9Z" transform="translate(-696.225 429.125)" fill="#ffdfc4"/>
        </g>
      </g>
      <g id="Group_3220" data-name="Group 3220" transform="translate(252.73 57.118)" clip-path="url(#clip-path-197)">
        <g id="Group_3219" data-name="Group 3219" transform="translate(-286.258 -242.882)" clip-path="url(#clip-path-2)">
          <path id="Path_1379" data-name="Path 1379" d="M978.6-194.919h42.573v55.292H978.6Z" transform="translate(-698.122 432.02)" fill="#00de91"/>
        </g>
      </g>
      <g id="Group_3222" data-name="Group 3222" transform="translate(95.887 266.267)" clip-path="url(#clip-path-199)">
        <g id="Group_3221" data-name="Group 3221" transform="translate(-129.415 -452.03)" clip-path="url(#clip-path-2)">
          <path id="Path_1382" data-name="Path 1382" d="M842.938-14.016h118.52V3.727H842.938Z" transform="translate(-719.303 460.266)" fill="#d2d2d2"/>
        </g>
      </g>
      <g id="Group_3224" data-name="Group 3224" transform="translate(150.397 123.672)" clip-path="url(#clip-path-201)">
        <g id="Group_3223" data-name="Group 3223" transform="translate(-183.925 -309.435)" clip-path="url(#clip-path-2)">
          <path id="Path_1385" data-name="Path 1385" d="M890.087-137.354h36.578v27.859H890.087Z" transform="translate(-711.942 441.008)" fill="#ffc19f"/>
        </g>
      </g>
      <g id="Group_3226" data-name="Group 3226" transform="translate(117.65 119.536)" clip-path="url(#clip-path-203)">
        <g id="Group_3225" data-name="Group 3225" transform="translate(-151.178 -305.299)" clip-path="url(#clip-path-2)">
          <path id="Path_1388" data-name="Path 1388" d="M861.762-140.931h33.377v52.066H861.762Z" transform="translate(-716.364 440.45)" fill="#eb4b77"/>
        </g>
      </g>
      <g id="Group_3228" data-name="Group 3228" transform="translate(144.355 245.962)" clip-path="url(#clip-path-205)">
        <g id="Group_3227" data-name="Group 3227" transform="translate(-177.882 -431.725)" clip-path="url(#clip-path-2)">
          <path id="Path_1391" data-name="Path 1391" d="M884.86-31.579h27.683V3.368H884.86Z" transform="translate(-712.758 457.523)" fill="#ffdfc4"/>
        </g>
      </g>
      <g id="Group_3230" data-name="Group 3230" transform="translate(144.355 258.052)" clip-path="url(#clip-path-207)">
        <g id="Group_3229" data-name="Group 3229" transform="translate(-177.882 -443.815)" clip-path="url(#clip-path-2)">
          <path id="Path_1394" data-name="Path 1394" d="M884.86-21.121h27.683V1.735H884.86Z" transform="translate(-712.758 459.156)" fill="#fff"/>
        </g>
      </g>
      <g id="Group_3232" data-name="Group 3232" transform="translate(144.355 261.461)" clip-path="url(#clip-path-209)">
        <g id="Group_3231" data-name="Group 3231" transform="translate(-177.882 -447.224)" clip-path="url(#clip-path-2)">
          <path id="Path_1397" data-name="Path 1397" d="M884.86-18.173h27.683V1.275H884.86Z" transform="translate(-712.758 459.616)" fill="#232043"/>
        </g>
      </g>
      <g id="Group_3234" data-name="Group 3234" transform="translate(127.749 245.962)" clip-path="url(#clip-path-211)">
        <g id="Group_3233" data-name="Group 3233" transform="translate(-161.277 -431.725)" clip-path="url(#clip-path-2)">
          <path id="Path_1400" data-name="Path 1400" d="M870.5-31.579h27.682V3.368H870.5Z" transform="translate(-715 457.523)" fill="#ffdfc4"/>
        </g>
      </g>
      <g id="Group_3236" data-name="Group 3236" transform="translate(127.749 258.052)" clip-path="url(#clip-path-213)">
        <g id="Group_3235" data-name="Group 3235" transform="translate(-161.277 -443.815)" clip-path="url(#clip-path-2)">
          <path id="Path_1403" data-name="Path 1403" d="M870.5-21.121h27.682V1.735H870.5Z" transform="translate(-715 459.156)" fill="#fff"/>
        </g>
      </g>
      <g id="Group_3238" data-name="Group 3238" transform="translate(127.749 261.461)" clip-path="url(#clip-path-215)">
        <g id="Group_3237" data-name="Group 3237" transform="translate(-161.277 -447.224)" clip-path="url(#clip-path-2)">
          <path id="Path_1406" data-name="Path 1406" d="M870.5-18.173h27.682V1.275H870.5Z" transform="translate(-715 459.616)" fill="#232043"/>
        </g>
      </g>
      <g id="Group_3240" data-name="Group 3240" transform="translate(123.8 115.069)" clip-path="url(#clip-path-217)">
        <g id="Group_3239" data-name="Group 3239" transform="translate(-157.328 -300.832)" clip-path="url(#clip-path-2)">
          <path id="Path_1409" data-name="Path 1409" d="M867.081-144.795H906.2v57.954H867.081Z" transform="translate(-715.534 439.846)" fill="#ff7192"/>
        </g>
      </g>
      <g id="Group_3242" data-name="Group 3242" transform="translate(137.101 105.057)" clip-path="url(#clip-path-219)">
        <g id="Group_3241" data-name="Group 3241" transform="translate(-170.629 -290.821)" clip-path="url(#clip-path-2)">
          <path id="Path_1412" data-name="Path 1412" d="M878.586-153.454h20.869v21.4H878.586Z" transform="translate(-713.737 438.494)" fill="#ffdfc4"/>
        </g>
      </g>
      <g id="Group_3244" data-name="Group 3244" transform="translate(137.774 106.004)" clip-path="url(#clip-path-221)">
        <g id="Group_3243" data-name="Group 3243" transform="translate(-171.302 -291.767)" clip-path="url(#clip-path-2)">
          <path id="Path_1415" data-name="Path 1415" d="M879.168-152.636h19.186v16.2H879.168Z" transform="translate(-713.646 438.622)" fill="#ffc19f"/>
        </g>
      </g>
      <g id="Group_3246" data-name="Group 3246" transform="translate(135.791 87.243)" clip-path="url(#clip-path-223)">
        <g id="Group_3245" data-name="Group 3245" transform="translate(-169.319 -273.006)" clip-path="url(#clip-path-2)">
          <path id="Path_1418" data-name="Path 1418" d="M877.453-168.863h29.5v34.1h-29.5Z" transform="translate(-713.914 436.089)" fill="#ffdfc4"/>
        </g>
      </g>
      <g id="Group_3248" data-name="Group 3248" transform="translate(147.87 100.469)" clip-path="url(#clip-path-225)">
        <g id="Group_3247" data-name="Group 3247" transform="translate(-181.398 -286.233)" clip-path="url(#clip-path-2)">
          <path id="Path_1421" data-name="Path 1421" d="M887.9-157.423h14.089v14.089H887.9Z" transform="translate(-712.283 437.875)" fill="#ffc19f"/>
        </g>
      </g>
      <g id="Group_3250" data-name="Group 3250" transform="translate(134.898 114.209)" clip-path="url(#clip-path-227)">
        <g id="Group_3249" data-name="Group 3249" transform="translate(-168.426 -299.972)" clip-path="url(#clip-path-2)">
          <path id="Path_1424" data-name="Path 1424" d="M876.681-145.539h25.326v14.8H876.681Z" transform="translate(-714.035 439.73)" fill="#fff"/>
        </g>
      </g>
      <g id="Group_3252" data-name="Group 3252" transform="translate(120.774 158.681)" clip-path="url(#clip-path-229)">
        <g id="Group_3251" data-name="Group 3251" transform="translate(-154.302 -344.444)" clip-path="url(#clip-path-2)">
          <path id="Path_1427" data-name="Path 1427" d="M864.464-107.073h48.612V-1.2H864.464Z" transform="translate(-715.942 445.736)" fill="#232043"/>
        </g>
      </g>
      <g id="Group_3254" data-name="Group 3254" transform="translate(126.347 250.553)" clip-path="url(#clip-path-231)">
        <g id="Group_3253" data-name="Group 3253" transform="translate(-159.874 -436.316)" clip-path="url(#clip-path-2)">
          <path id="Path_1430" data-name="Path 1430" d="M869.284-27.608h23.478v16.544H869.284Z" transform="translate(-715.19 458.143)" fill="#ff7192"/>
        </g>
      </g>
      <g id="Group_3256" data-name="Group 3256" transform="translate(163.628 97.976)" clip-path="url(#clip-path-233)">
        <g id="Group_3255" data-name="Group 3255" transform="translate(-197.156 -283.739)" clip-path="url(#clip-path-2)">
          <path id="Path_1433" data-name="Path 1433" d="M901.53-159.58h42.824v42.831H901.53Z" transform="translate(-710.155 437.538)" fill="#3289e0"/>
        </g>
      </g>
      <g id="Group_3258" data-name="Group 3258" transform="translate(170.381 103.693)" clip-path="url(#clip-path-235)">
        <g id="Group_3257" data-name="Group 3257" transform="translate(-203.909 -289.456)" clip-path="url(#clip-path-2)">
          <path id="Path_1436" data-name="Path 1436" d="M907.371-154.635h29.318V-124.6H907.371Z" transform="translate(-709.243 438.31)" fill="#fff"/>
        </g>
      </g>
      <g id="Group_3260" data-name="Group 3260" transform="translate(143.408 249.901)" clip-path="url(#clip-path-237)">
        <g id="Group_3259" data-name="Group 3259" transform="translate(-176.936 -435.665)" clip-path="url(#clip-path-2)">
          <path id="Path_1439" data-name="Path 1439" d="M884.041-28.171h23.478v16.544H884.041Z" transform="translate(-712.886 458.055)" fill="#ff7192"/>
        </g>
      </g>
      <g id="Group_3262" data-name="Group 3262" transform="translate(172.569 123.936)" clip-path="url(#clip-path-239)">
        <g id="Group_3261" data-name="Group 3261" transform="translate(-206.097 -309.699)" clip-path="url(#clip-path-2)">
          <path id="Path_1442" data-name="Path 1442" d="M909.264-137.125h36.578v27.86H909.264Z" transform="translate(-708.947 441.044)" fill="#ffdfc4"/>
        </g>
      </g>
      <g id="Group_3264" data-name="Group 3264" transform="translate(147.991 115.633)" clip-path="url(#clip-path-241)">
        <g id="Group_3263" data-name="Group 3263" transform="translate(-181.519 -301.396)" clip-path="url(#clip-path-2)">
          <path id="Path_1445" data-name="Path 1445" d="M888-144.307H932.99v56.918H888Z" transform="translate(-712.267 439.923)" fill="#eb4b77"/>
        </g>
      </g>
      <g id="Group_3266" data-name="Group 3266" transform="translate(169.912 133.409)" clip-path="url(#clip-path-243)">
        <g id="Group_3265" data-name="Group 3265" transform="translate(-203.44 -319.172)" clip-path="url(#clip-path-2)">
          <path id="Path_1448" data-name="Path 1448" d="M906.965-128.932h24.357v21.038H906.965Z" transform="translate(-709.306 442.323)" fill="#fff"/>
        </g>
      </g>
      <g id="Group_3268" data-name="Group 3268" transform="translate(121.625 77.832)" clip-path="url(#clip-path-245)">
        <g id="Group_3267" data-name="Group 3267" transform="translate(-155.153 -263.595)" clip-path="url(#clip-path-2)">
          <path id="Path_1451" data-name="Path 1451" d="M865.2-177h45.871v42.051H865.2Z" transform="translate(-715.827 434.818)" fill="#232043"/>
        </g>
      </g>
      <g id="Group_3270" data-name="Group 3270" transform="translate(126.515 82.133)" clip-path="url(#clip-path-247)">
        <g id="Group_3269" data-name="Group 3269" transform="translate(-160.043 -267.896)" clip-path="url(#clip-path-2)">
          <path id="Path_1454" data-name="Path 1454" d="M869.429-173.283h22.612v27.451H869.429Z" transform="translate(-715.167 435.398)" fill="#393750"/>
        </g>
      </g>
      <g id="Group_3272" data-name="Group 3272" transform="translate(131.416 81.197)" clip-path="url(#clip-path-249)">
        <g id="Group_3271" data-name="Group 3271" transform="translate(-164.944 -266.96)" clip-path="url(#clip-path-2)">
          <path id="Path_1457" data-name="Path 1457" d="M873.668-174.092h31.243v31.553H873.668Z" transform="translate(-714.505 435.272)" fill="#393750"/>
        </g>
      </g>
      <g id="Group_3274" data-name="Group 3274" transform="translate(136.554 85.149)" clip-path="url(#clip-path-251)">
        <g id="Group_3273" data-name="Group 3273" transform="translate(-170.082 -270.912)" clip-path="url(#clip-path-2)">
          <path id="Path_1460" data-name="Path 1460" d="M878.113-170.674h25.807v29.684H878.113Z" transform="translate(-713.811 435.806)" fill="#393750"/>
        </g>
      </g>
      <g id="Group_3276" data-name="Group 3276" transform="translate(142.323 88.612)" clip-path="url(#clip-path-253)">
        <g id="Group_3275" data-name="Group 3275" transform="translate(-175.85 -274.375)" clip-path="url(#clip-path-2)">
          <path id="Path_1463" data-name="Path 1463" d="M883.1-167.679h20.155v26.459H883.1Z" transform="translate(-713.032 436.273)" fill="#393750"/>
        </g>
      </g>
      <g id="Group_3278" data-name="Group 3278" transform="translate(282.571 121.131)" clip-path="url(#clip-path-255)">
        <g id="Group_3277" data-name="Group 3277" transform="translate(-316.099 -306.894)" clip-path="url(#clip-path-2)">
          <path id="Path_1466" data-name="Path 1466" d="M1004.41-139.551h66.261v49.239H1004.41Z" transform="translate(-694.092 440.665)" fill="#0074e3"/>
        </g>
      </g>
      <g id="Group_3280" data-name="Group 3280" transform="translate(289.279 128.478)" clip-path="url(#clip-path-257)">
        <g id="Group_3279" data-name="Group 3279" transform="translate(-322.807 -314.241)" clip-path="url(#clip-path-2)">
          <path id="Path_1469" data-name="Path 1469" d="M1010.212-133.2h52.847v34.543h-52.847Z" transform="translate(-693.186 441.657)" fill="#00de91"/>
        </g>
      </g>
      <g id="Group_3282" data-name="Group 3282" transform="translate(296.116 133.773)" clip-path="url(#clip-path-259)">
        <g id="Group_3281" data-name="Group 3281" transform="translate(-329.644 -319.536)" clip-path="url(#clip-path-2)">
          <path id="Path_1472" data-name="Path 1472" d="M1016.126-128.617H1055.3v23.955h-39.172Z" transform="translate(-692.263 442.372)" fill="#ededed"/>
        </g>
      </g>
    </g>
  </g>
</svg>
