<svg xmlns="http://www.w3.org/2000/svg" width="34.55" height="36.122" viewBox="0 0 34.55 36.122">
  <g id="Group_1916" data-name="Group 1916" transform="translate(5674 4802)">
    <path id="Path_218" data-name="Path 218" d="M226.806,0a1.669,1.669,0,0,1,1.734,1.734V8.525a1.729,1.729,0,0,1-1.734,1.806A1.789,1.789,0,0,1,225,8.525V1.734A1.729,1.729,0,0,1,226.806,0Z" transform="translate(-5883.531 -4802)" fill="#fff"/>
    <path id="Path_219" data-name="Path 219" d="M96.3,43.847l3.973,5.49a1.778,1.778,0,0,1-1.445,2.817,1.565,1.565,0,0,1-1.373-.722l-3.973-5.49a1.756,1.756,0,0,1,2.817-2.1Z" transform="translate(-5761.191 -4842.018)" fill="#fff"/>
    <path id="Path_220" data-name="Path 220" d="M12.114,159.354a1.782,1.782,0,0,1,1.084-3.4l6.43,2.1a1.784,1.784,0,0,1,1.156,2.24,1.872,1.872,0,0,1-1.734,1.228,1.339,1.339,0,0,1-.506-.145Z" transform="translate(-5684.877 -4946.616)" fill="#fff"/>
    <path id="Path_221" data-name="Path 221" d="M20.783,267.114a1.784,1.784,0,0,1-1.156,2.24l-6.43,2.1a1.59,1.59,0,0,1-.578.072,1.775,1.775,0,0,1-.506-3.468l6.43-2.1A1.784,1.784,0,0,1,20.783,267.114Z" transform="translate(-5684.877 -5048.669)" fill="rgba(255, 255, 255, 0.6)"/>
    <path id="Path_222" data-name="Path 222" d="M99.81,332.485a1.739,1.739,0,0,1,.361,2.456l-3.973,5.49a1.686,1.686,0,0,1-1.445.723,1.751,1.751,0,0,1-1.373-2.817l3.973-5.49A1.739,1.739,0,0,1,99.81,332.485Z" transform="translate(-5761.086 -5110.14)" fill="rgba(255, 255, 255, 0.6)"/>
    <path id="Path_223" data-name="Path 223" d="M226.806,357a1.729,1.729,0,0,1,1.734,1.806v6.719a1.729,1.729,0,0,1-1.734,1.806A1.789,1.789,0,0,1,225,365.525v-6.719A1.789,1.789,0,0,1,226.806,357Z" transform="translate(-5883.531 -5133.209)" fill="rgba(255, 255, 255, 0.6)"/>
    <path id="Path_224" data-name="Path 224" d="M306.3,332.847l3.973,5.49a1.778,1.778,0,0,1-1.445,2.817,1.564,1.564,0,0,1-1.373-.723l-3.973-5.49a1.756,1.756,0,0,1,2.817-2.1Z" transform="translate(-5956.021 -5110.14)" fill="rgba(255, 255, 255, 0.6)"/>
    <path id="Path_225" data-name="Path 225" d="M359.627,268.053a1.784,1.784,0,0,1,1.156,2.24,1.872,1.872,0,0,1-1.734,1.228,1.228,1.228,0,0,1-.506-.072l-6.43-2.1a1.782,1.782,0,0,1,1.084-3.4Z" transform="translate(-6000.314 -5048.669)" fill="rgba(255, 255, 255, 0.6)"/>
    <path id="Path_226" data-name="Path 226" d="M350.958,160.293a1.784,1.784,0,0,1,1.156-2.24l6.43-2.1a1.782,1.782,0,0,1,1.084,3.4l-6.43,2.023a1.7,1.7,0,0,1-.578.145A1.779,1.779,0,0,1,350.958,160.293Z" transform="translate(-6000.314 -4946.616)" fill="rgba(255, 255, 255, 0.6)"/>
    <path id="Path_227" data-name="Path 227" d="M304.753,52.155a1.751,1.751,0,0,1-1.373-2.817l3.973-5.49a1.755,1.755,0,0,1,2.817,2.1l-3.973,5.49A1.686,1.686,0,0,1,304.753,52.155Z" transform="translate(-5955.915 -4842.018)" fill="rgba(255, 255, 255, 0.6)"/>
  </g>
</svg>
