<svg xmlns="http://www.w3.org/2000/svg" width="718.961" height="557.407" viewBox="0 0 718.961 557.407">
  <g id="Group_1731" data-name="Group 1731" transform="translate(-1793.409 5337.206)">
    <g id="Group_1730" data-name="Group 1730" transform="translate(229.246 -1060.206)">
      <g id="Group_1728" data-name="Group 1728" transform="translate(1564.163 -4277)">
        <g id="Group_1698" data-name="Group 1698" transform="translate(294.509)">
          <path id="Path_264" data-name="Path 264" d="M481.779,189.375s-5.954,81.641.389,112.141,8.447,72.044,8.447,72.044,6.836,13.147,3.681,34.707-2.017,24.716.832,47.328,4.427,80.983-28.7,102.018-79.932,39.79-79.932,39.79" transform="translate(-386.495 -43.491)" fill="none" stroke="#5b81c2" stroke-miterlimit="10" stroke-width="1"/>
          <path id="Path_265" data-name="Path 265" d="M478.913,50.667H336.578L316.6,163.2H498.9Z" transform="translate(-315.369 -50.667)" fill="#82a4d9"/>
          <path id="Path_266" data-name="Path 266" d="M380.911,193.835h41.2l-.5-3.392c-.359-1.892-.881-5.086-4.518-5.086l-30.505-.024c-4.071.22-4.686,2.5-5.182,4.569Z" transform="translate(-306.225 -43.7)" fill="#7dabb8"/>
          <rect id="Rectangle_2748" data-name="Rectangle 2748" width="9.794" height="17.967" transform="translate(90.777 112.535)" fill="#b5ced9"/>
          <rect id="Rectangle_2749" data-name="Rectangle 2749" width="9.794" height="9.794" transform="translate(90.777 112.535)" fill="#7dabb8"/>
          <line id="Line_127" data-name="Line 127" x1="61.061" transform="translate(64.972 222.617)" fill="none" stroke="#2c3045" stroke-miterlimit="10" stroke-width="3"/>
          <line id="Line_128" data-name="Line 128" x1="125.801" transform="translate(31.551 461.01)" fill="none" stroke="#2c3045" stroke-miterlimit="10" stroke-width="3"/>
          <path id="Path_267" data-name="Path 267" d="M410.1,173.333h30.15l43.471,424.9h-7.712L424.7,190.526a5.223,5.223,0,0,0-5.182-4.572H389.676a5.224,5.224,0,0,0-5.182,4.569L332.975,598.233h-7.713l44.173-424.9Z" transform="translate(-309.311 -44.321)" fill="#b5ced9"/>
          <path id="Path_268" data-name="Path 268" d="M350.777,50.667H316.6L328.428,163.2H370.76Z" transform="translate(-187.233 -50.667)" fill="#6088c7"/>
          <path id="Path_269" data-name="Path 269" d="M382.41,50.667H365.845L376.889,163.2h17.354Z" transform="translate(-262.513 -50.667)" fill="#6088c7"/>
          <path id="Path_270" data-name="Path 270" d="M458.729,50.667h-12.1L430.6,163.2h11.832Z" transform="translate(-395.1 -50.667)" fill="#99b5e1"/>
          <path id="Path_271" data-name="Path 271" d="M473.682,50.667h-6.048L451.6,163.2h6.047Z" transform="translate(-432.139 -50.667)" fill="#99b5e1"/>
        </g>
        <g id="Group_1700" data-name="Group 1700" transform="translate(126.818 36.713)">
          <g id="Group_1699" data-name="Group 1699" transform="translate(0)">
            <path id="Path_272" data-name="Path 272" d="M562.865,288.876s9.124-25.018,11.557-41.1,3.042-33.186,5.171-42.632,9.732-23.485,9.732-38.036.609-42.632,8.821-53.609c0,0,0,26.293,2.129,36.5s3.65,11.743,2.433,17.614-5.474,17.614-3.65,26.293,3.042,16.083,2.738,26.8-8.516,66.628-8.516,66.628Z" transform="translate(-510.931 -84.129)" fill="#2a3a6a"/>
            <path id="Path_273" data-name="Path 273" d="M595.061,266.209s-7.888-25.767-9.991-42.332-2.629-34.181-4.47-43.91-8.414-24.19-8.414-39.177-.526-43.91-7.625-55.216c0,0,0,27.082-1.84,37.6s-3.155,12.095-2.1,18.142,4.733,18.142,3.155,27.082a127.147,127.147,0,0,0-2.366,27.608c.263,11.043,7.362,68.626,7.362,68.626Z" transform="translate(-500.096 -85.574)" fill="#242837"/>
            <path id="Path_274" data-name="Path 274" d="M602.291,282.311l-7.1-64.682a41.182,41.182,0,0,1-3.155-14.724c0-7.625,2.1-25.242,0-33.655,0,0,9.2,10.517,10.254,22.875s6.31,28,6.31,28l6.31,63.63Z" transform="translate(-553.386 -81.245)" fill="#232837"/>
            <path id="Path_275" data-name="Path 275" d="M561.989,282.311l7.1-64.682a41.181,41.181,0,0,0,3.155-14.724c0-7.625-2.1-25.242,0-33.655,0,0-9.2,10.517-10.255,22.875s-6.31,28-6.31,28l-6.31,63.63Z" transform="translate(-465.84 -81.245)" fill="#232837"/>
            <path id="Path_276" data-name="Path 276" d="M642.431,280.967s-2.1-7.1-4.207-10.517-3.505-4.031-5-7.1-1.84-10.342-3.242-11.919-4.12-8.5-7.538-8.677-16.828,1.226-16.828,1.226,10.693-6.135,13.848-7.187,11.306-2.016,14.987,2.279,18.405,41.894,18.405,41.894Z" transform="translate(-605.62 -77.797)" fill="#323754"/>
            <path id="Path_277" data-name="Path 277" d="M552.681,289.135s7.888-25.767,9.991-42.332,2.629-34.181,4.47-43.91,8.414-24.19,8.414-39.177.526-43.91,7.625-55.216c0,0,0,27.082,1.84,37.6s3.155,12.095,2.1,18.142-4.733,18.142-3.155,27.082a127.154,127.154,0,0,1,2.366,27.608c-.263,11.043-7.362,68.626-7.362,68.626Z" transform="translate(-484.582 -84.388)" fill="#396"/>
            <path id="Path_278" data-name="Path 278" d="M563.33,228s-6.573,4.864-8.677,9.86-1.841,6.573-3.55,9.991-6.31,3.55-7.231,7.625,1.183,18.668-4.864,25.242H523.364s7.362-17.222,8.282-27.477S556.757,232.075,563.33,228Z" transform="translate(-429.578 -78.206)" fill="#323754"/>
            <path id="Path_279" data-name="Path 279" d="M541.887,285.205S550.4,274.758,551,266.838s.99-15.246,3.367-18.81,7.325-8.91,8.316-14.85,2.574-39.2,7.128-48.709c0,0-11.089,13.861-13.96,28.315a64.426,64.426,0,0,1-9.74,23.251,11.693,11.693,0,0,1-1.244,1.5c-2.33,2.386-10.883,11.642-13.271,21.189-2.771,11.088-3.366,25.147-3.366,25.147Z" transform="translate(-441.166 -80.458)" fill="#3862ab"/>
            <path id="Path_280" data-name="Path 280" d="M624.628,285.205s-8.514-10.447-9.108-18.367-.991-15.246-3.367-18.81-7.325-8.91-8.316-14.85-2.574-39.2-7.128-48.709c0,0,11.087,13.861,13.959,28.315a64.44,64.44,0,0,0,9.741,23.251,11.6,11.6,0,0,0,1.244,1.5c2.33,2.386,10.883,11.642,13.271,21.189,2.771,11.088,3.365,25.147,3.365,25.147Z" transform="translate(-581.679 -80.458)" fill="#1ad372"/>
            <path id="Path_281" data-name="Path 281" d="M559.784,286.729s6.047-7.625,9.2-20.772c2.69-11.209,4.425-23.948,4.878-27.459a8.269,8.269,0,0,1,.459-1.852c1.286-3.439,5.9-15.747,8.6-22.487,3.155-7.888-1.052-53.375,3.681-59.16a99.186,99.186,0,0,0-11.569,34.181c-2.892,19.983-14.2,42.332-17.354,49.168s-21.561,34.444-18.931,48.38Z" transform="translate(-468.763 -81.982)" fill="#43be80"/>
            <path id="Path_282" data-name="Path 282" d="M614.172,286.729s-6.048-7.625-9.2-20.772c-2.69-11.209-4.426-23.948-4.878-27.459a8.256,8.256,0,0,0-.46-1.852c-1.286-3.439-5.9-15.747-8.6-22.487-3.155-7.888,1.052-53.375-3.681-59.16a99.184,99.184,0,0,1,11.569,34.181c2.892,19.983,14.2,42.332,17.354,49.168s13.35,34.444,10.72,48.38Z" transform="translate(-560.971 -81.982)" fill="#4875ba"/>
            <path id="Path_283" data-name="Path 283" d="M607.637,289.213s1.052-12.884-1.578-18.405-5.259-14.2-3.944-18.405-3.155-6.836-2.892-11.306,4.93-7.362,4.306-10.78-2.728-8.94-1.676-14.461.5-17.091-2.64-28.4-4.722-31.552-3.671-39.966S587.392,107,587.392,107s1.578,18.931,0,24.979a142.229,142.229,0,0,0-3.155,24.19c0,4.733,3.418,25.242,2.629,30.763s-4.207,17.617,1.052,32.867A66.106,66.106,0,0,1,589.5,234.26c0,8.151-.263,44.962,7.888,54.953Z" transform="translate(-538.115 -84.466)" fill="#43be80"/>
            <path id="Path_284" data-name="Path 284" d="M596.484,283.907c-1.052-1.052-5.96-29.974-6.31-38.038s-4.908-11.7-4.908-17.331.35-22.9-3.681-30.829c-.876,0-.7,12.226-4.557,20.466s1.752,13.673,1.4,18.054-2.1,13.322.176,18.405-.877,31.158-.877,31.158Z" transform="translate(-517.741 -79.773)" fill="#2a3a6c"/>
          </g>
          <path id="Path_285" data-name="Path 285" d="M630.676,277.5h-87.82l-26.819,37.862,47.854,277.482h45.75l47.854-279.06Z" transform="translate(-516.036 -75.645)" fill="#b6ced6"/>
          <path id="Path_286" data-name="Path 286" d="M621.052,504.984H549.13l13.123,76.092H608Z" transform="translate(-514.399 -63.877)" fill="#7dabb8"/>
          <path id="Path_287" data-name="Path 287" d="M610.955,502.363H598.37l13.6,78.848h7.011Z" transform="translate(-564.114 -64.012)" fill="#37686f"/>
          <path id="Path_288" data-name="Path 288" d="M653.175,277.5H626.356l-26.819,37.862,34.731,201.39h12.389l-20.3-200.338Z" transform="translate(-599.537 -75.645)" fill="#7dabb8"/>
        </g>
        <path id="Path_289" data-name="Path 289" d="M235.744,175.5a28.187,28.187,0,0,1-1.9,2.821" transform="translate(329.33 -44.209)" fill="none" stroke="#2d509d" stroke-miterlimit="10" stroke-width="1"/>
        <g id="Group_1719" data-name="Group 1719" transform="translate(50.137 78.045)">
          <g id="Group_1702" data-name="Group 1702" transform="translate(248.491 148.555)">
            <g id="Group_1701" data-name="Group 1701" transform="translate(0 0.012)">
              <path id="Path_290" data-name="Path 290" d="M467.581,340.872c-4.223-.6-99.3-2.294-99.3-2.294s-1.055,7.039,13.849,7.024,98.953,2.479,98.953,2.479Z" transform="translate(-356.019 -262.384)" fill="#9cc0c7"/>
              <path id="Path_291" data-name="Path 291" d="M470.721,266.133l-19.735.485a3.566,3.566,0,0,0-3.427,4.165l12.211,71.543,29.461.552-13.362-72.564A5.108,5.108,0,0,0,470.721,266.133Z" transform="translate(-447.507 -266.132)" fill="#9cc0c7"/>
            </g>
            <path id="Path_292" data-name="Path 292" d="M484.967,342.835l-25.872-.641-13.2-71.586a3.6,3.6,0,0,1,3.626-4.1l15.669-.385a4.762,4.762,0,0,1,4.877,3.651Z" transform="translate(-441.491 -266.12)" fill="#25545c"/>
            <path id="Path_293" data-name="Path 293" d="M467.457,270.337l-16.857.686,12.339,66.661,17.982.624Z" transform="translate(-442.451 -265.902)" fill="#43be80"/>
            <ellipse id="Ellipse_293" data-name="Ellipse 293" cx="1.04" cy="1.04" rx="1.04" ry="1.04" transform="translate(43.52 79.256)" fill="#25545c"/>
            <path id="Path_368" data-name="Path 368" d="M1.059,2.08H7.065A1.05,1.05,0,0,0,8.124,1.04,1.05,1.05,0,0,0,7.065,0H1.059A1.05,1.05,0,0,0,0,1.04,1.05,1.05,0,0,0,1.059,2.08Z" transform="translate(41.588 81.083) rotate(-178.623)" fill="#25545c"/>
            <path id="Path_369" data-name="Path 369" d="M1.059,2.08H7.065A1.05,1.05,0,0,0,8.124,1.04,1.05,1.05,0,0,0,7.065,0H1.059A1.05,1.05,0,0,0,0,1.04,1.05,1.05,0,0,0,1.059,2.08Z" transform="translate(31.773 80.847) rotate(-178.623)" fill="#25545c"/>
          </g>
          <g id="Group_1705" data-name="Group 1705" transform="translate(0 280.071)">
            <path id="Path_294" data-name="Path 294" d="M732.166,581.191H720.422L706.4,560.507H565.291l-14.549,20.684H539.349l14.549-28.4s.526-3.857,7.012-5.434,41.368-10.868,41.368-10.868,8.564-1.051,11.919-4.908,43.91,0,43.91,0,3.068,3.155,10.43,4.733,40.316,10.517,40.316,10.517a14.352,14.352,0,0,1,8.414,6.836C720.422,559.28,732.166,581.191,732.166,581.191Z" transform="translate(-538.545 -383.991)" fill="#242837"/>
            <path id="Path_295" data-name="Path 295" d="M638.677,451.062l1.442,70.729H621.714l3.944-71.995Z" transform="translate(-533.123 -388.134)" fill="#242837"/>
            <path id="Path_296" data-name="Path 296" d="M641.037,517.417H622.65l-12.884,14.812h43.91Z" transform="translate(-534.114 -384.636)" fill="#43be80"/>
            <g id="Group_1703" data-name="Group 1703" transform="translate(0)">
              <path id="Path_297" data-name="Path 297" d="M732.822,436.216s.471-14.2-2.86-20.684c-.2-.394-.4-.793-.591-1.192-2.977-6.148-5.327-12.566-23.6-13.883l-129.012-9.29s-24-.176-32.158,13.672,3.936,30.149,3.936,30.149Z" transform="translate(-541.775 -391.167)" fill="#2a3a6a"/>
              <path id="Path_298" data-name="Path 298" d="M672.576,414.251s-96.957-3.321-111.243-8.8c-14.164-5.43-16.256-12.565-16.256-12.565L645.291,400.1S668.128,398.685,672.576,414.251Z" transform="translate(-484.98 -391.078)" fill="#232735"/>
            </g>
            <g id="Group_1704" data-name="Group 1704" transform="translate(2.827 29.662)">
              <path id="Path_299" data-name="Path 299" d="M714.295,447.933s-30.555,7.76-54.745,7.058S541.8,445.048,541.8,445.048Z" transform="translate(-526.076 -418.041)" fill="#396a70"/>
              <path id="Path_300" data-name="Path 300" d="M730.133,429.674,552.74,419.507s-17.529-2.1-16.126,10.167,8.063,17.178,19.281,17.528,153.9,3.857,153.9,3.857,19.983,2.8,20.334-8.414S730.133,429.674,730.133,429.674Z" transform="translate(-536.534 -419.37)" fill="#7dabb8"/>
            </g>
          </g>
          <g id="Group_1707" data-name="Group 1707" transform="translate(55.135 198.585)">
            <g id="Group_1706" data-name="Group 1706" transform="translate(1.867)">
              <path id="Path_301" data-name="Path 301" d="M673.085,345.419A41.389,41.389,0,0,1,654,342.2c-9.17-4.213-8.675-5.7-13.88-7.931s-20.571-8.675-23.792-10.657-7.436-10.162-11.649-9.914-12.392,11.153-8.674,21.066,16.853,18.835,25.528,22.553,17.5,8.338,19.736,10.321,6.783,8.763,18.183,1.576,13.631-4.46,13.631-4.46Z" transform="translate(-595.063 -313.69)" fill="#e1ecf4"/>
              <path id="Path_302" data-name="Path 302" d="M663.989,344.59s-4.7,24.988-23.784,18.048-27.414-14.542-32.04-16.822c-6.047-2.98-17.157-15.252-17.157-15.252s.9,10.882,10.321,16.83,19.287,11.63,22.261,12.621,14.608,9.035,14.608,9.035,7.954,5.981,15.39,1.024,17.6-7.436,17.6-7.436l1.983-19.084Z" transform="translate(-590.88 -312.817)" fill="#b3ccd7"/>
            </g>
            <path id="Path_303" data-name="Path 303" d="M672.215,376.576s-19.457-.394-27.871-6.31-28.528-15.776-32.472-18.8-10.123-9.729-10.123-9.729-1.578-2.761-5.259-1.446-.789,9.2-.789,9.2a17.043,17.043,0,0,1,2.1,4.6c.395,1.972,9.729,17.222,16.433,22.481s8.94,19.063,8.94,19.063l4.207,2.892s13.278-2.1,14.067-2.235,17.354-4.076,17.354-4.076,11.438-4.6,12.095-4.733,4.076-.526,4.076-.526Z" transform="translate(-594.621 -312.332)" fill="#e1ecf4"/>
            <path id="Path_304" data-name="Path 304" d="M645.976,374.9c-.526-.263-8.706-.69-8.706-.69s-.317,13.08-16.487,16.236-24.453,3.418-24.453,3.418,1.84,7.756,10.78,7.231,18.405-6.573,26.819-7.1,12.358.131,12.358.131Z" transform="translate(-567.73 -310.559)" fill="#9cc0c7"/>
          </g>
          <path id="Path_305" data-name="Path 305" d="M598.984,365.756l1.972,36.942-19.085-1.33-.635-38.11Z" transform="translate(-451.389 -112.54)" fill="#4875ba"/>
          <path id="Path_306" data-name="Path 306" d="M604.671,415.357c-7.457,0-115.259,1.578-138.4,0s-145.49-13.147-145.49-13.147l-2.147-35.233,257.543,24.54s29.112-3.33,28.491,0S604.671,415.357,604.671,415.357Z" transform="translate(-178.929 -112.348)" fill="#2c4794"/>
          <path id="Path_307" data-name="Path 307" d="M571.876,349.346l-249.612-7.713v31.552l260.3,43.376s20.8-17.016,19.747-31.039-28.321-21.145-28.321-21.145Z" transform="translate(-180.41 -113.659)" fill="#3762ab"/>
          <path id="Path_308" data-name="Path 308" d="M355.512,391.94l-70.276-33.348V366.7l45.385,22.437Z" transform="translate(105.368 -112.782)" fill="#32529e"/>
          <line id="Line_129" data-name="Line 129" x2="234.552" y2="35.303" transform="translate(143.599 243.867)" fill="none" stroke="#2a448e" stroke-miterlimit="10" stroke-width="2"/>
          <path id="Path_309" data-name="Path 309" d="M600.6,372.056s.331,5.3-2.385,5.881S583.873,375,583.873,375v-5.029Z" transform="translate(-453.821 -112.193)" fill="#3762ab"/>
          <path id="Path_310" data-name="Path 310" d="M602.449,339.036l-6.569-.821a2.833,2.833,0,0,0-3.053,1.957l-9.426,29.8a2.43,2.43,0,0,0,1.576,3.048l12.7,4.071a2.593,2.593,0,0,0,3.371-2.2l3.468-33.252A2.373,2.373,0,0,0,602.449,339.036Z" transform="translate(-457.118 -113.837)" fill="#4875ba"/>
          <path id="Path_311" data-name="Path 311" d="M432.306,403.569l-11.569-21.561,163.545,30.5Z" transform="translate(-265.911 -111.57)" fill="#3762ab"/>
          <path id="Path_312" data-name="Path 312" d="M245.572,362.369l9.269-25.417s1.928-8.94-5.434-9.115-25.066,0-25.066,0l-46.8,68.889,51.885,4.383,15.25-38.738Z" transform="translate(319.081 -114.377)" fill="#2a3a69"/>
          <path id="Path_313" data-name="Path 313" d="M266.967,327.762l-7.7.051-43.115,70.842-17.386,19.807s-4,3.681,0,5.434,45.2,20.962,45.2,20.962,7.476,4.805,10.606-2.557c1.368-3.22-45.5-37.688-36.631-36.986C235.979,406.741,266.967,327.762,266.967,327.762Z" transform="translate(286.731 -114.376)" fill="#232838"/>
          <g id="Group_1708" data-name="Group 1708" transform="translate(522.013 128.623)">
            <path id="Path_314" data-name="Path 314" d="M206.766,248.326l-36.285,4.207,13.147,72.833,39.44-2.1s8.94,1.315,6.573-11.306l-12.135-62.57a2.688,2.688,0,0,0-3.014-2.15Z" transform="translate(-170.481 -247.166)" fill="#2a3a6b"/>
            <path id="Path_315" data-name="Path 315" d="M183.65,255.164l8.019,53.507s1.83,9.474-5.259,10.386a107.638,107.638,0,0,1-12.226.92s-5.522.789-6.047-8.808-3.55-54.033-3.55-54.033-1.111-8.2,2.6-8.7,9.626-1.224,9.626-1.224S182.992,246.093,183.65,255.164Z" transform="translate(-125.96 -247.168)" fill="#3b6771"/>
            <path id="Path_316" data-name="Path 316" d="M180.15,255.164l8.019,53.507s1.83,9.474-5.259,10.386a107.637,107.637,0,0,1-12.226.92s-5.522.789-6.048-8.808-3.55-54.033-3.55-54.033-1.111-8.2,2.6-8.7,9.626-1.224,9.626-1.224S179.492,246.093,180.15,255.164Z" transform="translate(-118.779 -247.168)" fill="#7dabb8"/>
            <path id="Path_317" data-name="Path 317" d="M201.43,252a67.212,67.212,0,0,1,15.119,44.7c-.921,27.2-.574,27.871-.574,27.871l-14.544.657-9.607-74.493,8.017-.93Z" transform="translate(-179.475 -247.032)" fill="#232735"/>
          </g>
          <path id="Path_318" data-name="Path 318" d="M434.236,330.59s-11.9-.429-16.492-1.931-14.682-4.175-19.936-3.913-14.844.714-17.949,5.034-3.554,7.121-3.554,7.121,25.614-1.257,30.251-.944,22.347,7.952,22.347,7.952Z" transform="translate(-69.136 -114.533)" fill="#2d3f75"/>
          <g id="Group_1709" data-name="Group 1709" transform="translate(402.15 119.181)">
            <path id="Path_319" data-name="Path 319" d="M332.6,238.191c.526,1.052,12.884,13.673,15.513,29.974s-4.935,64.243-21.5,88.7-46.539,54.6-46.539,54.6-3.768,5.17-10.342,2.015S211.656,382.8,211.656,382.8l-16.565-39.44s17.091,6.836,36.548-19.72,53.638-69.677,53.638-69.677l11.043-1.578,10.78-5.171,15.513-9.027Z" transform="translate(-195.091 -238.191)" fill="#e1ecf4"/>
            <path id="Path_320" data-name="Path 320" d="M239.732,360.981a49.388,49.388,0,0,0,42.858-8.414c21.035-15.776,41.45-56.888,39.375-46.762-1.95,9.515-8.18,31.15-13.694,41.071-8.765,15.772-21.379,28.665-29.64,38.808-11.29,13.862-10.543,12.131-18.77,20.42-2.828,2.849-5.935,7.676-13.179,4.571-7.562-3.241-48.239-25.908-48.239-25.908Z" transform="translate(-172.099 -234.775)" fill="#b6ced6"/>
          </g>
          <g id="Group_1711" data-name="Group 1711" transform="translate(399.121 95.955)">
            <path id="Path_321" data-name="Path 321" d="M336.441,248.34l-1.512-4.733-18.274,1.052,6.771,8.414Z" transform="translate(-307.728 -214.685)" fill="#2a3a6a"/>
            <rect id="Rectangle_2752" data-name="Rectangle 2752" width="28.309" height="32.793" transform="translate(4.327)" fill="#b6ced6"/>
            <rect id="Rectangle_2753" data-name="Rectangle 2753" width="6.944" height="32.793" transform="translate(4.327)" fill="#7dabb8"/>
            <path id="Path_322" data-name="Path 322" d="M306.673,244.413c.451-.291,11.053-7.222,12.441-14.532a7.507,7.507,0,0,0-1.292-5.982,5.486,5.486,0,0,0-4.4-2.513c-5.033-.183-10.533,6.469-10.766,6.752l1.626,1.335c1.383-1.681,5.652-5.986,8.947-5.986l.124,0a3.444,3.444,0,0,1,2.756,1.634,5.409,5.409,0,0,1,.936,4.364c-1.219,6.425-11.414,13.094-11.517,13.16Z" transform="translate(-275.833 -215.834)" fill="#b6ced6"/>
            <path id="Path_323" data-name="Path 323" d="M318.737,240.013l0,.61a10.359,10.359,0,0,0,3.153-3.591c1.729-3.755,2.8-7.712,1.841-10.517s-10.78-2.015-13.5-1.226-2.366,2.191-2.366,2.191-.526,1.4,2.366,2.016a66.147,66.147,0,0,0,8.5.789v9.729" transform="translate(-286.101 -215.671)" fill="#2a3a6a"/>
            <path id="Path_324" data-name="Path 324" d="M331.776,238.274a20.381,20.381,0,0,1-1.226-7.713c.263-3.856,1.226-7.537,5.959-6.924s5.368,1.4,5.368,1.4,4.449,1.671,2.082,5.264-6.276,5-6.381,10.693-2.734,5.1-2.734,5.1S334.051,246.781,331.776,238.274Z" transform="translate(-330.517 -215.721)" fill="#2a3a6a"/>
            <g id="Group_1710" data-name="Group 1710" transform="translate(10.129 33.066)">
              <path id="Path_325" data-name="Path 325" d="M330.713,294.909,304.6,257.047s-20.859,9.29-20.684,10.692,23.4,60.475,23.4,60.475Z" transform="translate(-277.689 -247.055)" fill="#e1ecf4"/>
              <path id="Path_326" data-name="Path 326" d="M329.064,261.1l-18.34,19.922-4.565-12.016Z" transform="translate(-299.441 -246.845)" fill="#7dabb8"/>
              <path id="Path_327" data-name="Path 327" d="M335.921,260.518l-27.871,12.8-4.558-19.983,20.859-5.785Z" transform="translate(-303.493 -247.547)" fill="#e1ecf4"/>
              <line id="Line_130" data-name="Line 130" x2="16.039" y2="29.974" transform="translate(19.982 22.452)" fill="none" stroke="#7dabb8" stroke-miterlimit="10" stroke-width="1"/>
              <path id="Path_328" data-name="Path 328" d="M314.642,292.353c-.35-.7-4.47-6.223-4.47-6.223a149.676,149.676,0,0,0-13.935,9.466c-5.434,4.383-11.744,12.34-11.744,12.34l6.269,15.995Z" transform="translate(-262.231 -245.551)" fill="#b7ced7"/>
            </g>
          </g>
          <g id="Group_1715" data-name="Group 1715" transform="translate(468.831)">
            <g id="Group_1714" data-name="Group 1714" transform="translate(0)">
              <path id="Path_329" data-name="Path 329" d="M276.132,234.315s-5.083-11.919-4.907-23.664S278.236,177,278.236,177L271.221,167l-13.75-4.557-7.106-6.836-26.293-6.836v2.279S220.566,162,220.04,164.766s-2.805,16.48-5.785,19.525,1.052,5.854,1.052,5.854l.35,20.155s6.486,7.012,7.012,7.012,11.569-6.836,11.569-6.836l9.816-7.888.176,13.5s5.96,2.98,5.434,9.816-5.785,25.943-5.785,25.943Z" transform="translate(-210.379 -123.636)" fill="#2a3a6c"/>
              <path id="Path_330" data-name="Path 330" d="M251.716,201.9s7.9,17.648-5.873,31.456c0,0,5.512-17.743-7.81-21.074S251.716,201.9,251.716,201.9Z" transform="translate(-208.392 -120.887)" fill="#242838"/>
              <path id="Path_331" data-name="Path 331" d="M279.6,156.745s2.8,18.231.876,26.819c-1.73,7.71-4.732,20.644-8.751,26.509a1.947,1.947,0,0,1-2.974.249c-2.779-2.782-8.046-8.952-5.277-13.436,3.681-5.96,11.569-15.776,2.629-19.807s-9.992,18.756-9.992,18.756-1.052,6.836-3.506,11.219-15.425,19.457-26.293,23.138-15.776-17.179-15.776-19.107-.526-7.362,4.207-8.064,3.155,5.434,7.362,5.785,5.96-3.33,6.836-6.485.526-6.227,5.259-8.636c3.571-1.816,13.523-7.15,18.2-9.66a2.7,2.7,0,0,0,1.041-3.764l-6.794-11.421s-4.733-5.785,3.33-12.095S279.6,156.745,279.6,156.745Z" transform="translate(-210.516 -123.369)" fill="#5f84c5"/>
              <path id="Path_332" data-name="Path 332" d="M270,160.508c-.085.014-.171.023-.258.029-1.527.113-16.518,1.208-22.837,1.042-6.661-.176-26.293,0-30.85-2.98s-8.94-9.466-5.259-17.7,10.167-13.147,12.8-14.2c1.306-.523,3.523-1.175,5.422-1.7a3.414,3.414,0,0,1,4.254,2.588h0a3.412,3.412,0,0,0,4.638,2.457l1.315-.542a3.367,3.367,0,0,1,.987-.243c1.489-.135,5.4-.155,5.12,3.4-.066.84-.121,1.584-.165,2.237a3.4,3.4,0,0,0,3.553,3.632c6.6-.318,19.269.31,24.7,5.136a7.312,7.312,0,0,0,.675.628c1.4.958,6.352,4.7,5.6,9.227C278.813,158.735,275.712,159.667,270,160.508Z" transform="translate(-207.971 -124.872)" fill="#43be80"/>
              <path id="Path_333" data-name="Path 333" d="M277.317,195.654s-1.052,1.052-2.892,0-5.784-5.785-11.438-6.7-6.179,2.439-6.31,3.585a3.542,3.542,0,0,0,2.892,4.171c2.892.657,4.733.131,6.7.789a17.678,17.678,0,0,0,6.047,1.183C274.688,198.677,276.266,196.442,277.317,195.654Z" transform="translate(-255.197 -121.566)" fill="#3861ab"/>
              <path id="Path_334" data-name="Path 334" d="M267.815,167.269s-4.031-2.98-7.275-3.242-4.82.613-4.907,1.622,3.418.394,5,.657S267.815,167.269,267.815,167.269Z" transform="translate(-244.629 -122.849)" fill="#b0cfd2"/>
              <g id="Group_1713" data-name="Group 1713" transform="translate(8.194 46.057)">
                <path id="Path_335" data-name="Path 335" d="M231.06,179l23.927.364s.724.228.592.886a.817.817,0,0,1-.789.657H231.06Z" transform="translate(-214.76 -168.129)" fill="#5e83c3"/>
                <g id="Group_1712" data-name="Group 1712" transform="translate(0)">
                  <ellipse id="Ellipse_294" data-name="Ellipse 294" cx="6.636" cy="9.526" rx="6.636" ry="9.526" transform="translate(1.731 1.711)" fill="#b7cfd4"/>
                  <path id="Path_336" data-name="Path 336" d="M269.818,182.747A14.622,14.622,0,0,0,266.154,174a.645.645,0,0,0-1.106.442,47.84,47.84,0,0,0-.527,7.5c0,.431-.485.547-.63.151q-1.338-3.635-2.963-7.105c-.33-.706-1.237-.467-1.268.341q-.14,3.532-.163,7.068c0,.62-.672.83-.932.294a27.587,27.587,0,0,0-3.376-5.333" transform="translate(-254.36 -168.398)" fill="none" stroke="#fff" stroke-miterlimit="10" stroke-width="2"/>
                  <path id="Path_337" data-name="Path 337" d="M262.343,191.011c4.613,0,8.367-5.013,8.367-11.175s-3.754-11.173-8.367-11.173-8.367,5.013-8.367,11.173S257.73,191.011,262.343,191.011Zm0-20.452c3.569,0,6.471,4.162,6.471,9.277s-2.9,9.279-6.471,9.279-6.471-4.163-6.471-9.279S258.774,170.559,262.343,170.559Z" transform="translate(-253.976 -168.664)" fill="#2d509d"/>
                </g>
              </g>
            </g>
            <path id="Path_338" data-name="Path 338" d="M249.553,237.463l-8.238-10.609-31.008,19.819-1.771,16.382s17.7-9.29,22.438-12.621S249.553,237.463,249.553,237.463Z" transform="translate(-176.834 -119.597)" fill="#7dabb8"/>
            <path id="Path_339" data-name="Path 339" d="M245.851,262.08l9.132-16.382-1.364,12.619Z" transform="translate(-221.512 -118.622)" fill="#3b6771"/>
            <path id="Path_340" data-name="Path 340" d="M243.91,259.277c.085-.178,3.21-14.976,3.21-14.976l6.222-4.819-1.637,6.279" transform="translate(-217.829 -118.943)" fill="#7dabb8"/>
            <path id="Path_341" data-name="Path 341" d="M256.816,254.9h-6.989l9.29-10.834Z" transform="translate(-229.825 -118.706)" fill="#3b6771"/>
          </g>
          <g id="Group_1716" data-name="Group 1716" transform="translate(355.272 151.766)">
            <path id="Path_342" data-name="Path 342" d="M371.119,310.127c-.263-3.681,16.039-34.22-4.47-40.117s-35.759,21.3-35.759,21.3l-29.711,54.053s-1.841,6.047-9.466,4.47-65.733-13.147-65.733-13.147L219.67,359.3l56.268,26.819s21.823,16.039,44.962-3.155S371.119,310.127,371.119,310.127Z" transform="translate(-202.448 -269.173)" fill="#f4f8fd"/>
            <path id="Path_343" data-name="Path 343" d="M292.631,336.363s-4.294,8.358-6.659,9.533c0,0,5.782,7.821,9.727,10.187C295.7,356.083,289.738,350.036,292.631,336.363Z" transform="translate(-190.864 -265.697)" fill="#7da9b7"/>
            <path id="Path_344" data-name="Path 344" d="M369.21,301.053S343.18,357.91,327.4,367.9s-23.927,4.47-41.018-2.892-43.121-16.959-43.121-16.959" transform="translate(-219.459 -267.524)" fill="none" stroke="#7da9b7" stroke-miterlimit="10" stroke-width="0.25"/>
            <path id="Path_345" data-name="Path 345" d="M369.344,334.368l.23,27.093L358.4,356.07,368,332.8" transform="translate(-340.915 -265.882)" fill="#7dabb8"/>
            <path id="Path_346" data-name="Path 346" d="M387.1,331.484,367.648,330.3l-10.123,17.485,18.537,12.621Z" transform="translate(-357.525 -266.011)" fill="#e7eef6"/>
          </g>
          <path id="Path_347" data-name="Path 347" d="M255.7,316.012c.227-.983,22.386-33.384.525-44.894s-37.687,20.22-37.687,20.22" transform="translate(265.18 -117.437)" fill="none" stroke="#b6ced6" stroke-miterlimit="10" stroke-width="4"/>
          <path id="Path_348" data-name="Path 348" d="M469.474,468s11.445-6.836,8.615-14.724-7.563-10.254-19.395-16.3-32.341-18.931-32.341-18.931l-168.54-5.127s-10.254-3.155-17.879,3.484-14.724,15.841-14.461,22.415,2.015,13.673,22.174,16.039S469.474,468,469.474,468Z" transform="translate(45.204 -110.01)" fill="#2a3a6c"/>
          <path id="Path_349" data-name="Path 349" d="M365.615,478.51c-1.594,3.686-6.429,41.013-6.429,41.013H340.605L344.112,475Z" transform="translate(37.032 -106.759)" fill="#242837"/>
          <path id="Path_350" data-name="Path 350" d="M382.346,529.446s1.9,6.126,20.121,7.7,90,10.517,90,10.517,7.362,1.052,9.991,6.573,13.673,26.819,13.673,26.819H504.825l-13.673-20.246H235.318l-14.2,20.246H209.551l12.884-24.453a12.084,12.084,0,0,1,10.517-8.414c8.677-1.052,90.975-11.569,90.975-11.569s11.8.6,20.051-8.88S382.346,529.446,382.346,529.446Z" transform="translate(24.35 -104.228)" fill="#242837"/>
          <path id="Path_351" data-name="Path 351" d="M367.087,517.333H348.7l-13.857,14.812h44.883Z" transform="translate(28.981 -104.569)" fill="#43be80"/>
          <path id="Path_352" data-name="Path 352" d="M453.574,423.821s-82.823-1.26-101.579-1.962S275.569,418,275.569,418s-9.29-.131-9.29-2.257-.876-6.445,9.641-6.477,131.115,2.243,131.115,2.243l34.707,4.233Z" transform="translate(27.263 -110.16)" fill="#232837"/>
          <g id="Group_1718" data-name="Group 1718" transform="translate(281.552 276.561)">
            <g id="Group_1717" data-name="Group 1717" transform="translate(0 1.756)">
              <path id="Path_353" data-name="Path 353" d="M455.952,477.09c-.526.175-51.711,9.816-97.285,5.259s-100.616-24.015-100.616-24.015Z" transform="translate(-248.033 -385.939)" fill="#376972"/>
              <path id="Path_354" data-name="Path 354" d="M421.816,402.822l-3.681,11.218s-3.506,14.55,3.681,20.334c7.309,5.883,39.264,25.416,39.264,25.416s8.59,5.785,6.135,10.517c-.761,1.47-1.388,2.753-1.891,3.825a15.19,15.19,0,0,1-13.8,8.8l-.256,0c-8.59-.175-70.116-.35-98.513-4.382-25.4-3.606-96.776-11.7-111.579-13.368a19.394,19.394,0,0,1-7.544-2.439c-3.56-2.055-7.832-5.747-8.136-11.714-.526-10.342,6.661-12.8,18.931-11.919,11.186.8,61.129,3.546,69.862,4.026a20.889,20.889,0,0,1,2.108.24c3.626.572,18.676.9,27.419-30.385l6.836-23.488Z" transform="translate(-225.465 -389.5)" fill="#7dabb8"/>
            </g>
            <path id="Path_355" data-name="Path 355" d="M371.96,402.646s-8.545,16.082-3.734,27.732l-67.784-26.243s-8.326,28.639-14.549,34.181-17.508,5.269-17.508,5.269,8.76-1.467,14.193-8.007c5.321-6.4,18-47.749,18-47.749Z" transform="translate(-174.908 -387.83)" fill="#37686f"/>
          </g>
          <circle id="Ellipse_295" data-name="Ellipse 295" cx="3.484" cy="3.484" r="3.484" transform="translate(452.924 302.902)" fill="#2a3a6c"/>
          <circle id="Ellipse_296" data-name="Ellipse 296" cx="3.484" cy="3.484" r="3.484" transform="translate(421.897 297.549)" fill="#2a3a6c"/>
          <path id="Path_356" data-name="Path 356" d="M257.5,343.19l-28.66,97.285s-4.678,6.011-11.514,3.381S175.9,424.871,175.9,424.871a8.019,8.019,0,0,1-2.583-8.191c.908-3.136,3.813-12.489,3.813-12.489a25.587,25.587,0,0,1,1.481-6.31c1.315-3.681,2.366-6.836,2.366-6.836s1.84-3.944,6.047-3.681,23.4,0,23.4,0,5.689,1.315,9.681-12.095,12.381-35.5,12.381-35.5.55-5.785,6.335-5.522,12.431-.008,12.431-.008S259.936,334.906,257.5,343.19Z" transform="translate(320.986 -114.041)" fill="#376972"/>
          <path id="Path_357" data-name="Path 357" d="M251.594,343.19l-28.66,97.285s-4.47,8.94-11.306,6.31-44.962-20.246-44.962-20.246L194.538,412.6l-19.457-9.729s-3.681-1.315-2.366-5,2.366-6.836,2.366-6.836,1.841-3.944,6.047-3.681,23.4,0,23.4,0,5.689,1.315,9.68-12.095,12.382-35.5,12.382-35.5a6.108,6.108,0,0,1,6.335-5.522c5.79.008,12.432-.008,12.432-.008S254.034,334.906,251.594,343.19Z" transform="translate(333.557 -114.041)" fill="#7dabb8"/>
          <path id="Path_358" data-name="Path 358" d="M377.266,394.147,227.131,376s-6.047-1.052-7.888,4.207a52.94,52.94,0,0,0-2.1,6.836s0,3.944,4.733,4.733S371.219,411.5,371.219,411.5s6.573,1.841,8.677-3.681a58.535,58.535,0,0,0,2.629-8.151S384.16,394.98,377.266,394.147Z" transform="translate(149.805 -111.885)" fill="#2a3a6c"/>
        </g>
        <g id="Group_1722" data-name="Group 1722" transform="translate(495.427 322.441)">
          <path id="Path_359" data-name="Path 359" d="M247.878,471.623,259.973,558s5.259,26.994-19.807,26.994H131.623a16.079,16.079,0,0,1-11.486-4.6c-3.155-3.2-5.3-8.194-1.272-15.382,8.064-14.373,50.483-93.384,50.483-93.384" transform="translate(-67.546 -351.331)" fill="none" stroke="#282c3e" stroke-miterlimit="10" stroke-width="2"/>
          <path id="Path_360" data-name="Path 360" d="M294.577,471.623,306.672,558s5.259,26.994-19.807,26.994H178.322a16.079,16.079,0,0,1-11.486-4.6c-3.155-3.2-5.3-8.194-1.272-15.382,8.064-14.373,50.483-93.384,50.483-93.384" transform="translate(-163.36 -351.331)" fill="none" stroke="#282c3e" stroke-miterlimit="10" stroke-width="2"/>
          <line id="Line_131" data-name="Line 131" x1="49.637" transform="translate(137.561 169.325)" fill="none" stroke="#282c3e" stroke-miterlimit="10" stroke-width="2"/>
          <line id="Line_132" data-name="Line 132" x1="49.637" transform="translate(25.026 169.325)" fill="none" stroke="#282c3e" stroke-miterlimit="10" stroke-width="2"/>
          <g id="Group_1720" data-name="Group 1720" transform="translate(102.032 83.963)">
            <path id="Path_361" data-name="Path 361" d="M199.895,437.081H170.27s-12.8,15.075,0,32.779h29.624S211.464,453.47,199.895,437.081Z" transform="translate(-164.583 -437.081)" fill="#b6ced6"/>
            <path id="Path_362" data-name="Path 362" d="M198.285,437.081h-8.934a27.171,27.171,0,0,1,3.47,5.563,35.209,35.209,0,0,1,2.231,9.087c.159,2.671-.165,10.079-6.114,10.162s-24.513,0-24.513,0,2.3,5.609,4.236,7.968h29.624C198.438,468.667,210.153,453.47,198.285,437.081Z" transform="translate(-162.974 -437.081)" fill="#7eabb6"/>
          </g>
          <g id="Group_1721" data-name="Group 1721" transform="translate(146.326)">
            <path id="Path_363" data-name="Path 363" d="M146.817,357.248H131.742l-16.477,104.3,8.764,12.446h30.15l9.115-12.446Z" transform="translate(-115.265 -357.248)" fill="#b6ced6"/>
            <path id="Path_364" data-name="Path 364" d="M146.234,357.248H131.159L126.523,386.6h24.348Z" transform="translate(-114.682 -357.248)" fill="#fff"/>
            <path id="Path_365" data-name="Path 365" d="M129.152,357.248h-2.629l2.629,29.348h4.637Z" transform="translate(-97.6 -357.248)" fill="#b6ced6"/>
            <path id="Path_366" data-name="Path 366" d="M146.817,385.153h4.636l11.84,74.948-9.114,12.446h-30.15L115.265,460.1h31.026s7.17-.35,5.162-14.724S146.817,385.153,146.817,385.153Z" transform="translate(-115.265 -355.804)" fill="#7dabb8"/>
          </g>
          <path id="Path_367" data-name="Path 367" d="M274.374,468.248H112.1a.573.573,0,0,0-.4.979l5.952,5.952a.575.575,0,0,0,.406.168H267.982a.574.574,0,0,0,.391-.154l6.392-5.953A.573.573,0,0,0,274.374,468.248Z" transform="translate(-76.658 -351.505)" fill="#b5ced9"/>
        </g>
        <line id="Line_133" data-name="Line 133" x1="718.961" transform="translate(0 556.907)" fill="none" stroke="#242837" stroke-miterlimit="10" stroke-width="1"/>
      </g>
    </g>
  </g>
</svg>
