<svg xmlns="http://www.w3.org/2000/svg" viewBox="0 0 4633.58 1309.85">
  <g id="Слой_2" data-name="Слой 2">
    <g id="Слой_1-2" data-name="Слой 1">
      <path
        d="M4633.58,1082.47h-94.83c-.18-2.2-.46-4-.45-5.75.24-47.15.21-94.3,1-141.44.21-12.94,2.81-25.85,4.43-38.76,1.28-10.26,2.76-20.48,4.1-30.73a33.77,33.77,0,0,0,0-4.28c-3.25-.23-3.57,2.19-4.4,3.87-4.76,9.63-9.72,19.18-14.09,29-14.26,32-32.51,61.78-50.71,91.6q-28,45.78-55.4,91.88c-2.57,4.31-5.4,5.75-10.31,5.7-25-.24-50.05-.11-75.07-.11h-6c-1.47-4.7-2.07-366-.7-377.63h94.32c.14,1.87.4,3.67.4,5.47,0,53.76.23,107.53-.16,161.3-.08,10.67-2.45,21.32-3.83,32-1.06,8.19-2.24,16.38-3.31,24.57a6.16,6.16,0,0,0,.87,4,30.23,30.23,0,0,0,2.37-3.64c5.51-11.79,11.16-23.53,16.39-35.44A481.91,481.91,0,0,1,4467,839.2q38.7-64.28,76.7-129c2.29-3.87,4.74-5.31,9.25-5.27,26.88.25,53.77.17,80.65.2Z"/>
      <path
        d="M4633.58,1255c-2.69,0-5.38.08-8.06.08H2811.75V1243.7a28.57,28.57,0,0,1,3.6-.56c2.48-.09,5,0,7.44,0q900.47,0,1800.93,0c3.29,0,6.58-.32,9.86-.49Z"/>
      <path
        d="M2241.21,705.35h7.73c33.3,0,66.6.1,99.9-.11,4.68,0,7.39,1.35,10,5.31q42.43,64.53,85.24,128.81c1.2,1.8,2.47,3.55,3.7,5.33l1.22-.45V706.48c5-1.34,86.54-1.7,95.36-.46V844.3l1.55.48,92.37-139.22h112.42a4.32,4.32,0,0,1,.3.65c0,.18.1.45,0,.57Q2684.89,798.64,2618.4,891l132.85,191.8c-2.75.21-4.5.47-6.25.47-35.16,0-70.32-.08-105.48.14-4.46,0-6.59-1.73-8.68-5.23q-39.21-65.81-78.63-131.48c-1.16-1.93-2.34-3.83-3.7-6.06-2.73,1.43-3.92,3.28-3.91,6,0,1.66,0,3.31,0,5v130c-5.06,1.29-87.45,1.58-95.29.33v-7.08q-.06-62.67-.11-125.33c0-3.23.51-6.7-3.72-8.74-1.23,1.88-2.5,3.7-3.65,5.6q-39.22,65.07-78.34,130.21c-2.63,4.4-5.32,6.27-10.64,6.23-34.34-.28-68.67-.14-103-.14h-6c-.26-.55-.37-.72-.43-.91s-.19-.46-.12-.57Q2309,986,2375,890.42Z"/>
      <path
        d="M3241.67,933.19c.92-1.75,1.91-3.46,2.74-5.24,3.65-7.87,7.5-15.67,10.84-23.67,12.07-28.9,27.73-55.85,43.86-82.59,22.33-37,44.29-74.21,66.23-111.43,2.27-3.86,4.73-5.36,9.25-5.32,24.6.22,49.22.11,73.83.11h6.5v376.24c-4.32,1.33-82.75,1.85-94.43.57-.14-1.66-.43-3.44-.42-5.21.16-47.15.13-94.3.7-141.45.13-10.47,2.33-20.93,3.7-31.37,1.72-13.11,3.59-26.21,5.35-39.32a16.12,16.12,0,0,0-.17-3c-3.49-.37-3.77,2.43-4.67,4.24-5.33,10.74-10.76,21.43-15.72,32.34-12.19,26.77-27,52.08-42.33,77.13q-31.41,51.3-62.13,103c-2.3,3.83-4.71,5.38-9.26,5.34-25.44-.23-50.88-.11-76.32-.11h-5.86c-1.53-5.87-1.54-372.13-.11-377.75H3247c.13,2.28.34,4.28.34,6.28,0,53.78.18,107.55-.14,161.32-.06,9.64-2.06,19.28-3.31,28.91-1.22,9.42-2.64,18.82-3.93,28.24a9.77,9.77,0,0,0,.23,2.32Z"/>
      <path
        d="M3749.53,881.41c7.41,5.41,15,9.89,21.27,15.73,25.74,23.82,35.82,53.42,30.52,88a143,143,0,0,1-6.26,25.21c-10.56,30.42-31.39,51-61.5,62.15-19.82,7.37-40.44,10.12-61.47,10.15q-75.37.08-150.76,0c-1.82,0-3.63-.19-5.8-.32V705.85a45.42,45.42,0,0,1,4.69-.48c49.22,0,98.44-.19,147.66.09,23.7.14,46.44,5.06,67.16,17.1,30,17.42,46.52,43.74,50.85,78,1.41,11.15,1.64,22.23-1.2,33.24a76,76,0,0,1-30.14,44.1C3752.9,879.06,3751.22,880.22,3749.53,881.41ZM3610.72,999c1.79.13,2.8.27,3.81.27,17.15,0,34.3.08,51.44-.06A56.32,56.32,0,0,0,3677,998c17.49-3.69,29.66-17.81,30.54-35.19.89-17.73-9.82-33.45-26.95-38.63a61.61,61.61,0,0,0-16.46-2.32c-15.9-.3-31.82-.12-47.73-.1-1.81,0-3.62.22-5.7.36Zm.38-213.28c-1.25,8.55-.91,62.4.31,66.9a8.28,8.28,0,0,0,1.73.34c18,0,36,.15,54,0,7.72-.08,14.44-3.29,20.14-8.45a33.83,33.83,0,0,0,9-36.87,33.3,33.3,0,0,0-31-21.82c-14.26-.17-28.52,0-42.78,0Z"/>
      <path
        d="M1866.68,881.87c2,1.21,3.44,2.08,4.86,2.89,35.27,20,54,59,47.7,99.19-2.21,14.2-5.92,27.89-12.54,40.68-13.42,25.93-35,41.79-62.44,50.33-18.12,5.63-36.75,7.74-55.66,7.74q-74.44,0-148.88,0c-2,0-4-.2-6.38-.32V705.74c2-.14,3.82-.37,5.61-.37,48.59,0,97.18-.15,145.78,0,22,.09,43.2,4.09,62.91,14.25,34.2,17.61,52.58,45.94,56.62,84,1.19,11.24.9,22.26-2.37,33.15a76,76,0,0,1-29.43,41C1870.8,879,1869.11,880.18,1866.68,881.87ZM1727.86,999c1.79.13,2.8.27,3.81.27,17.36,0,34.72.07,52.08-.07a56.48,56.48,0,0,0,11.06-1.27c17.8-3.75,29.7-17.85,30.45-35.83a37.59,37.59,0,0,0-28-38.4,62.42,62.42,0,0,0-15.3-1.94c-16.12-.24-32.24-.1-48.36-.08-1.82,0-3.63.22-5.69.35Zm0-146.32c1.91.13,3.51.33,5.11.33,16.55,0,33.09.13,49.63,0,18.91-.17,33.47-14.83,33.5-33.49a33.35,33.35,0,0,0-33.31-33.73c-17-.19-33.92-.06-50.87,0a28,28,0,0,0-4.06.62Z"/>
      <path
        d="M3093.11,705.79v375.82c-4.5,1.31-85.39,1.75-94.89.46V796.64h-69.1a27.23,27.23,0,0,0-.86,4.06c-1.39,25-2.57,50-4.15,75-1.34,21-2.33,42.15-4.93,63.05-4,32.12-13.3,62.67-31.79,89.77-21.55,31.59-51.49,49.64-89.41,53.91-11.45,1.29-23.1.81-34.66,1a47.53,47.53,0,0,1-6.28-.75v-88c5.54-.46,10.85-.76,16.12-1.37,17.61-2.07,31-10.79,40-26,7.3-12.3,11.15-25.85,13.09-39.81,2.21-16,3.82-32,5-48.09,2.26-30.73,4-61.5,6-92.24,1.67-25.17,3.49-50.33,5.26-75.5.12-1.82.35-3.64.56-5.86Z"/>
      <path
        d="M2225.24,992.93v89.4H1964.68V705.69H2225.2v88.85h-164c-1.5,5.62-1.6,53.06-.19,59.17h149.66c1.35,5,1.67,73.6.43,82.26H2060.42v57Z"/>
      <path
        d="M3846.87,1082.7V706.4c4.53-1.27,85.27-1.68,95.06-.43,0,14,0,28.23,0,42.41v85.76h7.17c17.78,0,35.57,0,53.36,0,20.79,0,41.27,2.36,61.1,8.92,25,8.25,44.76,22.91,56.71,46.91,6.14,12.35,9.49,25.53,11.14,39.17,2.6,21.34,2.23,42.58-3.77,63.35-14,48.57-46.5,77.34-95.7,87.26a161.11,161.11,0,0,1-30.8,2.81c-49,.28-98,.13-147,.13Zm95.2-83.72h7c15.5,0,31,0,46.5,0a84.48,84.48,0,0,0,9.27-.57c17.16-1.92,28.76-11.62,32.62-28.4a98,98,0,0,0,2.47-23.34,38.48,38.48,0,0,0-38.84-37.84q-26.35,0-52.71.13h-6.32Z"/>
      <path
        d="M4271.23,1082.32h-93.95v-376c4.67-1.26,79.87-1.77,92.82-.65a4.51,4.51,0,0,1,.47.4c.13.15.33.32.33.48q.18,184.83.33,369.65Z"/>
      <path
        d="M4384.17,582h73.1c3.25,12.7,10.46,21,24.29,20.28,12.27-.62,18.58-8.56,21.34-20.19H4575c1.43,5.23.46,10.35-.28,15.32-6.63,44.91-39.31,69.24-75.65,75.29-23.49,3.91-46.24,1.14-67.47-10-27.24-14.33-42.5-37.16-46.32-67.65C4384.78,591,4384.58,586.87,4384.17,582Z"/>
      <path
        d="M2210.88,1202.74l-64.31,96.1c-1.15,1.72-2.27,3.46-3.51,5.11a9.84,9.84,0,0,1-9,4.4c-3.44-.22-6.9,0-10.69,0V1178.45c5.31-1.42,10.6-.51,15.68-.61l.62.7c.13.15.33.29.37.46a8.25,8.25,0,0,1,.31,1.83q0,48.06.07,96.12v7.68c1.07-1.6,1.82-2.63,2.46-3.71,2-3.38,3.78-6.89,6-10.15q27.91-41.74,55.93-83.42c7-10.47,9.71-11.51,23.05-8.77V1307.8h-16.57c-.77-6.68-.23-13.64-.33-20.56s0-14.06,0-21.08v-63.42Z"/>
      <path
        d="M2098.34,1243.5c-.83,5.91-1.18,11.94-2.56,17.72-6.42,27-24.54,44-52.15,47.7-27,3.66-51.91-6.11-65.56-31.17-4.32-7.93-6.48-16.53-7.48-25.41-1.69-14.91.22-29.32,7-42.84,7.71-15.45,20-25.58,36.62-30.24,16.29-4.57,32.48-4,47.87,3.1,22.89,10.63,33.14,30,35.57,54.24a67.43,67.43,0,0,1,0,6.82Zm-64.59-52.07c-23.12.06-39.26,13.09-44.26,35.58a74.85,74.85,0,0,0-.81,28.33c3.52,22,16.89,35.76,38.29,38.85,17.85,2.58,42-3.33,50.36-31.34a68.6,68.6,0,0,0,.64-37.35C2072.27,1203.47,2056.52,1191.37,2033.75,1191.43Z"/>
      <path
        d="M2495.53,1178.12h75.91v130c-2.66.07-5.25.17-7.85.21s-5.36,0-8.85,0c-.58-6.54-.22-12.87-.28-19.18s0-12.82,0-19.23v-78.1c-14.47-.63-28.42-.25-43-.24-.52,6.79-1.08,13.3-1.51,19.83-1.24,19-3.36,37.87-7.56,56.48a97.57,97.57,0,0,1-8.91,25c-6.6,12.21-16.79,17.82-30.67,16.51-5.66-.54-6.24-1.21-6.32-6.85,0-2.24,0-4.49,0-7.2a56.59,56.59,0,0,1,5.8-.4c6.9.2,11.81-3,15.44-8.63,5.37-8.33,7.84-17.74,9.85-27.24,3.73-17.64,5.11-35.59,6.25-53.54.51-8,.82-16.11,1.25-24.16C2495.09,1180.4,2495.33,1179.42,2495.53,1178.12Z"/>
      <path
        d="M1886.57,1259.45v48.47H1869.7V1178.47a6.33,6.33,0,0,1,1.82-.64c14.25,0,28.51-.12,42.76.2a56.69,56.69,0,0,1,13.38,2.26c20.39,5.51,29.2,21.28,27.92,40.58-1.41,21.15-15.5,35.15-37.54,37.68-7.77.89-15.66.65-23.5.89C1892.11,1259.51,1889.69,1259.45,1886.57,1259.45Zm-.17-14.47c10.22,0,19.6,1,28.69-.2,19.72-2.61,29.77-23.19,20.07-40.25a27.78,27.78,0,0,0-24.4-13.13c-6.82,0-13.63,0-20.45.11a27.6,27.6,0,0,0-3.91.59Z"/>
      <path
        d="M2605.42,1308.1V1178.46c5.41-1.32,10.67-.71,16.7-.45.55,6.27.19,12.41.25,18.52s0,12,0,18v19.27c2.85.08,5.25.14,7.65.22,10.52.38,21.1.21,31.53,1.37,5.58.62,11.19,3,16.27,5.55,8,4.06,12.62,11.15,14.41,19.91,4.31,21.05-5.66,41.54-32.42,46.06a93.64,93.64,0,0,1-14.19,1.15c-11.17.16-22.34,0-33.5,0Zm17.32-13.47c8.67,0,16.5.12,24.33-.06a59.43,59.43,0,0,0,11-1.21c12-2.55,18.26-10.85,17.94-23.2s-6.58-20-18.95-21.31c-11-1.14-22.23-.63-33.36-.8-.3,0-.6.5-1,.86Z"/>
      <path
        d="M2386.39,1191.55v43.85h49.87v13.46h-49.73c-1.05,15.14-.18,29.69-.53,44.9,2.71.14,4.9.35,7.1.36,16.12,0,32.25,0,48.37,0,2.21,0,4.41.22,6.93.35v12.72c-4.33,1.34-70.16,1.71-78.31.47-1.22-4.88-1.38-123-.1-129.57h78.24v13.43Z"/>
      <path
        d="M1738.37,1192.46c-7.07,12.54-7.43,11.72-16.75,5.72-10.89-7-23.13-8.74-35.76-6.24-15.89,3.16-25.74,13.62-31.18,28.18a65.65,65.65,0,0,0,.28,47.31c6.55,17.34,21.62,27.41,40.23,27.73,12.64.21,24.17-2.38,33.57-11.58,2.82-2.76,4-2.53,6.76.23,1.89,1.89,3.61,4,5.65,6.21a45,45,0,0,1-13.49,11.7c-19,11.5-52.19,11.73-72.38-5.34a53.57,53.57,0,0,1-15-20.23c-8.49-20.05-9.72-40.57-1.79-61,9.19-23.66,27.06-36.3,52.28-38.43,15.35-1.3,29.58,2,42.15,11.28C1734.74,1189.35,1736.42,1190.86,1738.37,1192.46Z"/>
      <path
        d="M2307.3,1192.1v115.7h-17.09c-.32-7.37-.1-14.93-.14-22.48s0-15.3,0-23v-70h-41.73v-13.5c4.36-1.46,94.27-1.71,100.74-.18v13.43Z"/>
      <path
        d="M1790.45,1192.27h-41.61v-13.49c4.59-1.33,93.16-1.6,100.4-.28v13.57c-6.77.07-13.48.17-20.19.2s-13.55,0-21.19,0c-.22,13.31-.08,26-.1,38.76s0,25.21,0,37.81v38.92h-17.09c-.07-6.11-.17-12.41-.2-18.72s0-12.81,0-19.21v-77.57Z"/>
      <path  fill="#339966"
            d="M117.25,578a53.27,53.27,0,0,0,5.86.64c18,0,36,0,54,.08a13,13,0,0,0,9.91-4c28.81-28.53,57.81-56.86,86.57-85.44,21.71-21.58,43-43.55,64.72-65.15Q479.69,283.28,621.2,142.64q34.53-34.35,69-68.75c1.72-1.71,3.55-3.29,5.84-5.41l351.42,347.13c1.82-2.19,3.32-3.77,4.55-5.54,26.87-38.78,52-78.69,74.88-119.93,10.45-18.79,20.3-37.91,30.43-56.88.75-1.4,1.58-2.76,2.79-4.86,1.53,3,2.72,5.4,3.92,7.76,34.27,67.86,72.69,133.22,117.52,194.7,19.88,27.28,41.13,53.45,65.16,77.23,8.08,8,16.75,15.38,25.14,23.06,1.16,1.06,2.28,2.17,4.25,4.05-6.3,1.41-11.65,2.65-17,3.81a232.16,232.16,0,0,1-48.62,5.2c-15.49,0-31-1.48-45.62-7.47a44.58,44.58,0,0,0-5.65-1.36c1.48,2.68,2.21,4.33,3.23,5.79,30.27,43.32,62.92,84.68,101.36,121.15,19.87,18.85,41.1,35.92,67.21,48.1-9.76,1.35-18.37-.2-27-.73s-17.3-1.38-25.92-2.34c-8.82-1-17.64-2.07-26.4-3.48s-17.5-3-26.15-5c-8.45-1.93-16.87-4.13-25.13-6.74s-16.49-5.93-25.42-8a32.86,32.86,0,0,0,2.56,3.84c47.14,52.86,96.39,103.57,151.65,148.12,17.9,14.42,36.61,27.66,57.88,37.59-1.3,2.79-4,3.14-6,4.07a534.65,534.65,0,0,1-69.23,25.29,482.36,482.36,0,0,1-76.94,16.11,376,376,0,0,1-76.12,1.78c-28.66-2.36-56.3-8.67-82.77-19.94-4.54-1.94-9-4-14-6.31-.6,1.63-1.34,2.85-1.46,4.13-.22,2.47-.12,5-.12,7.44V1306c-2.46.31-4,.6-5.64.68-2.06.1-4.13,0-6.2,0q-524.1,0-1048.21,0c-11.45,0-11.06,1.63-11.06-11q0-264.37,0-528.76c0-11.56-.42-11,10.7-11H219.8c6.7.11,6.9.27,6.9,7.07q0,74.48,0,149v200.06c6.21,2.06,93.69,2.08,98.8.27-.82-3.3-2.32-6.61-2.25-9.89s1.7-6.5,2.89-10.57c-2.23,0-3.8-.14-5.33,0-6.06.66-10.56-2-13.6-6.88a89.23,89.23,0,0,1-6.79-13.23c-1.81-4.37-1.75-8.74,1.59-12.79,3.13-3.79,2.6-4.68-2.43-5.56-7.2-1.25-12-5.21-13.88-12.4-.9-3.39-1.69-6.82-2.74-10.17-1.71-5.49-.12-9.59,4.57-12.87,3.69-2.57,3.52-4.29-.63-5.69-7.26-2.44-11.2-7.39-12.38-14.81a38.37,38.37,0,0,0-1-4.21c-2-7.4-.79-13.34,6.63-17.32,3.32-1.78,2.69-4.45-.71-6.47-2.8-1.65-5.95-3.23-7.87-5.68a15.11,15.11,0,0,1-2.89-8.5,101.22,101.22,0,0,1,1.22-15.42c.57-4.46,3.36-7.45,7.42-9.23,1.31-.58,2.79-.84,4-1.52,1.87-1,1.93-2.54.64-4.11a5.24,5.24,0,0,0-1.46-1.13c-7.68-4.34-8.55-11-6.55-18.75.73-2.8,1.44-5.61,2.13-8.41,1.46-5.89,5.2-9.18,11.19-10,1.52-.22,3-.76,5.72-1.47-4.43-5.25-9.42-9.4-9.1-15.78s4.57-11.43,7.82-16.66c3.76-6.06,10.59-4.08,17.11-5-2.27-5.55-6.52-10.28-4.1-15.64a63.19,63.19,0,0,1,8.89-14c3.91-4.72,10-1.3,15.22-2-.39-3.63-3-4.66-4.55-6.39-6.13-6.7-6.5-14.89-.78-21.18,3.45-3.8,7.6-5.37,12.81-4.18,7,1.62,7.35,1.38,12.18-5.65-1-1.59-2-3.34-3.15-5-17.65-26.5-26-55.72-24.48-87.45,2-41.93,17-78.51,47.15-108.21,20.55-20.26,45.31-32.38,74.12-35.33,42.57-4.36,77.12,11,103.29,44.39C565,612,574.33,640.7,574.72,672.41c.54,43.69-14,81.5-43.91,113.19-20.92,22.16-46.82,34.8-77.16,38.52-31.26,3.83-59.48-3.24-84.48-22.6-1-.75-2.05-1.35-3-2-5.87,3.72-6.08,4.15-3.47,10.32,2,4.69,2.27,9.12-.69,13.54-5,7.47-13.46,9.19-21.06,4.19-1.8-1.18-3.55-2.43-6.45-4.44,1.18,6.26,5.54,10.76,2.8,15.89A85.68,85.68,0,0,1,329,852c-3.67,4.6-9.62,2.45-15.07,3.78,1.4,5.07,6.57,9,4.73,14.35-1.72,5-4.62,9.61-6.84,14.46-2.55,5.57-8.56,4.81-13.49,7a28.61,28.61,0,0,0,2.78,3.06c5.09,4.08,6.52,9.34,5.16,15.53-.76,3.42-1.64,6.82-2.4,10.25-1.2,5.36-4.37,8.72-9.76,10.06a17,17,0,0,0-3.59,1.85c.85,1.25,1.44,2.93,2.61,3.67,5.33,3.36,7.23,8.21,7.05,14.24-.11,3.51-.09,7,0,10.55.13,5.71-2.13,9.92-7.27,12.65-1.29.69-2.14,2.17-3.2,3.29,1.15,1,2.13,2.52,3.47,3,6.54,2.51,9.63,7.41,10.59,14.07a92.36,92.36,0,0,0,1.89,10.35c1.52,5.75.09,10.15-5.07,13.29a26.67,26.67,0,0,0-3.16,3c2.24,1,3.82,1.76,5.48,2.32a14.51,14.51,0,0,1,10,10.93c.55,2.21,1.24,4.38,1.81,6.58,2.53,9.8,2.52,9.81-2.2,18,.26.28.49.79.78.82,8.44.9,14.08,5.4,17.19,13.24a28.17,28.17,0,0,0,2.27,4.4c3.32,5.39,3.92,10.78.3,16.3a8.86,8.86,0,0,0-.42,2.43,31.27,31.27,0,0,0,4.63.6,15.36,15.36,0,0,1,13.38,6.53,162.42,162.42,0,0,1,9.19,13.92c1.22,2.08,2.62,3,4.85,3.11q2.79.09,5.58.09,321.48,0,643,0c3,0,6.09-.29,9.72-.47.18-3,.44-5.38.45-7.77q0-41.9,0-83.79,0-217.83.13-435.66a18.87,18.87,0,0,0-6.07-14.64Q847.06,407.61,677,237.62c-3.33-3.32-6.74-6.56-10.51-10.22-2.32,2.13-4.16,3.71-5.88,5.41q-71.49,70.69-142.95,141.41Q393.19,497.29,268.81,620.41a12.08,12.08,0,0,1-9.28,3.83q-127.23-.12-254.45-.07c-1.39,0-2.78-.16-5.08-.31,1.71-1.92,2.8-3.3,4-4.53Q75.1,549.07,146.17,478.86c8.31-8.21,8.35-8.17,8.35-19.78V293.38c0-1.25,0-2.49,0-3.73.08-6,.17-6.17,6.38-6.18q47.18,0,94.34,0c2.56,0,5.13-.33,9.3-.62-2.37-2.82-3.54-4.72-5.17-6.05-10.23-8.37-20.27-17-31-24.77-11.54-8.36-23.79-15.75-35.63-23.72-13.75-9.26-27-19.1-37.77-32A70.89,70.89,0,0,1,138,149c.07-30.35,12.28-54.5,36.06-72.74C186.17,67,199,58.6,211.71,50.05c16.5-11.12,32.63-22.65,46.2-37.37C261.49,8.8,264.87,4.74,269,0c.66,10.85-1.09,20.32-3.17,29.75-3.33,15-9.46,29-16.39,42.71-6.35,12.53-12.83,25-18.5,37.87a83.68,83.68,0,0,0-6.75,32.57,36.29,36.29,0,0,0,10.69,26.89c4.59,4.74,9.77,8.91,14.71,13.3,5.41,4.81,11,9.39,16.26,14.39,15.51,14.8,24.55,33.09,27.9,54.13,1.35,8.54,1.83,17.24,2.47,25.88.4,5.46.51,5.89,6.21,5.93,12.42.08,24.83-.09,37.24.1,3.94.06,6.55-1.71,9.15-4.29Q394.89,233.57,441,188,532.15,97.88,623.28,7.79C625,6.08,626.89,4.56,628.62,3L659.69,35.1C600,94.72,539.6,155.06,479.18,215.35S358.49,335.73,298.11,395.88,176.89,516.07,116.55,576.43Zm565.87,610.23c-3.3-4.61-7.81-5.4-12.78-5.35-11.16.11-22.33.05-33.49,0-3.79,0-7.51.26-10.37,3.14-1.72,1.72-3.56,1.8-5.68,1-1.54-.58-3.13-1-4.7-1.55-20.24-6.54-40.45-13.15-60.72-19.58-10.61-3.36-16.74,2-16.11,13.05.85,14.84,1.39,29.71,1.48,44.57.06,8.65-1,17.31-1.63,26-.65,9,5.1,13.58,13.69,10.69,1.57-.52,3.06-1.25,4.58-1.9l36.49-15.56,30.41-13c3.32,4.53,7.89,4.85,12.82,4.76q16.42-.29,32.87,0c5.12.09,9.88-.27,13.44-4.68,6.91,2.93,13.56,5.74,20.2,8.57,16.72,7.12,33.37,14.41,50.18,21.32,9.44,3.88,15.61-1,14.72-11-.06-.62-.16-1.23-.22-1.85-.64-7.81-1.4-15.62-1.89-23.45-.94-14.91.29-29.72,2.05-44.51,1.23-10.35-5.7-16.13-15.72-13.16-4.16,1.24-8.26,2.65-12.39,4ZM556,678.74c-.54-28.14-5.89-48.94-19.25-69.91-19.05-29.91-46.33-46.19-81.92-46.63A97.82,97.82,0,0,0,389,585.78c-36.17,30.58-52.12,69.88-48.11,117.09a112.86,112.86,0,0,0,24,60.85c19.21,24.67,45,37.38,76,38.06a93,93,0,0,0,52.48-14.58C534.53,761,553.81,722.5,556,678.74Zm-228.68,123c0,2.91,2.41,6.23,7.15,7.68,2.48.75,3.75,1.79,4.26,4.44.74,3.84,3.92,5.68,7.32,6.74,2.95.92,7.11-1.84,8.83-5.42,1.38-2.85.89-5.11-1.79-7.61-4.51-4.21-9.07-8.37-13.62-12.54-2-1.83-4.07-3.93-7-2.25S327.2,796.83,327.28,801.76ZM280.71,940c-3.64.71-4.73,3.12-5,5.89-.47,4.08-.86,8.19-1,12.29a6.64,6.64,0,0,0,4.61,7c3.38-3.83,7-2.35,10.66.36,5.26-5.42,2.94-11.94,3.55-17.83.27-2.5-.09-5-3.28-6.29C286.67,944.42,283.31,943.39,280.71,940Zm11-16.73c5.65-2,4.77-7.62,5.94-11.75,1-3.52,4-7.63-.46-11.52-3.31,2.27-5.93,2.49-8.08-1.62-1.32-2.54-4.72-2.28-5.78.63a102.48,102.48,0,0,0-4.13,16.1c-.27,1.47,1.15,3.27,1.78,4.91C287.13,917.72,287.13,917.72,291.74,923.26Zm19.88-60.39c-2.44.06-5.3,1.42-7.15-2.23-2.12-4.16-5.18-4.28-7.75-.49a86.44,86.44,0,0,0-6.27,11.3c-1.1,2.32-1.07,4.82,1.2,6.3,2.3-.12,4.72-1,6.09-.13,1.65,1,2.41,3.47,3.75,5.6,6.41-1.28,7.12-7.38,9.81-11.62C312.92,869.06,314.51,866.16,311.62,862.87ZM281.89,985.66c-1.2,2.12-2.79,3.62-2.61,4.85a133.81,133.81,0,0,0,3.48,16.7c.3,1,3.84,2.44,4.37,2,3.32-2.92,6.4-1.33,9.36.17,2.71-4.09,3.09-4.43,1.52-9.36-1.46-4.57-.38-10.56-6.55-13.34C288.44,990.73,285.46,988.72,281.89,985.66Zm21.32,40.81c-2.59,1.58-4.22,3.29-6,3.46s-3.73-1.17-5.54-1.83c-2.76,3.52-2.92,3.55-2.31,6,1,4.21,2.17,8.4,3.49,12.53.94,2.95,2.94,4.82,6.23,4.86,2.19-6.4,3.64-5.75,10.58-4C309.43,1039.82,307.74,1033,303.21,1026.47ZM319.55,1091c.82-6.38,4.69-5.82,9.32-4.34,1-7-3.72-11.46-5.78-16.7-.92-2.33-2.45-4.37-5.63-3.74l-3,4.55-5.78-2c-2.79,2.35-2.47,5-1,7.4C310.84,1081.26,311.15,1088.64,319.55,1091Zm3.94-267.17c-5.65.54-5.65.64-10.77,8.9-1.79,2.9-2.58,5.56,0,8.76,5.05-1.2,6.93,2.36,8.06,6.38,1,0,1.78.24,2.2,0,5-3.3,7.75-8.34,9.9-13.65.81-2-.16-4.53-2.68-4.64C326.26,829.35,324.63,826.83,323.49,823.82Zm16.37,277.87c-1.05,2-1.84,3.59-2.69,5.23l-6.15-.62c-.75,4.23,1.41,10.57,5,11.68,5.69,1.75,11.77,2.62,18.66.24C350.05,1111.69,347.27,1105,339.86,1101.69Z"/>
      <path fill="#339966"
            d="M354.34,896.67c1.78,4.94,3.6,12,6.78,18.39,8.56,17.18,26.38,24.59,44.91,19.32,14.83-4.21,26-13.53,34.44-26,12.84-18.79,31.1-27.63,53-30.43,23.72-3,46.53,1.85,69,8.24a312.18,312.18,0,0,1,37.39,13c20.92,8.94,37.13,23.72,49.17,43.05,1.27,2,2.68,4,4.34,6.4a37.85,37.85,0,0,0,3.17-3.92c16.36-28.28,41.66-44.67,72.13-54.09,16.38-5.07,32.92-9.58,50-12,20.14-2.86,40-2.72,59,5.64,11.36,5,20.94,12.29,28,22.75,7.45,11,17,19.77,29.32,25,7.12,3,14.54,4.84,22.35,3.73,18.87-2.68,28.62-15,33.59-32.16.74-2.57,1.15-5.23,1.68-7.69,2.39,25.56-2.69,54.51-13.47,75.88-13.85,27.48-35.93,46-63.86,57.93a187.19,187.19,0,0,1-55.05,13.92c-50.93,5.18-100.17-1.69-147.58-21-9.8-4-9.79-1.8-18.93-13.88-.36.14-.93.17-1.06.42-3.33,6.49-9.05,9.8-15.55,12.48a321.09,321.09,0,0,1-76.95,20.76,299.23,299.23,0,0,1-65,2.14c-30.45-2.26-59.56-9.57-85.56-26.42-29.38-19-46.66-46.18-53-80.44a113.6,113.6,0,0,1-2.28-15.93C354.07,912.77,354.34,903.66,354.34,896.67Z"/>
      <path fill="#339966"
            d="M974.05,795.89c-4.07,5.71-7.2,11-11.81,15.93l-17.08-16.63c-2.18,1.64-4,2.9-5.71,4.3-16.23,13.31-34.74,21.75-55.53,24.13a123.08,123.08,0,0,1-74.25-14.57c-32.37-17.62-53.31-45.06-66.74-78.74-9.7-24.3-12.54-49.72-9.79-75.5,3-28,13.75-53.24,32.48-74.41,22.77-25.72,51.68-38.69,86.19-37.87,38.86.93,70.44,17.43,95.62,46.57,21.44,24.79,33.74,53.74,37.57,86.2,4.25,36.05-3.45,69.38-23.92,99.58-3.2,4.72-3.17,4.78.8,8.82S969.72,791.56,974.05,795.89ZM851.15,561.77c-15.18.09-28.53,3.05-41.38,9.39-25.75,12.7-41.83,33.78-51.58,60.13-8.5,23-8.85,46.6-3.71,70.22,7,32.24,22.9,59.31,49.84,79,21.5,15.68,45.9,23.12,72.42,20.27,32.88-3.54,57.48-20.89,74.07-49.22,12.77-21.81,17.73-45.46,15.58-70.84-2.67-31.45-14.18-58.81-35.47-82.06C909.48,575.21,883,562.57,851.15,561.77Z"/>
      <path fill="#339966"
            d="M561.57,596.78c-2-2.37-4-4.73-5.92-7.12-.9-1.09-1.73-2.23-2.47-3.2a5.37,5.37,0,0,1,.45-1.47c5.75-7.14,5.65-7.07.59-14.72-9.48-14.32-10.88-29.55-4.73-45.52a28.47,28.47,0,0,1,8.16-11.49c23.72-20.53,51-32.56,82.4-35.09,39.22-3.16,73.69,8.68,104.3,33,8.91,7.08,13,16.27,14,27.23,1.33,14.59-2.71,27.39-13.14,38.6l6.88,9.21-9.69,10.23-10-9.68c-19.82,6-31.78,27.72-31.58,42.87a80.06,80.06,0,0,0,3.2,22c8.87,29.69,17.7,59.42,30.7,87.67,4.06,8.82,8.55,17.44,12.87,26.14,1.42,2.85,2.44,5.68,1.07,8.89-1.22,2.85-2.9,5-6.28,5.18-3.21.2-5.65-.92-7.13-3.86-2.43-4.79-4.65-9.71-7.33-14.35-2-3.53-4.65-6.74-7-10.06-3-4.18-6.73-8-9-12.55-11.71-23.53-21.82-47.74-29-73.08a144,144,0,0,1-5-36.74c-.19-10.29,4.1-17.82,12.92-23.05a15,15,0,0,0,5.16-5,62.06,62.06,0,0,1,30.22-26.61c10.66-4.47,15.33-12.86,17.54-23.06,1-4.7.54-9.84.08-14.72-.51-5.36-3.35-9.56-7.8-12.83-10.54-7.73-22.43-12.32-34.93-15.48-37-9.34-73.7-8.44-109.8,4.25-6.75,2.38-13,6.23-19.35,9.66-6.62,3.59-9.23,9.74-9.85,16.92-.9,10.37,1.78,19.76,8.52,27.68a24.29,24.29,0,0,0,8.3,6.13c13.78,6.13,25.31,14.71,33,28a13.87,13.87,0,0,0,4.8,4.58c9.84,6,14.11,14.84,13.36,26.1-1,15.51-3.23,30.87-8.71,45.5-7.17,19.15-14.68,38.17-22.21,57.18A58.25,58.25,0,0,1,586.39,753a27,27,0,0,0-4.47,6.58c-2.6,5.17-4.84,10.52-7.4,15.71-2.26,4.58-5.46,6.17-9.43,5-3.31-1-5.67-4.53-5.06-8.93a28.43,28.43,0,0,1,3-8.7,394,394,0,0,0,27.38-68.38c4.25-14.47,8.72-28.87,12.61-43.43,2.68-10,4-20.23.84-30.56-4.41-14.21-13.31-24.55-26.38-31.42-4.17-2.19-5.2-1.93-8.63,1.54-1.74,1.76-3.46,3.53-5.21,5.28-.13.14-.38.16-.57.23ZM583.3,742.86l1.58,1.11c1.58-2.05,3.53-3.91,4.67-6.17,4.38-8.66,9-17.24,12.6-26.22,9.17-23,18.63-46,20.85-71.09.57-6.4,1.49-12.82-.88-19-1.13-3-2.1-6.33-6.58-7.37-.32,1.46-1,2.77-.81,4,2,15.83-.07,31.3-3.89,46.65-5.45,21.93-13.83,42.84-22.18,63.76C586.77,733.24,585.08,738.07,583.3,742.86ZM719.39,736c2.19-2.87.19-5.26-.68-7.57-5.74-15.25-11.82-30.38-17.34-45.7-4.76-13.21-8.63-26.73-9.84-40.79-.65-7.58-.53-15.23-.68-22.85,0-1.85.44-3.81-2.76-4.57-4.23,3.82-5.73,9.12-5.59,14.69a165.25,165.25,0,0,0,1.79,19.08,151,151,0,0,0,10.44,36.81c6.41,15.42,13.07,30.73,19.7,46.06C715.37,733.27,716.25,735.77,719.39,736Z"/>
      <path fill="#339966"
            d="M546.21,673c.09,35.32-10.47,64.25-32.64,88.49-21.36,23.36-48.32,34.61-79.9,32.32-27.56-2-49.5-15.57-65.47-37.88-18-25.12-24.36-53.43-20.32-84.07,4.58-34.62,20.71-62.89,49.17-82.83,30.21-21.16,63.09-24.84,96.68-7.81,22.67,11.5,36.82,30.84,45.79,54.18C544.47,648.28,546.71,661.68,546.21,673Zm-20.46,56.37a53.5,53.5,0,0,0,3.32-6.34c11.32-31.94,11.11-63.68-2.77-94.79-8.92-20-23.75-34.11-44.66-41.35-22.14-7.67-44.24-7.17-66.2.73-12.25,4.41-23.4,10.75-31.56,21.12q-40.06,50.87-24,113.74a35.17,35.17,0,0,0,2.49,5.47c4-2.06,2.93-5,2.67-7.42-2.23-21.09,2.71-40.6,13-58.92a45.47,45.47,0,0,1,3.36-4.57c17.83,20,40.26,27.87,65.79,27.25S495,675.06,513,654.88c2.52,5.8,4.92,10.6,6.73,15.61a94.46,94.46,0,0,1,4.17,50.62C523.42,723.51,521.91,726.32,525.75,729.38ZM444.08,691c-17.49.12-33.37,5.15-47.24,15.91-10.08,7.83-16.35,18.11-17.33,31-1.11,14.57,4.95,26.19,16.47,34.8,17.54,13.11,37.32,17,58.66,12.92,15.15-2.93,28.8-9.37,39.31-20.83,17.07-18.61,14.61-41.59-2.63-56.47A69.35,69.35,0,0,0,444.08,691Z"/>
      <path fill="#339966"
            d="M859.36,792.05c-20.51-.41-43.4-10.75-62.43-29.48-22-21.7-34.31-48.13-37.21-79.05-2.88-30.73,4.78-58.29,24.11-82.26,14.23-17.63,33-28.22,55.51-30.91,35.35-4.25,64.56,8.56,88,34.67,17.88,20,28,43.64,31,70.35,3.72,33.69-5.15,63.55-27.78,88.86C914.11,782.55,890.4,792.38,859.36,792.05Zm81.4-64.3c4.42.77,4.77-2.34,5.13-4.44,1.53-8.94,3.61-17.9,3.87-26.9.69-24-5.1-46.65-16.45-67.87-26.73-49.9-83.23-58.95-122.65-40.32a56.73,56.73,0,0,0-25.37,22.93c-15,25.57-20.58,53-15.71,82.25,1.58,9.48,5.18,18.64,8,27.89.61,2,1.2,4.62,5.1,3.87a52.27,52.27,0,0,0-.62-6,95.52,95.52,0,0,1,5.29-57.09c.81-2,1.92-3.89,3.11-6.27,1.52,1.37,2.48,2.11,3.28,3a67.05,67.05,0,0,0,20.4,14.92c20.24,9.84,41.52,12.57,63.36,7.86,16.64-3.59,31.78-10.6,42.18-25.11a8.9,8.9,0,0,1,2.13-1.51c8.06,10.61,12.81,22.36,16.24,34.79S940.76,715,940.76,727.75Zm-69.27,58.59c13.8.09,27.78-8,39.21-17.57a35,35,0,0,0,12.88-30.87,43.82,43.82,0,0,0-15.9-30.6C883.44,686.86,844,683,816.4,702.45c-21.61,15.26-24,45-4.49,62.88C826.56,778.8,843.93,786.34,871.49,786.34Z"/>
    </g>
  </g>
</svg>
